<svg width="147" height="185" viewBox="0 0 147 185" fill="none" xmlns="http://www.w3.org/2000/svg">
<circle cx="73.5" cy="73.0083" r="72.5" fill="url(#paint0_linear_2_148)" fill-opacity="0.75"/>
<g filter="url(#filter0_d_2_148)">
<path d="M73.4318 59.647C73.4318 59.647 73.4265 59.6561 73.4187 59.6705C73.4265 59.6561 73.4318 59.647 73.4318 59.647C73.4318 59.647 73.4423 59.6293 73.4501 59.6155C73.4423 59.6293 73.4318 59.647 73.4318 59.647ZM91.6597 108.106C91.8142 107.662 91.9687 107.212 92.1207 106.759C92.1829 106.575 92.2458 106.391 92.3067 106.206C92.9589 104.241 93.5685 102.232 94.0243 100.389C94.406 98.8483 94.7911 97.047 95.127 95.2094C95.8814 92.2256 96.1701 89.2919 96.1557 86.5193C96.1237 80.181 94.5416 74.6904 93.5004 71.3953C93.3609 70.9546 93.2306 70.5479 93.1153 70.189C92.1802 67.2685 90.5497 63.0009 89.502 59.5979H57.4997C56.452 63.0009 54.8208 67.2685 53.8864 70.189C53.7731 70.544 53.6434 70.9448 53.5059 71.3797C52.5878 74.2832 51.2441 78.8998 50.9167 84.3022C50.8257 85.8095 50.8146 87.3791 50.9134 88.9893C51.0568 92.5207 51.5709 96.6516 52.6952 100.709C53.0822 102.104 53.7515 104.094 54.5032 106.206C54.5687 106.389 54.6348 106.574 54.7016 106.759C54.8614 107.206 55.0238 107.656 55.1882 108.106C55.8175 109.829 56.4605 111.54 57.0165 112.999H89.8589C90.4057 111.58 91.0356 109.893 91.6597 108.106" fill="#5665B9"/>
<path d="M58.5828 117.053H88.2389C88.2389 117.053 88.6855 115.991 89.3462 114.316H57.52C58.1533 115.962 58.5828 117.053 58.5828 117.053Z" fill="#5665B9"/>
<path d="M57.0165 112.999C57.1946 113.467 57.3636 113.908 57.5201 114.316H89.3462C89.506 113.91 89.6776 113.47 89.8589 112.999H57.0165" fill="#EE232C" fill-opacity="0.8"/>
<path d="M93.5002 71.3961C92.516 68.2529 90.6157 62.974 89.5018 59.5979C89.0579 59.5979 87.0272 59.5554 86.7247 59.5991C86.1884 60.2586 85.2932 62.0069 85.9068 67.1397C86.4156 71.4024 88.7383 75.7814 89.1377 76.9517C88.2537 79.0039 87.3828 82.7008 87.4614 85.3066C87.5033 86.6895 87.5078 87.275 88.0703 88.5558C88.6859 89.9577 90.2509 90.5706 92.4577 91.0121C93.6731 90.9223 94.73 90.1412 95.36 88.8092C95.6893 88.1124 95.9801 87.3128 96.1556 86.5194C96.1235 80.181 94.5329 74.6938 93.5002 71.3961" fill="#FBED81"/>
<path d="M88.8216 89.6042C88.8216 89.6042 89.9341 90.2852 90.7979 90.5806C91.6603 90.8766 92.4788 90.9858 92.4788 90.9858C92.4788 90.9858 92.0597 94.1246 91.0428 95.4184C90.0252 96.713 89.3664 96.8721 89.2754 96.8499C89.185 96.8263 89.1392 96.1912 89.1392 96.1912C89.1392 96.1912 88.8438 96.3948 88.1628 96.5769C87.4811 96.7582 87.2997 96.8263 87.2775 96.6672C87.2546 96.5089 87.7535 95.8957 87.7535 95.8957C87.7535 95.8957 86.9134 96.1912 86.6862 96.0774C86.4596 95.9633 86.8119 95.5665 86.8119 95.5665L88.3671 94.1696C88.3671 94.1696 87.0162 94.7971 86.6528 94.8958C86.2775 94.9981 85.8918 95.0322 85.9148 94.7825C85.937 94.5331 86.7916 94.0903 87.1413 93.8056C88.538 92.6707 88.9237 91.3533 88.9237 91.3533C88.9237 91.3533 88.0266 91.6938 87.527 91.6938C87.0273 91.6938 86.4596 91.3756 86.3908 91.1255C86.3234 90.8766 86.3234 90.8766 86.3234 90.8766C86.3234 90.8766 87.4137 90.9441 87.8904 90.4673C88.3671 89.9905 88.8216 89.6042 88.8216 89.6042" fill="#FCD0B0"/>
<path d="M95.2853 89.0082C92.848 89.5812 89.5693 88.9486 87.523 86.3024C87.4863 86.2554 87.413 86.2848 87.4254 86.3444C87.612 87.1892 89.0939 88.4306 90.3361 88.9146C91.7649 89.4732 93.8958 89.8687 95.2244 89.1701C95.3194 89.1203 95.394 88.9821 95.2853 89.0082" fill="#EE232C" fill-opacity="0.8"/>
<path d="M95.9193 86.6314C92.8397 86.461 89.6519 85.355 87.4995 83.0736C87.4543 83.0252 87.3757 83.0866 87.4091 83.1428C88.9428 85.744 93.1383 86.757 95.9193 86.9207C96.1053 86.932 96.1053 86.6416 95.9193 86.6314Z" fill="#EE232C" fill-opacity="0.8"/>
<path d="M90.2182 86.4556C90.046 86.924 89.4665 86.9764 89.1384 86.6626C88.9564 86.4892 88.8948 86.2561 88.8307 86.0237C88.7527 85.7458 88.7193 85.4558 88.5288 85.224C88.2446 84.8769 87.7462 84.8245 87.4411 85.1682C87.4169 85.1959 87.447 85.2353 87.4791 85.2189C87.9486 84.9797 88.3474 85.2933 88.4829 85.7453C88.5517 85.9758 88.5746 86.2188 88.6709 86.4414C88.7802 86.6953 88.9642 86.9273 89.2163 87.0517C89.7068 87.2934 90.2457 87.0013 90.2516 86.4598C90.2516 86.4401 90.2248 86.438 90.2182 86.4556" fill="#EE232C" fill-opacity="0.8"/>
<path d="M92.304 87.4433C92.1324 87.9121 91.5529 87.9638 91.2242 87.6507C91.0428 87.4765 90.9819 87.2443 90.9164 87.0117C90.8385 86.7327 90.8051 86.4439 90.6145 86.2122C90.331 85.865 89.832 85.8129 89.5269 86.1564C89.5026 86.184 89.5327 86.2234 89.5655 86.207C90.0356 85.9673 90.4338 86.2815 90.5687 86.7327C90.6381 86.9639 90.661 87.2069 90.7566 87.4294C90.866 87.6834 91.05 87.9155 91.3021 88.0398C91.7926 88.2815 92.3315 87.9886 92.3374 87.4479C92.338 87.4282 92.3105 87.4262 92.304 87.4433" fill="#EE232C" fill-opacity="0.8"/>
<path d="M88.2557 68.0339C88.2465 68.0158 88.2217 68.0263 88.2236 68.0444C88.28 68.5409 87.7849 68.8466 87.3514 68.7144C87.1111 68.6411 86.9519 68.459 86.7902 68.2815C86.5951 68.0674 86.4359 67.8231 86.1616 67.7014C86.1026 67.6753 86.043 67.6589 85.9828 67.6472C85.9933 67.7492 86.0057 67.8508 86.0188 67.9536C86.1393 68.0052 86.2552 68.0833 86.3541 68.1879C86.5191 68.3634 86.6488 68.5703 86.8341 68.7261C87.0456 68.9044 87.3141 69.0287 87.595 69.0266C88.1424 69.0228 88.4928 68.5207 88.2557 68.0339" fill="#EE232C" fill-opacity="0.8"/>
<path d="M90.6053 67.6503C90.6806 68.1442 90.1987 68.4695 89.7599 68.3537C89.517 68.2894 89.3507 68.1153 89.1817 67.9436C88.9781 67.7375 88.8098 67.4998 88.5308 67.3883C88.1143 67.2228 87.6527 67.4185 87.5518 67.8664C87.5433 67.9024 87.5885 67.9221 87.6101 67.892C87.9048 67.4551 88.4057 67.5377 88.7423 67.8677C88.9139 68.036 89.0521 68.2378 89.2439 68.3864C89.462 68.556 89.7357 68.6693 90.0153 68.6568C90.5621 68.6312 90.8928 68.1153 90.6368 67.638C90.6269 67.6208 90.602 67.6321 90.6053 67.6503" fill="#EE232C" fill-opacity="0.8"/>
<path d="M92.2339 67.5742C92.1592 67.5902 92.1324 67.6216 92.0532 67.6116C91.8037 67.5801 91.6158 67.4297 91.4252 67.2824C91.1967 67.1049 90.9969 66.8926 90.7055 66.8194C90.2714 66.7107 89.8398 66.966 89.7992 67.4231C89.796 67.4597 89.8438 67.473 89.8601 67.4407C90.0946 66.9685 90.6021 66.9831 90.9799 67.266C91.1724 67.4101 91.3525 67.5653 91.545 67.7132C92.0283 68.0817 92.3413 67.8782 92.3472 67.8776C92.3229 67.7853 92.2607 67.6648 92.2339 67.5742" fill="#EE232C" fill-opacity="0.8"/>
<path d="M94.6627 87.8735C94.6005 88.3679 94.0471 88.5493 93.6569 88.3173C93.4414 88.1892 93.3288 87.9756 93.2135 87.7648C93.0747 87.5108 92.9778 87.2355 92.7401 87.0525C92.3858 86.7785 91.8875 86.8401 91.6675 87.243C91.6498 87.275 91.6878 87.3064 91.7166 87.2829C92.12 86.9442 92.579 87.1612 92.8121 87.5709C92.9313 87.7799 93.0086 88.0117 93.1514 88.2068C93.3151 88.4302 93.5469 88.614 93.8199 88.679C94.3523 88.8046 94.8127 88.3987 94.6968 87.8702C94.6922 87.85 94.6653 87.8546 94.6627 87.8735Z" fill="#EE232C" fill-opacity="0.8"/>
<path d="M95.5722 88.0162C95.4334 87.7628 95.3358 87.4886 95.0981 87.3044C94.7438 87.0307 94.2455 87.0916 94.0255 87.4949C94.0085 87.5264 94.0471 87.5584 94.0753 87.5349C94.4786 87.1965 94.9377 87.4131 95.1701 87.8223C95.2893 88.0319 95.3666 88.2639 95.51 88.4588C95.5513 88.5158 95.6259 88.1145 95.5722 88.0162" fill="#EE232C" fill-opacity="0.8"/>
<path d="M87.9499 85.3936C87.8137 85.5967 87.6061 85.6791 87.4011 85.6668C87.1877 85.6522 87.2296 85.9436 87.4241 85.9175C87.6814 85.8835 87.9054 85.7034 87.9813 85.4054C87.9866 85.3864 87.9604 85.378 87.9499 85.3936" fill="#EE232C" fill-opacity="0.8"/>
<path d="M90.8908 63.678C89.1705 64.462 87.5747 64.8935 85.768 65.2013C85.7667 65.268 85.7588 65.3361 85.7601 65.4023C87.5524 65.4343 89.4665 64.8306 90.9975 63.9689C90.9575 63.8921 90.9281 63.7854 90.8908 63.678" fill="#EE232C" fill-opacity="0.8"/>
<path d="M85.9174 66.8593C87.5702 67.3392 89.9937 66.4953 91.5718 65.6991C91.5535 65.6126 91.5371 65.5182 91.4985 65.4355C89.7272 66.1835 87.8386 66.8069 85.9017 66.668C85.9069 66.7317 85.9121 66.7959 85.9174 66.8593" fill="#EE232C" fill-opacity="0.8"/>
<path d="M92.6151 68.6829C91.0291 69.8028 88.3534 70.1444 86.4132 69.8565C86.4302 69.9232 86.4479 69.9908 86.4655 70.058C87.3528 70.3409 88.6481 70.2913 89.5865 70.1373C90.5969 69.9724 92.1187 69.4656 92.6884 68.9136C92.6412 68.8545 92.6544 68.7872 92.6151 68.6829Z" fill="#EE232C" fill-opacity="0.8"/>
<path d="M93.0577 70.0215C91.4612 71.1484 88.7312 71.5032 86.7864 71.2055C86.8054 71.2694 86.823 71.3344 86.8433 71.3979C87.7306 71.6951 89.0462 71.6475 89.9983 71.4915C91.0087 71.3265 92.5685 70.8144 93.1382 70.2619C93.1035 70.1361 93.0963 70.1263 93.0577 70.0215" fill="#EE232C" fill-opacity="0.8"/>
<path d="M88.5152 55.1077C88.5152 52.3821 88.5152 43.8426 88.5152 43.8426C88.5152 35.5505 81.7934 28.8286 73.5012 28.8286C65.2084 28.8286 58.4859 35.5505 58.4859 43.8426C58.4859 43.8426 58.4859 52.3821 58.4859 55.1077C58.4859 56.0815 58.0819 57.708 57.4998 59.5979H89.502C88.9199 57.708 88.5152 56.0815 88.5152 55.1077Z" fill="#EE232C" fill-opacity="0.8"/>
<path d="M89.1392 58.3289H77.1571L76.4282 57.6262L88.9237 57.5633L89.1392 58.3289Z" fill="#F57615"/>
<path d="M69.6364 58.3288H57.873L58.0616 57.5633L70.7522 57.575L69.6364 58.3288" fill="#F57615"/>
<path d="M88.7516 56.8304H75.4546L75.6294 56.1298L88.6049 56.0638L88.7516 56.8304Z" fill="#FAD10F"/>
<path d="M71.1903 56.8304H58.2508L58.3962 56.0651L71.2171 56.0773L71.1903 56.8304Z" fill="#FAD10F"/>
<path d="M86.8506 59.5795L60.03 59.5979C60.6829 61.6631 61.2834 64.2825 60.5041 66.435H85.8939C85.4447 64.0369 85.7963 61.7777 86.8506 59.5795" fill="#FBED81"/>
<path d="M62.6729 59.7007C62.6729 59.7007 62.3776 62.4607 62.5256 64.096C62.6729 65.731 62.8072 66.4349 62.8072 66.4349L65.784 66.4807C65.784 66.4807 65.7389 63.3401 65.3983 61.878C65.0572 60.4172 64.5805 59.5991 64.5805 59.5991L62.6729 59.7007" fill="#EE232C" fill-opacity="0.8"/>
<path d="M81.2739 59.5991C81.2739 59.5991 81.0041 62.2729 81.0237 63.7095C81.0467 65.3453 80.9949 66.4807 80.9949 66.4807L83.8402 66.5948C83.8402 66.5948 83.924 63.0332 83.8631 61.8616C83.8022 60.6896 83.6352 59.5991 83.6352 59.5991H81.2739" fill="#EE232C" fill-opacity="0.8"/>
<path d="M79.1151 60.091C77.7812 58.8703 76.0171 58.1206 74.79 57.7085C74.3486 57.8886 73.8496 57.9326 73.3539 57.894C72.9152 57.8605 72.4817 57.7651 72.094 57.6418C70.8656 58.0375 68.9764 58.8036 67.5704 60.091C65.3073 62.1614 64.0527 64.1896 64.0527 64.1896C64.0527 64.1896 67.7237 65.1345 70.2415 63.8031C71.7456 63.0076 72.428 62.2655 72.8497 60.9469C72.9879 60.5126 73.2099 59.7943 73.3244 59.1714C73.4351 59.804 73.6335 60.4799 73.7514 60.8937C74.1554 62.3087 74.8122 63.0533 76.3714 63.8786C78.8892 65.2105 82.6329 64.1896 82.6329 64.1896C82.6329 64.1896 81.3782 62.1614 79.1151 60.091" fill="#EE232C" fill-opacity="0.8"/>
<path d="M83.9693 44.4987C83.9693 50.3025 79.2644 55.0068 73.4612 55.0068C67.6581 55.0068 62.9532 50.3025 62.9532 44.4987C62.9532 38.6956 67.6581 33.9907 73.4612 33.9907C79.2644 33.9907 83.9693 38.6956 83.9693 44.4987Z" fill="#FCD0B0"/>
<path d="M74.0839 34.0562C74.1068 34.0169 74.1212 33.9907 74.1212 33.9907C74.1212 33.9907 73.6543 33.9481 72.9222 33.9894C72.8443 33.9894 72.7893 33.9907 72.7893 33.9907C72.7893 33.9907 72.7913 33.9953 72.7919 33.9959C71.0186 34.1184 67.8414 34.7503 65.5875 37.5405C65.5875 37.5405 69.1033 37.902 71.073 36.9479C72.1522 36.4247 72.9615 35.5885 73.4756 34.9382C74.0007 35.5682 74.8154 36.371 75.8801 36.8863C76.9645 37.4115 78.5636 37.3945 79.7836 37.4986C80.7822 37.5831 81.5267 37.8313 81.5267 37.8313C79.2368 34.9965 75.8998 34.2493 74.0839 34.0562" fill="#BF3822"/>
<path d="M72.2255 45.1353C72.1784 45.1359 72.1207 45.1346 72.088 45.1719C71.8162 45.4856 72.3886 46.0631 72.7258 45.8641C72.7697 45.8379 72.8044 45.7855 72.8011 45.7331C72.7893 45.5517 72.5988 45.1307 72.2255 45.1353" fill="#E9A579"/>
<path d="M74.6969 45.1353C74.744 45.1359 74.8016 45.1346 74.8344 45.1719C75.1061 45.4856 74.5338 46.0631 74.1966 45.8641C74.1527 45.8379 74.118 45.7855 74.1213 45.7331C74.133 45.5517 74.3236 45.1307 74.6969 45.1353" fill="#E9A579"/>
<path d="M71.9499 48.38C72.0206 49.4984 72.6839 49.8933 73.4507 49.8933C74.4605 49.8933 74.8527 49.3786 74.9516 48.3413C74.378 48.4435 72.8437 48.4245 71.9499 48.38" fill="#F03B5E"/>
<path d="M73.6962 47.1999C73.615 47.1816 73.2863 47.1816 73.2051 47.1999C72.5444 47.3492 72.1502 48.3498 71.3781 48.1593C71.6663 48.6032 72.5359 48.8966 73.4507 48.8652C74.3661 48.8966 75.2357 48.6032 75.5239 48.1593C74.7518 48.3498 74.3576 47.3492 73.6962 47.1999Z" fill="#F03B5E"/>
<path d="M75.907 47.7932C75.4146 48.192 74.9235 48.5024 74.2595 48.4755C73.9654 48.4638 73.7448 48.306 73.4409 48.306C73.0958 48.306 72.9131 48.4611 72.5582 48.4755C71.8942 48.5024 71.4037 48.192 70.9106 47.7932C70.9041 47.7886 70.8962 47.7945 70.8995 47.8017C71.0835 48.2012 71.5327 48.5365 71.9472 48.6681C72.1738 48.7395 72.3821 48.6949 72.6374 48.6321C72.9125 48.5646 73.2353 48.4566 73.4409 48.4592C73.6308 48.4618 73.9563 48.577 74.1802 48.6321C74.4356 48.6949 74.6438 48.7395 74.8704 48.6681C75.2849 48.5365 75.7341 48.2012 75.9181 47.8017C75.9214 47.7945 75.9129 47.7886 75.907 47.7932Z" fill="#C51A39"/>
<path d="M81.53 47.8063C81.53 48.9863 80.574 49.9424 79.3946 49.9424C78.2146 49.9424 77.2579 48.9863 77.2579 47.8063C77.2579 46.6263 78.2146 45.6696 79.3946 45.6696C80.574 45.6696 81.53 46.6263 81.53 47.8063Z" fill="#F8A0A4"/>
<path d="M69.3726 47.8063C69.3726 48.9863 68.4159 49.9424 67.2358 49.9424C66.0565 49.9424 65.0998 48.9863 65.0998 47.8063C65.0998 46.6263 66.0565 45.6696 67.2358 45.6696C68.4159 45.6696 69.3726 46.6263 69.3726 47.8063Z" fill="#F8A0A4"/>
<path d="M81.5267 37.8313C80.3493 37.2923 79.1903 37.3552 77.9212 37.2661C75.9089 37.124 74.7826 36.2361 73.507 34.8177C73.507 34.8177 72.3165 36.1765 70.5714 36.885C69.0325 37.5097 67.0209 37.496 65.6202 37.4862C65.5226 37.4849 65.5239 37.6322 65.6202 37.6374C68.3371 37.7789 72.0002 37.7795 73.4919 35.043C75.9783 38.4514 79.1837 37.0821 81.5529 38.0258C81.6466 38.0637 81.623 37.8758 81.5267 37.8313" fill="#3B1818" fill-opacity="0.8"/>
<path d="M72.4035 34.9821C71.0088 36.3022 69.0403 36.5229 67.3758 36.5085C67.3266 36.5085 67.3253 36.5825 67.3758 36.5864C69.2034 36.737 71.1463 36.3919 72.4448 35.024C72.4703 34.9958 72.4311 34.9566 72.4035 34.9821" fill="#3B1818" fill-opacity="0.8"/>
<path d="M74.6505 34.9821C76.0446 36.3022 78.013 36.5229 79.6776 36.5085C79.7267 36.5085 79.728 36.5825 79.6776 36.5864C77.85 36.737 75.9064 36.3919 74.6086 35.024C74.5824 34.9958 74.623 34.9566 74.6505 34.9821Z" fill="#3B1818" fill-opacity="0.8"/>
<path d="M73.4613 34.138C67.7479 34.138 63.1006 38.786 63.1006 44.4988C63.1006 50.2122 67.7479 54.86 73.4613 54.86C79.1747 54.86 83.8221 50.2122 83.8221 44.4988C83.8221 38.786 79.1747 34.138 73.4613 34.138V34.138ZM73.4613 55.1535C67.5862 55.1535 62.8072 50.3739 62.8072 44.4988C62.8072 38.6243 67.5862 33.844 73.4613 33.844C79.3365 33.844 84.1161 38.6243 84.1161 44.4988C84.1161 50.3739 79.3365 55.1535 73.4613 55.1535" fill="#3B1818" fill-opacity="0.8"/>
<path d="M75.3353 42.6836C75.3353 42.6836 75.8769 43.9251 77.8112 43.9251C79.7456 43.9251 79.8838 42.9665 79.8838 42.9665C79.8838 42.9665 79.5688 41.1748 77.8112 41.1794C76.0537 41.1847 75.3353 42.6836 75.3353 42.6836Z" fill="white"/>
<path d="M79.0155 42.2691C79.0155 42.9501 78.4628 43.5028 77.7811 43.5028C77.1001 43.5028 76.5474 42.9501 76.5474 42.2691C76.5474 41.5874 77.1001 41.0354 77.7811 41.0354C78.4628 41.0354 79.0155 41.5874 79.0155 42.2691Z" fill="#5665B9"/>
<path d="M77.7962 40.9928C76.5474 40.9371 75.6248 41.8323 75.1847 42.9298C75.1533 43.0084 75.2875 43.0653 75.3216 42.9874C75.7413 42.0222 76.5376 41.1964 77.6574 41.1906C78.878 41.1847 79.7207 42.0903 79.9486 43.2238C79.9761 43.3613 80.1909 43.3037 80.1601 43.1655C79.9021 42.0248 79.0201 41.0471 77.7962 40.9928" fill="#3B1818" fill-opacity="0.8"/>
<path d="M79.1759 40.0118C78.339 39.2103 76.3078 39.5319 75.7806 40.5829C75.778 40.5881 75.7839 40.5946 75.7885 40.5914C76.2842 40.1487 76.6627 39.9215 77.2632 39.8213C77.8839 39.7178 78.4949 39.8305 79.1261 40.095C79.1746 40.1153 79.2087 40.0439 79.1759 40.0118" fill="#3B1818" fill-opacity="0.8"/>
<path d="M78.709 42.2691C78.709 42.7654 78.3069 43.1668 77.8112 43.1668C77.3155 43.1668 76.9134 42.7654 76.9134 42.2691C76.9134 41.7727 77.3155 41.3713 77.8112 41.3713C78.3069 41.3713 78.709 41.7727 78.709 42.2691Z" fill="#3B1818" fill-opacity="0.8"/>
<path d="M78.7967 42.0379C78.7967 42.1911 78.6723 42.3156 78.5191 42.3156C78.3652 42.3156 78.2408 42.1911 78.2408 42.0379C78.2408 41.8847 78.3652 41.7602 78.5191 41.7602C78.6723 41.7602 78.7967 41.8847 78.7967 42.0379Z" fill="white"/>
<path d="M71.4869 42.6836C71.4869 42.6836 70.946 43.9251 69.0116 43.9251C67.0773 43.9251 66.9391 42.9665 66.9391 42.9665C66.9391 42.9665 67.2541 41.1748 69.0116 41.1794C70.7692 41.1847 71.4869 42.6836 71.4869 42.6836Z" fill="white"/>
<path d="M70.2754 42.2691C70.2754 42.9501 69.7227 43.5028 69.0417 43.5028C68.36 43.5028 67.8074 42.9501 67.8074 42.2691C67.8074 41.5874 68.36 41.0354 69.0417 41.0354C69.7227 41.0354 70.2754 41.5874 70.2754 42.2691Z" fill="#5665B9"/>
<path d="M69.0267 40.9928C70.2754 40.9371 71.1981 41.8323 71.6381 42.9298C71.6696 43.0084 71.5353 43.0653 71.5013 42.9874C71.0815 42.0222 70.2853 41.1964 69.1655 41.1906C67.9449 41.1847 67.1021 42.0903 66.8742 43.2238C66.8467 43.3613 66.6313 43.3037 66.6627 43.1655C66.9201 42.0248 67.8021 41.0471 69.0267 40.9928" fill="#3B1818" fill-opacity="0.8"/>
<path d="M67.647 40.0118C68.4839 39.2103 70.5151 39.5319 71.0423 40.5829C71.0449 40.5881 71.039 40.5946 71.0344 40.5914C70.5387 40.1487 70.1602 39.9215 69.5597 39.8213C68.939 39.7178 68.328 39.8305 67.6954 40.095C67.6483 40.1153 67.6136 40.0439 67.647 40.0118" fill="#3B1818" fill-opacity="0.8"/>
<path d="M69.9696 42.2691C69.9696 42.7654 69.5675 43.1668 69.0711 43.1668C68.5754 43.1668 68.1733 42.7654 68.1733 42.2691C68.1733 41.7727 68.5754 41.3713 69.0711 41.3713C69.5675 41.3713 69.9696 41.7727 69.9696 42.2691Z" fill="#3B1818" fill-opacity="0.8"/>
<path d="M69.4457 42.0379C69.4457 42.1911 69.5701 42.3156 69.7234 42.3156C69.8766 42.3156 70.0017 42.1911 70.0017 42.0379C70.0017 41.8847 69.8766 41.7602 69.7234 41.7602C69.5701 41.7602 69.4457 41.8847 69.4457 42.0379Z" fill="white"/>
<path d="M69.151 61.8616C69.151 62.2806 68.8118 62.6198 68.3927 62.6198C67.9736 62.6198 67.6337 62.2806 67.6337 61.8616C67.6337 61.4419 67.9736 61.1027 68.3927 61.1027C68.8118 61.1027 69.151 61.4419 69.151 61.8616Z" fill="#FAD10F"/>
<path d="M78.4301 61.8616C78.4301 62.2806 78.0902 62.6198 77.6718 62.6198C77.2527 62.6198 76.9128 62.2806 76.9128 61.8616C76.9128 61.4419 77.2527 61.1027 77.6718 61.1027C78.0902 61.1027 78.4301 61.4419 78.4301 61.8616Z" fill="#FAD10F"/>
<path d="M76.806 59.9102C76.806 60.3294 76.4662 60.6699 76.0464 60.6699C75.628 60.6699 75.2882 60.3294 75.2882 59.9102C75.2882 59.4917 75.628 59.152 76.0464 59.152C76.4662 59.152 76.806 59.4917 76.806 59.9102Z" fill="#F57615"/>
<path d="M71.5019 59.9102C71.5019 60.3294 71.1621 60.6699 70.743 60.6699C70.3239 60.6699 69.9847 60.3294 69.9847 59.9102C69.9847 59.4917 70.3239 59.152 70.743 59.152C71.1621 59.152 71.5019 59.4917 71.5019 59.9102Z" fill="#F57615"/>
<path d="M60.504 66.4349C60.504 66.4349 60.1347 67.9705 59.7667 68.93C59.3987 69.89 58.6115 70.8185 58.6115 70.8185H86.6894C86.6894 70.8185 86.104 69.3503 86.1328 68.5258C86.1616 67.7014 85.9017 66.668 85.9017 66.668L60.504 66.4349Z" fill="#5665B9"/>
<path d="M86.0563 68.182C85.3825 68.6411 84.8409 69.0837 84.2797 68.8532C83.215 68.4145 82.8908 67.994 81.9086 67.6129C81.4397 67.431 80.9918 67.3269 80.4922 67.4415C80.151 67.5213 79.9166 67.6707 79.6409 67.8807C79.4143 68.0531 78.84 68.7864 78.5938 68.8939C77.9311 69.1827 77.4341 68.7353 76.941 68.3583C76.0099 67.6472 75.1939 67.5637 74.5129 67.5239C73.6616 67.4742 73.2438 67.6287 72.6512 67.9339C71.6932 68.4283 71.1713 70.015 69.9225 68.8671C68.973 67.994 67.8677 67.7446 67.4761 67.7694C65.5057 67.8945 64.3945 70.1989 62.4031 68.8709C61.7856 68.459 61.3586 68.0531 60.8223 68.07C60.8079 68.245 60.7863 68.4171 60.7431 68.5846C61.7489 68.8675 62.3638 69.7602 63.4796 69.8257C65.067 69.9186 65.8665 68.2365 67.4761 68.2097C68.1545 68.1984 69.1204 68.6732 69.6141 69.1755C70.4464 70.0215 71.1562 69.5736 71.4627 69.3981C71.7665 69.2239 71.9447 68.9955 72.1817 68.7629C73.661 67.3169 75.8841 68.2756 76.4748 68.6261C76.9246 68.8926 77.3005 69.2901 77.8257 69.3988C78.768 69.5937 79.0784 69.0602 79.7103 68.5107C80.9938 67.3957 81.684 68.0825 82.274 68.3373C82.604 68.4787 83.9726 69.5505 84.7695 69.385C85.3405 69.2658 85.776 68.9934 86.1938 68.6992C86.1303 68.5324 86.0857 68.3596 86.0563 68.182" fill="white"/>
<path d="M59.019 70.7052C59.7728 69.5172 59.9856 68.5044 60.4027 67.1205C60.4688 66.9005 60.4996 66.8018 60.5677 66.5738C68.7138 66.799 77.3196 66.5613 85.7008 66.7539C85.7257 66.9379 85.8108 67.4231 85.8383 67.6044C85.9994 68.6639 86.1906 69.6444 86.4584 70.7044C81.7934 70.7366 63.6945 70.8073 59.019 70.7052V70.7052ZM62.8072 59.7943C63.4411 59.7851 63.7829 59.7864 64.5124 59.7628C64.7017 60.4184 65.0651 61.3083 65.2314 62.0875C64.646 62.8137 64.1405 63.5634 63.7633 64.3009C63.76 64.3001 64.574 64.4364 65.496 64.5452C65.4737 65.1227 65.6479 65.6635 65.602 66.2687C64.5982 66.2679 63.9584 66.2687 62.9533 66.2674C62.6272 64.1187 62.6042 62.0069 62.8072 59.7943V59.7943ZM67.7073 59.5689C66.8737 60.2652 66.084 61.0541 65.3984 61.878C65.3008 61.1472 65.1358 60.4387 64.8575 59.7518C65.8155 59.7162 66.769 59.6588 67.7073 59.5689V59.5689ZM65.8902 64.5884C66.6236 64.6703 67.1743 64.7055 67.6438 64.659C68.7898 64.5485 69.9927 64.1967 70.9933 63.5931C72.447 62.7134 73.0763 61.0372 73.3297 59.3687C73.5674 61.083 74.1908 62.8295 75.6865 63.733C76.6864 64.3375 77.8893 64.6892 79.0353 64.7999C79.4806 64.8436 80.1622 64.8332 80.8413 64.7861C80.8649 65.1862 80.8878 65.7087 80.8865 66.3308C75.8849 66.2679 70.8911 66.2699 65.8902 66.2687C65.8476 65.7021 65.8902 64.9138 65.8902 64.5884ZM83.0455 64.3684C82.4502 63.6448 81.8124 62.8833 81.1464 62.1249C81.1707 61.3482 81.3475 60.1611 81.4267 59.7073C82.113 59.725 82.8038 59.7347 83.494 59.7419C83.7363 61.9729 83.6584 64.1464 83.7154 66.3792C82.8405 66.3644 82.1483 66.3485 81.2741 66.3375C81.2021 65.8137 81.187 65.2844 81.1707 64.7605C82.1411 64.6846 82.8759 64.551 83.0455 64.3684V64.3684ZM78.7786 59.6201C79.6083 59.6529 80.3259 59.6772 81.1707 59.6999C81.0043 60.2951 80.9461 61.1027 80.967 61.92C80.2677 61.1308 79.5356 60.3484 78.7786 59.6201ZM86.5377 59.7204C85.3537 61.8636 85.3682 64.0271 85.6779 66.4127C85.0558 66.3997 84.5909 66.3951 83.9694 66.3838C83.9694 63.8458 84.1161 61.7109 83.8181 59.7452C84.7866 59.7531 85.5646 59.749 86.5377 59.7204V59.7204ZM89.2362 76.6222C88.3706 74.9125 87.533 72.9564 86.9037 70.9121C86.9057 70.8799 86.8985 70.8492 86.8775 70.8249C86.5979 69.9056 86.3563 68.9704 86.1815 68.0288C86.1186 67.6935 85.9621 66.5651 85.9477 66.4329C85.6975 64.1024 85.875 61.7928 86.7564 59.7137C87.5376 59.6894 88.309 59.6529 89.0581 59.5979C89.1773 59.5894 89.1603 59.4283 89.0378 59.4308C85.6255 59.5068 82.041 59.3615 78.5992 59.4492C77.8933 58.7813 77.169 58.1572 76.4284 57.6262C76.412 57.615 76.3963 57.64 76.4074 57.6531C78.3628 59.9056 80.5466 61.9401 82.4744 64.2262C80.3502 64.4397 77.981 64.6303 76.0434 63.5261C74.401 62.5904 73.7508 60.9352 73.3644 59.1285C73.3507 59.0661 73.3376 59.0046 73.3245 58.9417C73.314 58.9908 73.3042 59.0399 73.2937 59.0896C72.9047 60.8571 72.2473 62.4679 70.6357 63.3854C68.704 64.4855 66.3446 64.3009 64.2269 64.0873C65.1142 62.9454 65.9478 61.7864 66.9811 60.7602C68.1618 59.5866 69.5121 58.7131 70.8558 57.7518C70.9625 57.6746 70.8721 57.5188 70.7523 57.575C69.7818 58.0308 68.776 58.6936 67.8232 59.4753C64.4954 59.4308 61.3679 59.5395 58.1586 59.463C58.0178 59.4597 58.0368 59.6588 58.1756 59.6671C59.1159 59.7263 62.0725 59.7956 62.546 59.7956C62.1642 61.8754 62.3927 64.1738 62.58 66.2674C61.9396 66.2667 61.3005 66.2674 60.6594 66.2654C60.7779 65.8658 60.8925 65.4547 60.9986 65.0396C60.9154 65.1744 60.7825 65.2058 60.6613 65.1731C60.5107 65.7926 60.3333 66.4147 60.1375 67.0478C59.7151 68.4197 59.1768 69.7562 58.3924 70.9331C58.5259 70.9827 58.6576 71.0372 58.7925 71.0829C58.8304 71.0285 58.873 70.973 58.907 70.9198C63.5 71.0758 67.8907 71.1241 72.4843 71.0993C77.169 71.0746 81.8537 71.0495 86.5383 71.0247C86.8697 72.2903 88.6089 76.3845 88.9913 77.0223C89.1033 77.2082 89.3338 76.8148 89.2362 76.6222" fill="#3B1818" fill-opacity="0.8"/>
<path d="M75.4722 55.8955C75.3556 58.3798 71.3428 58.357 71.2014 55.9106C71.1961 55.8313 71.0606 55.8809 71.0593 55.9702C71.0324 57.6418 72.3185 58.0792 73.3898 58.1147C74.6753 58.1585 75.6267 57.2031 75.6411 55.9198C75.6431 55.7461 75.4807 55.7231 75.4722 55.8955" fill="#3B1818" fill-opacity="0.8"/>
<path d="M71.665 58.2529C71.2793 58.9216 70.8334 59.5408 70.2866 60.087C69.7273 60.6456 69.3724 60.939 68.4334 61.4326C68.3528 61.4746 68.402 61.6081 68.4976 61.5841C69.9854 61.2035 71.2453 59.6759 71.7383 58.2843C71.7547 58.2411 71.6873 58.2143 71.665 58.2529" fill="#3B1818" fill-opacity="0.8"/>
<path d="M75.0282 58.2529C75.4132 58.9216 75.8592 59.5408 76.406 60.087C76.9652 60.6456 77.3208 60.939 78.2591 61.4326C78.3397 61.4746 78.2912 61.6081 78.1956 61.5841C76.7072 61.2035 75.4466 59.6759 74.9535 58.2843C74.9385 58.2411 75.0053 58.2143 75.0282 58.2529Z" fill="#3B1818" fill-opacity="0.8"/>
<path d="M81.073 53.722C80.3448 54.0835 79.8039 54.4612 79.1085 54.7337C78.4085 55.0074 77.681 55.111 76.9594 55.299C76.8775 55.3205 76.8985 55.4363 76.9784 55.4409C78.2775 55.5143 80.3016 54.8915 81.1516 53.8568C81.1974 53.8018 81.1535 53.6821 81.073 53.722Z" fill="#3B1818" fill-opacity="0.8"/>
<path d="M83.3007 56.0198C82.2759 56.2221 81.2897 56.5092 80.2361 56.5541C79.1831 56.5981 78.2192 56.3728 77.1944 56.1776C77.163 56.1718 77.1407 56.215 77.1722 56.2321C78.9382 57.2379 81.5589 56.9483 83.3603 56.16C83.4441 56.1234 83.3813 56.0047 83.3007 56.0198Z" fill="#3B1818" fill-opacity="0.8"/>
<path d="M65.4708 53.722C66.199 54.0835 66.7399 54.4612 67.4353 54.7337C68.1347 55.0074 68.8622 55.111 69.5845 55.299C69.6657 55.3205 69.6447 55.4363 69.5655 55.4409C68.2663 55.5143 66.2422 54.8915 65.3916 53.8568C65.3464 53.8018 65.3903 53.6821 65.4708 53.722" fill="#3B1818" fill-opacity="0.8"/>
<path d="M63.2427 56.0198C64.2675 56.2221 65.2536 56.5091 66.3073 56.5541C67.3609 56.5981 68.3242 56.3728 69.349 56.1776C69.3811 56.1718 69.4027 56.215 69.3719 56.2321C67.6052 57.2379 64.9852 56.9483 63.1837 56.16C63.0999 56.1234 63.1628 56.0047 63.2427 56.0198Z" fill="#3B1818" fill-opacity="0.8"/>
<path d="M72.4233 59.1361C71.9767 60.1918 71.242 61.161 70.2591 61.9486C69.3221 62.6999 68.385 62.982 67.2639 63.3317C67.2397 63.3396 67.2436 63.3762 67.2698 63.3762C69.6141 63.411 71.872 61.3693 72.4659 59.1638C72.4816 59.1034 72.4449 59.0837 72.4233 59.1361" fill="#3B1818" fill-opacity="0.8"/>
<path d="M74.3137 59.1361C74.7597 60.1918 75.495 61.161 76.4773 61.9486C77.4144 62.6999 78.3521 62.982 79.4731 63.3317C79.4974 63.3396 79.4928 63.3762 79.4666 63.3762C77.123 63.411 74.8644 61.3693 74.2712 59.1638C74.2554 59.1034 74.2915 59.0837 74.3137 59.1361" fill="#3B1818" fill-opacity="0.8"/>
<path d="M89.4732 96.6895C89.1412 96.8644 89.1235 96.3733 89.2335 96.286C89.28 96.2428 89.4365 96.1118 89.4817 96.0661C89.5465 96.0014 89.6088 95.9331 89.6697 95.865C89.7823 95.7379 89.8883 95.6057 89.9898 95.4696C90.2302 95.1506 90.6218 94.507 90.7992 94.1499C90.8294 94.0886 90.737 94.055 90.7003 94.0996C90.407 94.4558 89.9931 95.1649 89.6978 95.5205C89.1818 96.1408 88.5309 96.3306 88.1511 96.4733C87.7143 96.6377 87.3725 96.728 87.3378 96.6109C87.2834 96.4342 87.6181 96.1441 87.952 95.9011C88.3161 95.6359 88.6946 95.4138 88.9768 95.1598C89.4909 94.6981 89.872 94.1141 90.2675 93.5345C90.2845 93.5102 90.2511 93.4808 90.2295 93.5004C89.7332 93.9484 89.3573 94.5004 88.8786 94.9843C88.4039 95.4642 87.1584 96.0341 86.8165 96.0346C86.6063 96.0354 86.5081 95.9062 86.7209 95.7231C87.1571 95.3471 87.8374 94.8769 88.3777 94.319C88.855 93.8271 89.227 93.5463 89.6664 93.0191C89.6998 92.9791 89.6533 92.9057 89.6179 92.9313C89.2329 93.2104 88.9932 93.5294 88.6206 93.8527C88.6357 93.8338 87.8747 94.2673 87.4563 94.463C87.0353 94.6607 86.59 94.9823 86.1447 94.8643C86.0098 94.829 85.9901 94.6909 86.1683 94.5339C86.4073 94.3228 86.8971 94.0827 86.9488 94.0432C87.601 93.5437 88.0548 93.0237 88.4156 92.4847C88.8197 91.8803 89.0934 91.2753 89.1058 91.0809C88.4392 91.3068 86.8578 91.944 86.4996 90.9919C87.1931 90.9407 87.8459 90.7031 88.3862 90.2531C88.546 90.1209 88.6868 89.9708 88.8223 89.8163C89.7044 90.4941 91.071 91.1359 92.3099 91.2053C91.8371 93.2183 91.3297 95.7118 89.4732 96.6895V96.6895ZM96.0909 85.0864C95.9292 87.0496 95.2344 90.6578 92.7454 90.8745C91.8129 90.9558 90.5982 90.3867 89.8085 89.9657C88.6632 89.3541 88.1255 88.6736 87.8453 87.3929C86.956 83.3329 88.4844 79.3024 89.7404 75.5115C89.7489 75.4872 89.7109 75.4708 89.6991 75.4939C89.519 75.8436 89.3547 76.2016 89.1929 76.5626C89.136 76.7209 89.0744 76.8775 88.9912 77.0223C88.1196 79.0758 87.5336 81.2748 87.3326 83.4828C87.1603 85.3609 86.996 88.237 88.5721 89.6121C88.5767 89.616 88.5813 89.6199 88.5859 89.6231C87.9553 90.2918 87.121 90.6898 86.1755 90.7803C86.0877 91.2282 86.6535 91.7069 86.9953 91.7887C87.5277 91.915 88.2775 91.7219 88.7791 91.4239C88.5185 91.7416 88.3325 92.1266 88.1039 92.4658C87.7621 92.9766 87.3306 93.416 86.8748 93.8304C86.628 94.0571 85.3635 94.5763 85.8854 95.0007C86.256 95.3025 87.4033 94.8076 87.9972 94.4139C87.8361 94.5633 87.2736 95.0951 86.7124 95.5141C86.2174 95.8847 86.4492 96.1643 86.7543 96.1937C87.0084 96.2185 87.3038 96.1454 87.5264 96.0379C87.3502 96.25 86.9108 96.5874 87.1086 96.8145C87.3266 97.0647 88.5689 96.5191 88.9867 96.3045C88.8773 96.5493 89.0777 97.1164 89.3586 96.9585C89.9054 96.6508 90.5006 96.1904 90.8942 95.698C91.2478 95.2572 91.5877 94.497 91.7966 94.0093C92.1718 93.1337 92.4199 92.2039 92.566 91.2073C93.1108 91.2014 93.6222 91.0769 94.0439 90.777C95.5841 89.6828 96.383 87.0496 96.0909 85.0864Z" fill="#3B1818" fill-opacity="0.8"/>
<path d="M89.4732 96.6895C89.1412 96.8644 89.1235 96.3733 89.2335 96.286C89.28 96.2428 89.4365 96.1118 89.4817 96.0661C89.5465 96.0014 89.6088 95.9331 89.6697 95.865C89.7823 95.7379 89.8883 95.6057 89.9898 95.4696C90.2302 95.1506 90.6218 94.507 90.7992 94.1499C90.8294 94.0886 90.737 94.055 90.7003 94.0996C90.407 94.4558 89.9931 95.1649 89.6978 95.5205C89.1818 96.1408 88.5309 96.3306 88.1511 96.4733C87.7143 96.6377 87.3725 96.728 87.3378 96.6109C87.2834 96.4342 87.6181 96.1441 87.952 95.9011C88.3161 95.6359 88.6946 95.4138 88.9768 95.1598C89.4909 94.6981 89.872 94.1141 90.2675 93.5345C90.2845 93.5102 90.2511 93.4808 90.2295 93.5004C89.7332 93.9484 89.3573 94.5004 88.8786 94.9843C88.4039 95.4642 87.1584 96.0341 86.8165 96.0346C86.6063 96.0354 86.5081 95.9062 86.7209 95.7231C87.1571 95.3471 87.8374 94.8769 88.3777 94.319C88.855 93.8271 89.227 93.5463 89.6664 93.0191C89.6998 92.9791 89.6533 92.9057 89.6179 92.9313C89.2329 93.2104 88.9932 93.5294 88.6206 93.8527C88.6357 93.8338 87.8747 94.2673 87.4563 94.463C87.0353 94.6607 86.59 94.9823 86.1447 94.8643C86.0098 94.829 85.9901 94.6909 86.1683 94.5339C86.4073 94.3228 86.8971 94.0827 86.9488 94.0432C87.601 93.5437 88.0548 93.0237 88.4156 92.4847C88.8197 91.8803 89.0934 91.2753 89.1058 91.0809C88.4392 91.3068 86.8578 91.944 86.4996 90.9919C87.1931 90.9407 87.8459 90.7031 88.3862 90.2531C88.546 90.1209 88.6868 89.9708 88.8223 89.8163C89.7044 90.4941 91.071 91.1359 92.3099 91.2053C91.8371 93.2183 91.3297 95.7118 89.4732 96.6895V96.6895ZM96.0909 85.0864C95.9292 87.0496 95.2344 90.6578 92.7454 90.8745C91.8129 90.9558 90.5982 90.3867 89.8085 89.9657C88.6632 89.3541 88.1255 88.6736 87.8453 87.3929C86.956 83.3329 88.4844 79.3024 89.7404 75.5115C89.7489 75.4872 89.7109 75.4708 89.6991 75.4939C89.519 75.8436 89.3547 76.2016 89.1929 76.5626C89.136 76.7209 89.0744 76.8775 88.9912 77.0223C88.1196 79.0758 87.5336 81.2748 87.3326 83.4828C87.1603 85.3609 86.996 88.237 88.5721 89.6121C88.5767 89.616 88.5813 89.6199 88.5859 89.6231C87.9553 90.2918 87.121 90.6898 86.1755 90.7803C86.0877 91.2282 86.6535 91.7069 86.9953 91.7887C87.5277 91.915 88.2775 91.7219 88.7791 91.4239C88.5185 91.7416 88.3325 92.1266 88.1039 92.4658C87.7621 92.9766 87.3306 93.416 86.8748 93.8304C86.628 94.0571 85.3635 94.5763 85.8854 95.0007C86.256 95.3025 87.4033 94.8076 87.9972 94.4139C87.8361 94.5633 87.2736 95.0951 86.7124 95.5141C86.2174 95.8847 86.4492 96.1643 86.7543 96.1937C87.0084 96.2185 87.3038 96.1454 87.5264 96.0379C87.3502 96.25 86.9108 96.5874 87.1086 96.8145C87.3266 97.0647 88.5689 96.5191 88.9867 96.3045C88.8773 96.5493 89.0777 97.1164 89.3586 96.9585C89.9054 96.6508 90.5006 96.1904 90.8942 95.698C91.2478 95.2572 91.5877 94.497 91.7966 94.0093C92.1718 93.1337 92.4199 92.2039 92.566 91.2073C93.1108 91.2014 93.6222 91.0769 94.0439 90.777C95.5841 89.6828 96.383 87.0496 96.0909 85.0864Z" fill="#3B1818" fill-opacity="0.8"/>
<path d="M53.4994 71.3961C54.4836 68.2529 56.3839 62.974 57.4978 59.5979C57.6071 59.5979 57.7865 59.5979 58.0616 59.5979C58.1755 59.6671 58.1696 59.67 58.3412 59.6764C59.1008 59.7058 60.2003 59.7191 60.3856 59.746C60.9225 60.4046 61.7064 62.0069 61.0928 67.1397C60.5833 71.4024 58.2606 75.7814 57.8618 76.9517C58.7459 79.0039 59.6168 82.7008 59.5376 85.3066C59.4963 86.6895 59.4917 87.275 58.9292 88.5558C58.313 89.9577 56.7493 90.5706 54.5419 91.0121C53.3265 90.9223 52.2702 90.1412 51.6396 88.8092C51.3103 88.1124 51.0202 87.3128 50.844 86.5194C50.8761 80.181 52.4667 74.6938 53.4994 71.3961Z" fill="#FBED81"/>
<path d="M58.1781 89.6042C58.1781 89.6042 57.0656 90.2852 56.2025 90.5806C55.3388 90.8765 54.5202 90.9858 54.5202 90.9858C54.5202 90.9858 54.94 94.1246 55.9576 95.4184C56.9739 96.713 57.6327 96.8721 57.7237 96.8498C57.8153 96.8263 57.8605 96.1912 57.8605 96.1912C57.8605 96.1912 58.1552 96.3948 58.8369 96.5769C59.5179 96.7582 59.6993 96.8263 59.7229 96.6672C59.7451 96.5089 59.2455 95.8957 59.2455 95.8957C59.2455 95.8957 60.0857 96.1912 60.3129 96.0773C60.5408 95.9633 60.1885 95.5665 60.1885 95.5665L58.6326 94.1696C58.6326 94.1696 59.9828 94.7971 60.3476 94.8958C60.7221 94.9981 61.1078 95.0322 61.0856 94.7825C61.0626 94.5331 60.2087 94.0903 59.8591 93.8056C58.4623 92.6706 58.076 91.3533 58.076 91.3533C58.076 91.3533 58.9731 91.6938 59.4727 91.6938C59.9724 91.6938 60.5407 91.3756 60.6082 91.1254C60.6769 90.8765 60.677 90.8765 60.677 90.8765C60.677 90.8765 59.5867 90.9441 59.1093 90.4673C58.6326 89.9905 58.1781 89.6042 58.1781 89.6042" fill="#FCD0B0"/>
<path d="M51.7143 89.0082C54.1522 89.5812 57.431 88.9486 59.4766 86.3024C59.5133 86.2554 59.5873 86.2848 59.5736 86.3444C59.3876 87.1892 57.905 88.4306 56.6641 88.9146C55.234 89.4732 53.1038 89.8687 51.7752 89.1701C51.6802 89.1203 51.6049 88.9821 51.7143 89.0082" fill="#EE232C" fill-opacity="0.8"/>
<path d="M51.0798 86.6314C54.1601 86.461 57.3478 85.355 59.5003 83.0736C59.5454 83.0252 59.6234 83.0866 59.59 83.1428C58.0577 85.744 53.8615 86.757 51.0798 86.9207C50.8938 86.932 50.8945 86.6416 51.0798 86.6314Z" fill="#EE232C" fill-opacity="0.8"/>
<path d="M56.7814 86.4556C56.9536 86.924 57.5331 86.9764 57.8612 86.6626C58.0426 86.4892 58.1041 86.2561 58.1696 86.0236C58.2475 85.7458 58.2803 85.4558 58.4708 85.224C58.755 84.8769 59.254 84.8244 59.5592 85.1682C59.5834 85.1959 59.5533 85.2353 59.5199 85.2189C59.0504 84.9797 58.6516 85.2933 58.5173 85.7453C58.4479 85.9758 58.425 86.2188 58.3294 86.4414C58.22 86.6953 58.0354 86.9273 57.7839 87.0517C57.2928 87.2934 56.7539 87.0012 56.748 86.4598C56.748 86.44 56.7755 86.438 56.7814 86.4556" fill="#EE232C" fill-opacity="0.8"/>
<path d="M54.6958 87.4433C54.868 87.9121 55.4469 87.9638 55.7749 87.6507C55.957 87.4765 56.0179 87.2443 56.0827 87.0117C56.1606 86.7327 56.194 86.4439 56.3852 86.2122C56.6694 85.865 57.1678 85.8129 57.4729 86.1564C57.4965 86.184 57.4664 86.2234 57.4343 86.207C56.9648 85.9673 56.5653 86.2815 56.4304 86.7327C56.3623 86.9639 56.3388 87.2069 56.2431 87.4294C56.1338 87.6834 55.9491 87.9155 55.6977 88.0398C55.2065 88.2815 54.6683 87.9886 54.6617 87.4479C54.6617 87.4282 54.6892 87.4262 54.6958 87.4433" fill="#EE232C" fill-opacity="0.8"/>
<path d="M58.7438 68.0339C58.7524 68.0158 58.7779 68.0262 58.7759 68.0444C58.719 68.5409 59.214 68.8466 59.6482 68.7143C59.8885 68.6411 60.0476 68.459 60.21 68.2815C60.4045 68.0674 60.5636 67.8231 60.8387 67.7014C60.8969 67.6753 60.9565 67.6589 61.0161 67.6472C61.007 67.7492 60.9939 67.8508 60.9814 67.9536C60.8603 68.0052 60.7444 68.0833 60.6455 68.1879C60.4811 68.3634 60.3508 68.5703 60.1648 68.7261C59.954 68.9044 59.6848 69.0287 59.4039 69.0266C58.8571 69.0228 58.5061 68.5207 58.7438 68.0339" fill="#EE232C" fill-opacity="0.8"/>
<path d="M56.3951 67.6503C56.3185 68.1442 56.8018 68.4695 57.2405 68.3537C57.4828 68.2894 57.6498 68.1153 57.8174 67.9436C58.0211 67.7375 58.19 67.4998 58.4696 67.3883C58.8848 67.2228 59.3471 67.4185 59.4486 67.8664C59.4558 67.9024 59.4106 67.9221 59.3903 67.892C59.095 67.4551 58.5934 67.5377 58.2574 67.8677C58.0859 68.036 57.9477 68.2378 57.7565 68.3864C57.5378 68.556 57.2647 68.6693 56.9838 68.6568C56.4377 68.6312 56.107 68.1153 56.3637 67.638C56.3728 67.6208 56.3977 67.6321 56.3951 67.6503" fill="#EE232C" fill-opacity="0.8"/>
<path d="M54.7651 67.5742C54.8411 67.5901 54.868 67.6216 54.9472 67.6116C55.1967 67.5801 55.3846 67.4297 55.5745 67.2824C55.8031 67.1048 56.0021 66.8925 56.2935 66.8194C56.7283 66.7107 57.1605 66.966 57.2005 67.4231C57.2038 67.4596 57.1559 67.473 57.1396 67.4407C56.9051 66.9685 56.3977 66.9831 56.0198 67.266C55.8273 67.4101 55.6466 67.5653 55.454 67.7132C54.9721 68.0817 54.6578 67.8781 54.6525 67.8776C54.6767 67.7853 54.739 67.6648 54.7651 67.5742" fill="#EE232C" fill-opacity="0.8"/>
<path d="M52.3364 87.8735C52.3993 88.3679 52.9526 88.5493 53.3422 88.3173C53.559 88.1892 53.6703 87.9756 53.7855 87.7648C53.9244 87.5108 54.0219 87.2355 54.2596 87.0525C54.6145 86.7785 55.1122 86.8401 55.3329 87.243C55.3499 87.275 55.3113 87.3064 55.2831 87.2829C54.8798 86.9442 54.4201 87.1612 54.1876 87.5709C54.0691 87.7799 53.9918 88.0117 53.8477 88.2068C53.6847 88.4302 53.4522 88.614 53.1792 88.679C52.6468 88.8046 52.1877 88.3987 52.3037 87.8702C52.3076 87.85 52.3344 87.8546 52.3364 87.8735" fill="#EE232C" fill-opacity="0.8"/>
<path d="M51.4274 88.0162C51.5663 87.7627 51.6632 87.4886 51.9009 87.3044C52.2558 87.0307 52.7535 87.0915 52.9735 87.4949C52.9912 87.5264 52.9532 87.5584 52.925 87.5349C52.521 87.1964 52.0613 87.4131 51.8288 87.8223C51.7097 88.0319 51.6331 88.2639 51.489 88.4588C51.4477 88.5158 51.3744 88.1144 51.4274 88.0162" fill="#EE232C" fill-opacity="0.8"/>
<path d="M59.0498 85.3936C59.186 85.5967 59.3935 85.6791 59.5985 85.6668C59.812 85.6522 59.7701 85.9436 59.5749 85.9175C59.3183 85.8834 59.0943 85.7034 59.0183 85.4053C59.0138 85.3864 59.0399 85.378 59.0498 85.3936Z" fill="#EE232C" fill-opacity="0.8"/>
<path d="M56.1089 63.678C57.8285 64.462 59.4256 64.8935 61.2316 65.2013C61.2323 65.268 61.2402 65.3361 61.2395 65.4023C59.4472 65.4343 57.5332 64.8306 56.0022 63.9689C56.0428 63.8921 56.0716 63.7854 56.1089 63.678" fill="#EE232C" fill-opacity="0.8"/>
<path d="M61.0829 66.8593C59.4288 67.3392 57.006 66.4953 55.4278 65.6991C55.4455 65.6126 55.4632 65.5182 55.5012 65.4355C57.2725 66.1835 59.1604 66.8069 61.0974 66.668C61.0928 66.7317 61.0875 66.7959 61.0829 66.8593" fill="#EE232C" fill-opacity="0.8"/>
<path d="M54.3848 68.6829C55.9708 69.8028 58.6464 70.1444 60.5867 69.8565C60.5697 69.9232 60.5513 69.9908 60.5343 70.058C59.647 70.3409 58.3524 70.2913 57.4134 70.1373C56.403 69.9724 54.8811 69.4656 54.3114 68.9136C54.3586 68.8545 54.3461 68.7872 54.3848 68.6829Z" fill="#EE232C" fill-opacity="0.8"/>
<path d="M53.9421 70.0215C55.5386 71.1484 58.2679 71.5032 60.2134 71.2055C60.1938 71.2694 60.1761 71.3344 60.1571 71.3978C59.2692 71.6951 57.953 71.6475 57.0015 71.4915C55.9911 71.3265 54.4313 70.8144 53.8609 70.2618C53.8956 70.1361 53.9028 70.1263 53.9421 70.0215" fill="#EE232C" fill-opacity="0.8"/>
<path d="M58.613 90.2531C59.1532 90.7031 59.8074 90.9407 60.4995 90.9919C60.1413 91.944 58.5606 91.3068 57.8946 91.0809C57.9064 91.2753 58.1795 91.8803 58.5835 92.4842C58.945 93.0237 59.3988 93.5437 60.0516 94.0432C60.1027 94.0827 60.5932 94.3228 60.8315 94.5339C61.0096 94.6909 60.99 94.829 60.8544 94.8643C60.4098 94.9823 59.9645 94.6607 59.5435 94.463C59.125 94.2673 58.3635 93.8338 58.3792 93.8527C58.0073 93.5294 57.7663 93.2104 57.3819 92.9313C57.3472 92.9057 57.3 92.9791 57.3328 93.0191C57.7722 93.5463 58.1441 93.8271 58.6215 94.319C59.1624 94.8769 59.8427 95.3471 60.2789 95.7231C60.491 95.9062 60.3928 96.0354 60.1839 96.0346C59.8414 96.0341 58.5959 95.4642 58.1212 94.9843C57.6425 94.5004 57.2673 93.9484 56.7709 93.5004C56.7493 93.4808 56.7159 93.5102 56.7323 93.5345C57.1285 94.1141 57.5096 94.6981 58.023 95.1598C58.3058 95.4138 58.6843 95.6359 59.0471 95.9011C59.3811 96.1441 59.7164 96.4342 59.6627 96.6109C59.6266 96.728 59.2855 96.6377 58.8487 96.4733C58.4689 96.3306 57.818 96.1408 57.302 95.5205C57.006 95.1649 56.5922 94.4558 56.2994 94.0996C56.2621 94.055 56.1704 94.0886 56.2012 94.1499C56.3774 94.507 56.7703 95.1506 57.0093 95.4696C57.1108 95.6057 57.2169 95.7379 57.3295 95.865C57.3911 95.9331 57.4539 96.0014 57.5181 96.0661C57.5633 96.1113 57.7198 96.2428 57.7656 96.286C57.8763 96.3733 57.8586 96.8644 57.5259 96.6895C55.6702 95.7118 55.1627 93.2183 54.6899 91.2053C55.9295 91.1359 57.2961 90.4941 58.1775 89.8163C58.3131 89.9708 58.4532 90.1209 58.613 90.2531V90.2531ZM61.5355 59.6515C61.4628 59.6625 61.3894 59.6713 61.3161 59.6809C61.3161 59.6823 61.3161 59.6835 61.3168 59.6856C61.6062 61.1027 61.4988 62.5505 61.2781 64.2484C61.0882 65.7049 60.8689 67.2397 60.5801 68.6967C60.0136 71.5603 59.0183 74.0049 57.8403 76.6373C57.8304 76.6117 57.816 76.5887 57.8069 76.5626C57.6458 76.2016 57.4808 75.8436 57.3007 75.4939C57.2889 75.4708 57.2509 75.4867 57.2594 75.5115C57.4113 75.9712 57.5679 76.4342 57.7231 76.9005C57.7198 76.9069 57.7171 76.913 57.7139 76.9194C57.706 76.9383 57.7231 76.9534 57.7401 76.9517C58.8611 80.3161 59.9318 83.843 59.1545 87.3929C58.8749 88.6736 58.336 89.3541 57.1907 89.9657C56.4016 90.3867 55.1862 90.9558 54.2538 90.8745C51.7647 90.6578 51.0713 87.0496 50.9095 85.0864C50.6162 87.0496 51.4157 89.6828 52.9559 90.777C53.3769 91.0769 53.889 91.2014 54.4332 91.2073C54.5792 92.2039 54.8274 93.1337 55.2026 94.0093C55.4128 94.497 55.752 95.2572 56.1056 95.698C56.4998 96.1904 57.0938 96.6508 57.6412 96.9585C57.9221 97.1164 58.1225 96.5493 58.0125 96.3045C58.4303 96.5191 59.6725 97.0647 59.8905 96.8145C60.0889 96.5874 59.6496 96.25 59.4734 96.0372C59.6967 96.1454 59.9914 96.2185 60.2448 96.1937C60.5506 96.1643 60.7824 95.8847 60.2867 95.5141C59.7262 95.0951 59.163 94.5633 59.0026 94.4139C59.5959 94.8076 60.7431 95.3025 61.1151 95.0007C61.6363 94.5763 60.3725 94.0571 60.1243 93.8304C59.6699 93.416 59.237 92.9766 58.8952 92.4658C58.6673 92.1266 58.4813 91.7416 58.2207 91.4239C58.7217 91.7219 59.4721 91.915 60.0038 91.7887C60.347 91.7069 60.9121 91.2282 60.8237 90.7803C59.8787 90.6898 59.0438 90.2918 58.4145 89.6231C58.4178 89.6198 58.4231 89.616 58.4277 89.6121C60.0038 88.237 59.8388 85.3609 59.6679 83.4828C59.4662 81.2748 58.8801 79.0758 58.0079 77.0223C57.9614 76.9396 57.9306 76.8501 57.8946 76.7624C59.8172 74.3957 60.4301 70.8426 60.9769 67.949C61.2814 66.3388 62.1752 61.8616 61.5446 59.6856C61.5407 59.6718 61.5381 59.6646 61.5355 59.6515" fill="#3B1818" fill-opacity="0.8"/>
<path d="M61.9906 41.1794C60.8008 39.7591 58.8802 42.6561 58.6497 43.5623C59.0838 43.1668 59.8257 42.4059 60.0104 42.3155C60.419 42.1165 60.8434 42.4694 60.639 42.9069C60.3365 43.5558 59.6358 44.0508 59.0851 44.4595C60.2429 44.4988 63.2688 42.7039 61.9906 41.1794" fill="#51AD37" fill-opacity="0.8"/>
<path d="M61.9906 50.0949C60.8008 51.5153 58.8802 48.619 58.6497 47.712C59.0838 48.1082 59.8257 48.8691 60.0104 48.9595C60.419 49.1585 60.8434 48.8049 60.639 48.3682C60.3365 47.7192 59.6358 47.2242 59.0851 46.8155C60.2429 46.7756 63.2688 48.5711 61.9906 50.0949" fill="#51AD37" fill-opacity="0.8"/>
<path d="M59.2206 45.5196C59.2206 45.5196 61.597 44.4791 61.6356 45.5196C61.673 46.5608 59.2206 45.5196 59.2206 45.5196Z" fill="#FAD10F"/>
<path d="M59.2206 41.0078C59.2206 41.0078 59.9422 38.5156 60.766 39.1527C61.5898 39.7899 59.2206 41.0078 59.2206 41.0078Z" fill="#FAD10F"/>
<path d="M59.2206 50.0439C59.2206 50.0439 59.9422 52.5369 60.766 51.8997C61.5898 51.2625 59.2206 50.0439 59.2206 50.0439Z" fill="#FAD10F"/>
<path d="M84.8388 41.1794C86.0287 39.7591 87.9499 42.6561 88.1804 43.5623C87.7463 43.1668 87.0044 42.4059 86.8197 42.3156C86.4104 42.1165 85.9867 42.4694 86.1911 42.9069C86.4929 43.5558 87.1942 44.0509 87.7456 44.4595C86.5872 44.4988 83.5613 42.7039 84.8388 41.1794" fill="#51AD37" fill-opacity="0.8"/>
<path d="M84.8388 50.0949C86.0287 51.5153 87.9499 48.619 88.1804 47.712C87.7463 48.1082 87.0044 48.8691 86.8197 48.9595C86.4104 49.1585 85.9867 48.8049 86.1911 48.3682C86.4929 47.7192 87.1942 47.2242 87.7456 46.8156C86.5872 46.7756 83.5613 48.5712 84.8388 50.0949" fill="#51AD37" fill-opacity="0.8"/>
<path d="M87.6102 45.5196C87.6102 45.5196 85.2332 44.4791 85.1952 45.5196C85.1565 46.5608 87.6102 45.5196 87.6102 45.5196Z" fill="#FAD10F"/>
<path d="M87.61 41.0079C87.61 41.0079 86.8884 38.5156 86.064 39.1527C85.2395 39.7899 87.61 41.0079 87.61 41.0079Z" fill="#FAD10F"/>
<path d="M69.377 29.9903C69.377 29.9903 66.8795 30.6923 67.5101 31.5213C68.1407 32.351 69.377 29.9903 69.377 29.9903Z" fill="#FAD10F"/>
<path d="M71.1287 30.2719C71.1287 30.2719 69.4497 32.2501 70.4365 32.5847C71.4227 32.92 71.1287 30.2719 71.1287 30.2719Z" fill="#FAD10F"/>
<path d="M75.5664 30.2719C75.5664 30.2719 77.2441 32.2501 76.2586 32.5847C75.2717 32.92 75.5664 30.2719 75.5664 30.2719Z" fill="#FAD10F"/>
<path d="M73.3277 30.4906C73.3277 30.4906 74.3885 32.8585 73.3479 32.905C72.3068 32.9521 73.3277 30.4906 73.3277 30.4906Z" fill="#FAD10F"/>
<path d="M77.5342 29.9903C77.5342 29.9903 80.0317 30.6923 79.4011 31.5213C78.7705 32.351 77.5342 29.9903 77.5342 29.9903Z" fill="#FAD10F"/>
<path d="M87.61 50.0439C87.61 50.0439 86.8884 52.5369 86.064 51.8997C85.2395 51.2625 87.61 50.0439 87.61 50.0439Z" fill="#FAD10F"/>
<path d="M79.7383 77.4054C79.9315 76.5232 80.3846 74.5674 79.0632 74.2699C77.7096 73.9655 76.8171 75.9379 76.5427 76.9215C76.0575 78.658 76.3417 81.811 76.8086 83.2411C77.6848 82.0854 79.3565 79.1497 79.7383 77.4054Z" fill="#51AD37" fill-opacity="0.8"/>
<path d="M63.4685 83.3938C62.6087 83.1176 60.7057 82.4791 60.2833 83.767C59.8512 85.0851 61.7299 86.1617 62.682 86.5286C64.3643 87.1767 67.5297 87.1951 68.9992 86.8665C67.9318 85.8842 65.1691 83.9399 63.4685 83.3938Z" fill="#51AD37" fill-opacity="0.8"/>
<path d="M61.7994 77.675C61.1491 77.0466 59.7249 75.6333 58.776 76.602C57.8062 77.5927 59.015 79.3894 59.7065 80.1393C60.9291 81.4646 63.7606 82.8809 65.2235 83.2352C64.7003 81.8818 63.0822 78.9174 61.7994 77.675" fill="#51AD37" fill-opacity="0.8"/>
<path d="M84.4865 80.9604C85.1813 80.3816 86.7379 79.1156 85.8761 78.0695C84.994 76.9992 83.0793 78.0099 82.2601 78.6182C80.8116 79.692 79.1019 82.3566 78.5937 83.7737C79.9951 83.3971 83.1153 82.1038 84.4865 80.9604Z" fill="#51AD37" fill-opacity="0.8"/>
<path d="M70.9459 79.5937C70.7881 78.7046 70.4607 76.7237 69.1248 76.9542C67.7582 77.1892 67.6862 79.3528 67.8073 80.3665C68.0221 82.1568 69.4889 84.9621 70.4673 86.106C70.8346 84.7034 71.2596 81.3526 70.9459 79.5937" fill="#51AD37" fill-opacity="0.8"/>
<path d="M66.759 76.2134C66.6012 75.3243 66.2738 73.3434 64.9373 73.5734C63.5713 73.8085 63.4986 75.9724 63.6204 76.9862C63.8352 78.7765 65.3013 81.5818 66.2797 82.7252C66.6477 81.3227 67.072 77.9718 66.759 76.2134" fill="#51AD37" fill-opacity="0.8"/>
<path d="M73.4926 106.977C72.9589 107.707 71.7521 109.311 72.8404 110.117C73.9543 110.945 75.5691 109.503 76.2187 108.715C77.3653 107.324 78.3835 104.326 78.5348 102.829C77.2657 103.531 74.5482 105.537 73.4926 106.977Z" fill="#51AD37" fill-opacity="0.8"/>
<path d="M83.9149 99.5472C84.6955 100.002 86.4177 101.034 87.1066 99.8667C87.8112 98.6724 86.2082 97.2171 85.3569 96.6541C83.8527 95.6594 80.7652 94.9621 79.2604 94.9679C80.0914 96.1564 82.3722 98.6488 83.9149 99.5472Z" fill="#51AD37" fill-opacity="0.8"/>
<path d="M84.3176 105.491C84.8172 106.243 85.9055 107.931 87.039 107.189C88.1994 106.43 87.4051 104.414 86.8904 103.534C85.9809 101.977 83.52 99.9858 82.1671 99.3252C82.3878 100.759 83.3314 104.002 84.3176 105.491" fill="#51AD37" fill-opacity="0.8"/>
<path d="M61.4923 101.194C60.6004 101.341 58.6163 101.643 58.8284 102.981C59.0465 104.351 61.2094 104.451 62.2244 104.343C64.0173 104.151 66.8416 102.721 67.998 101.758C66.6 101.372 63.2544 100.904 61.4923 101.194" fill="#51AD37" fill-opacity="0.8"/>
<path d="M68.4033 107.025C68.2979 107.922 68.0392 109.912 69.3843 110.078C70.7607 110.248 71.4555 108.198 71.631 107.192C71.9433 105.416 71.3501 102.307 70.7443 100.928C69.9861 102.166 68.6116 105.251 68.4033 107.025Z" fill="#51AD37" fill-opacity="0.8"/>
<path d="M62.4941 106.554C61.8171 107.152 60.2959 108.462 61.1865 109.483C62.0993 110.527 63.9839 109.463 64.7867 108.832C66.2038 107.717 67.8369 105.007 68.3051 103.575C66.9149 103.991 63.8326 105.372 62.4941 106.554" fill="#51AD37" fill-opacity="0.8"/>
<path d="M63.6669 96.1891C62.8137 95.8927 60.9258 95.2109 60.4739 96.4884C60.0116 97.7955 61.8641 98.9159 62.8084 99.3049C64.475 99.9917 67.6391 100.084 69.1151 99.7881C68.0706 98.7816 65.3537 96.7739 63.6669 96.1891Z" fill="#51AD37" fill-opacity="0.8"/>
<path d="M79.1596 105.853C79.1236 106.756 79.0175 108.761 80.371 108.823C81.7566 108.886 82.2916 106.788 82.3912 105.773C82.5654 103.978 81.7363 100.923 81.0265 99.5955C80.3658 100.888 79.2316 104.069 79.1596 105.853" fill="#51AD37" fill-opacity="0.8"/>
<path d="M78.5662 86.2881C78.4948 86.9933 77.8649 87.5075 77.159 87.4361C76.4524 87.3635 75.939 86.7334 76.011 86.0274C76.0824 85.3223 76.713 84.8081 77.4183 84.8795C78.1242 84.9516 78.6376 85.5821 78.5662 86.2881Z" fill="white"/>
<path d="M79.5046 82.6106C79.4012 83.6235 78.4956 84.3623 77.4819 84.2594C76.4675 84.1566 75.7289 83.2511 75.8324 82.2366C75.9352 81.2224 76.8408 80.4844 77.8545 80.5878C78.8688 80.6906 79.6075 81.5963 79.5046 82.6106Z" fill="#EE232C" fill-opacity="0.8"/>
<path d="M76.5776 89.2697C76.4748 90.2833 75.5691 91.0219 74.5548 90.919C73.5411 90.8162 72.8025 89.9107 72.9053 88.8965C73.0087 87.8827 73.9144 87.144 74.928 87.2473C75.9424 87.3501 76.6804 88.2559 76.5776 89.2697" fill="#EE232C" fill-opacity="0.8"/>
<path d="M81.0723 89.7267C80.9695 90.741 80.0638 91.4789 79.0495 91.3756C78.0352 91.2728 77.2972 90.367 77.4006 89.3533C77.5034 88.3399 78.4091 87.6011 79.4234 87.7039C80.4364 87.8073 81.1751 88.713 81.0723 89.7267Z" fill="#EE232C" fill-opacity="0.8"/>
<path d="M73.8305 86.7831C72.8162 86.6797 72.0775 85.7748 72.1803 84.7606C72.2832 83.746 73.1894 83.0081 74.2031 83.1109C75.2174 83.2137 75.9561 84.1193 75.852 85.1337C75.7492 86.1474 74.8435 86.8859 73.8305 86.7831Z" fill="#EE232C" fill-opacity="0.8"/>
<path d="M80.5097 87.4622C79.4954 87.3581 78.7568 86.4531 78.8596 85.4394C78.963 84.4251 79.8686 83.6864 80.8823 83.7893C81.8967 83.8934 82.6353 84.7984 82.5325 85.8121C82.4284 86.8263 81.5234 87.5651 80.5097 87.4622" fill="#EE232C" fill-opacity="0.8"/>
<path d="M67.5331 89.6231C67.8343 90.2662 67.5573 91.0306 66.9149 91.3316C66.2732 91.6321 65.5084 91.3551 65.2078 90.7136C64.9066 90.0705 65.1829 89.3057 65.826 89.0052C66.4677 88.7038 67.2325 88.9814 67.5331 89.6231Z" fill="white"/>
<path d="M66.4499 85.9863C66.8821 86.9097 66.484 88.0083 65.5613 88.4398C64.638 88.8722 63.5399 88.4746 63.1077 87.5512C62.6748 86.6281 63.073 85.53 63.9963 85.0969C64.9189 84.6653 66.0177 85.0636 66.4499 85.9863Z" fill="#EE232C" fill-opacity="0.8"/>
<path d="M67.3582 93.2037C67.7904 94.1264 67.3929 95.2253 66.469 95.6576C65.5463 96.0896 64.4475 95.6921 64.0153 94.7689C63.5831 93.8463 63.9813 92.7474 64.9046 92.3151C65.8272 91.8831 66.926 92.2806 67.3582 93.2037Z" fill="#EE232C" fill-opacity="0.8"/>
<path d="M71.4495 91.2878C71.8816 92.211 71.4842 93.3091 70.5609 93.7422C69.6375 94.1742 68.5387 93.7762 68.1065 92.8528C67.6743 91.9302 68.0731 90.8313 68.9958 90.3992C69.9185 89.9669 71.0173 90.3645 71.4495 91.2878" fill="#EE232C" fill-opacity="0.8"/>
<path d="M63.7233 92.4809C62.8006 92.9132 61.7018 92.5149 61.2696 91.5915C60.8374 90.6688 61.2349 89.5702 62.1582 89.1379C63.0815 88.7059 64.1797 89.1039 64.6119 90.0266C65.0447 90.9499 64.6466 92.0485 63.7233 92.4809" fill="#EE232C" fill-opacity="0.8"/>
<path d="M69.8032 89.6331C68.8806 90.0651 67.7818 89.6677 67.3496 88.745C66.9174 87.8219 67.3149 86.7229 68.2388 86.2907C69.1615 85.8578 70.2596 86.2566 70.6925 87.1793C71.1247 88.1019 70.7265 89.2008 69.8032 89.6331Z" fill="#EE232C" fill-opacity="0.8"/>
<path d="M77.2658 97.2619C77.5664 97.9042 77.2894 98.6682 76.647 98.9696C76.0046 99.2702 75.2404 98.9931 74.9392 98.3513C74.6386 97.7083 74.9156 96.9434 75.5574 96.6429C76.2004 96.3424 76.9652 96.6193 77.2658 97.2619" fill="white"/>
<path d="M76.1814 93.6243C76.6143 94.5475 76.2161 95.6463 75.2935 96.0786C74.3701 96.5101 73.2713 96.1126 72.8391 95.1892C72.407 94.2661 72.8051 93.1677 73.7278 92.7357C74.6511 92.3034 75.7492 92.7016 76.1814 93.6243Z" fill="#EE232C" fill-opacity="0.8"/>
<path d="M77.0903 100.842C77.5225 101.764 77.1244 102.863 76.2017 103.295C75.2784 103.728 74.1803 103.33 73.7481 102.407C73.3152 101.484 73.7134 100.385 74.636 99.9531C75.5593 99.5211 76.6582 99.9183 77.0903 100.842" fill="#EE232C" fill-opacity="0.8"/>
<path d="M81.1816 98.9264C81.6138 99.8491 81.2164 100.947 80.293 101.38C79.3704 101.812 78.2716 101.414 77.8394 100.491C77.4065 99.5681 77.8047 98.4693 78.728 98.0373C79.6507 97.6049 80.7495 98.0024 81.1816 98.9264Z" fill="#EE232C" fill-opacity="0.8"/>
<path d="M73.4552 100.119C72.5319 100.551 71.4331 100.153 71.0015 99.2295C70.5693 98.3069 70.9675 97.2082 71.8901 96.7759C72.8134 96.3436 73.9122 96.7419 74.3444 97.6645C74.776 98.588 74.3778 99.6866 73.4552 100.119" fill="#EE232C" fill-opacity="0.8"/>
<path d="M79.5355 97.2716C78.6128 97.7032 77.5147 97.3057 77.0818 96.383C76.6496 95.4596 77.0478 94.361 77.9704 93.9287C78.8937 93.4972 79.9926 93.8947 80.4247 94.8173C80.8569 95.7407 80.4588 96.8394 79.5355 97.2716" fill="#EE232C" fill-opacity="0.8"/>
</g>
<defs>
<filter id="filter0_d_2_148" x="0.84375" y="18.8286" width="145.312" height="188.225" filterUnits="userSpaceOnUse" color-interpolation-filters="sRGB">
<feFlood flood-opacity="0" result="BackgroundImageFix"/>
<feColorMatrix in="SourceAlpha" type="matrix" values="0 0 0 0 0 0 0 0 0 0 0 0 0 0 0 0 0 0 127 0" result="hardAlpha"/>
<feOffset dy="40"/>
<feGaussianBlur stdDeviation="25"/>
<feComposite in2="hardAlpha" operator="out"/>
<feColorMatrix type="matrix" values="0 0 0 0 1 0 0 0 0 1 0 0 0 0 1 0 0 0 0.25 0"/>
<feBlend mode="normal" in2="BackgroundImageFix" result="effect1_dropShadow_2_148"/>
<feBlend mode="normal" in="SourceGraphic" in2="effect1_dropShadow_2_148" result="shape"/>
</filter>
<linearGradient id="paint0_linear_2_148" x1="73.5" y1="0.508316" x2="73.5" y2="145.508" gradientUnits="userSpaceOnUse">
<stop stop-color="#613FE9" stop-opacity="0.81"/>
<stop offset="1" stop-color="#E91212" stop-opacity="0.81"/>
</linearGradient>
</defs>
</svg>
