<svg width="229" height="101" viewBox="0 0 229 101" fill="none" xmlns="http://www.w3.org/2000/svg">
<path d="M42.198 66.8051C41.8566 66.8051 41.302 66.4851 40.534 65.8451C39.766 65.2478 39.2753 64.5438 39.062 63.7331C38.7633 62.6665 38.5713 61.2585 38.486 59.5091C38.4006 57.7598 38.358 55.8611 38.358 53.8131C38.358 51.6371 38.3793 49.4185 38.422 47.1571C38.4646 44.8531 38.486 42.7411 38.486 40.8211C38.486 39.8825 38.486 39.0291 38.486 38.2611C38.486 37.4505 38.4433 36.7465 38.358 36.1491C38.2726 36.0638 38.0166 35.9998 37.59 35.9571C37.206 35.8718 36.822 35.8078 36.438 35.7651C36.0966 35.6798 35.926 35.6371 35.926 35.6371C35.926 35.5518 36.246 35.3598 36.886 35.0611C37.5686 34.7198 38.5286 34.5491 39.766 34.5491C41.0033 34.5491 41.814 34.7838 42.198 35.2531C42.582 35.7225 42.774 36.1278 42.774 36.4691C42.774 36.5971 42.774 36.7251 42.774 36.8531C42.774 36.9811 42.7527 37.1091 42.71 37.2371C42.3686 38.9011 42.1126 40.4158 41.942 41.7811C41.7713 43.1038 41.6433 44.4691 41.558 45.8771C41.4726 47.2425 41.4086 48.8425 41.366 50.6771C41.4086 50.5491 41.6006 49.8878 41.942 48.6931C42.326 47.4558 42.9447 45.5358 43.798 42.9331C44.4806 40.7571 45.0353 39.3491 45.462 38.7091C45.8886 38.0265 46.2513 37.6638 46.55 37.6211C46.6353 37.6638 46.87 37.7491 47.254 37.8771C47.638 38.0051 48.022 38.2185 48.406 38.5171C48.79 38.7731 48.982 39.1145 48.982 39.5411V39.6691C48.6833 41.2478 48.406 43.0398 48.15 45.0451C47.9367 47.0505 47.83 48.9918 47.83 50.8691C47.83 52.0638 47.8727 53.1731 47.958 54.1971C48.086 55.2211 48.2993 56.0531 48.598 56.6931C48.598 56.5225 48.726 55.9678 48.982 55.0291C49.2806 54.0905 49.622 53.0238 50.006 51.8291C50.39 50.5918 50.7527 49.4185 51.094 48.3091C51.4353 47.1998 51.6913 46.3678 51.862 45.8131C52.2033 44.7891 52.502 44.1065 52.758 43.7651C53.0567 43.4238 53.462 43.2531 53.974 43.2531C54.6993 43.2531 55.2113 43.7011 55.51 44.5971C55.8513 45.4505 56.0647 46.5171 56.15 47.7971C56.2353 49.0771 56.2993 50.3571 56.342 51.6371C56.3846 52.9171 56.47 54.0051 56.598 54.9011C56.7687 55.7545 57.0887 56.1811 57.558 56.1811C58.1127 56.1811 58.6887 55.7758 59.286 54.9651C59.8833 54.1118 60.4593 53.1305 61.014 52.0211C61.6113 50.9118 62.1447 49.9518 62.614 49.1411C63.0833 48.2878 63.446 47.8611 63.702 47.8611C63.83 47.8611 63.894 47.9678 63.894 48.1811C63.894 48.3518 63.83 48.6291 63.702 49.0131C63.1047 50.4638 62.4647 51.9145 61.782 53.3651C61.0993 54.8158 60.3953 56.0318 59.67 57.0131C58.9447 57.9945 58.1767 58.4851 57.366 58.4851C56.342 58.4851 55.5313 58.1865 54.934 57.5891C54.5073 57.2051 54.166 56.5011 53.91 55.4771C53.654 54.4105 53.4407 53.3011 53.27 52.1491C53.0993 50.9971 52.9287 50.0158 52.758 49.2051C52.63 48.3518 52.4806 47.9251 52.31 47.9251C52.182 47.9251 51.99 48.3091 51.734 49.0771C51.5207 49.8025 51.286 50.7198 51.03 51.8291C50.774 52.9385 50.518 54.0691 50.262 55.2211C50.0487 56.3305 49.8567 57.3118 49.686 58.1651C49.558 59.0185 49.494 59.5518 49.494 59.7651C49.494 60.2771 49.2593 60.5758 48.79 60.6611C48.3633 60.7465 47.8087 60.7891 47.126 60.7891C46.8273 60.7891 46.5286 60.3198 46.23 59.3811C45.9313 58.3998 45.654 57.1625 45.398 55.6691C45.1846 54.1331 45.014 52.5118 44.886 50.8051C44.758 49.0985 44.694 47.5198 44.694 46.0691C44.694 45.5998 44.694 45.1731 44.694 44.7891C44.694 44.3625 44.7153 43.9785 44.758 43.6371C44.0753 45.5998 43.3713 47.9891 42.646 50.8051C41.9207 53.5785 41.558 56.5865 41.558 59.8291C41.558 61.1518 41.622 62.3891 41.75 63.5411C41.878 64.6931 42.0913 65.5891 42.39 66.2291C42.4326 66.3145 42.454 66.4211 42.454 66.5491C42.454 66.7198 42.3686 66.8051 42.198 66.8051ZM76.508 59.4451C76.0387 59.4451 75.5267 59.2745 74.972 58.9331C74.4173 58.5491 74.0333 58.1438 73.82 57.7171C73.82 56.7358 73.948 55.3918 74.204 53.6851C74.46 51.9785 74.7373 50.2291 75.036 48.4371C75.3773 46.6025 75.676 45.0451 75.932 43.7651C75.164 44.9598 74.2893 46.2611 73.308 47.6691C72.3266 49.0771 71.324 50.3998 70.3 51.6371C69.276 52.8318 68.2307 53.8345 67.164 54.6451C66.14 55.4131 65.18 55.7971 64.284 55.7971C63.388 55.7971 62.684 55.4985 62.172 54.9011C61.66 54.2611 61.404 53.5358 61.404 52.7251C61.404 52.5118 61.4466 52.2345 61.532 51.8931C61.916 49.9305 62.6626 48.0958 63.772 46.3891C64.924 44.6398 66.2253 43.1038 67.676 41.7811C69.1693 40.4585 70.6413 39.4131 72.092 38.6451C73.5427 37.8771 74.78 37.4931 75.804 37.4931C76.572 37.4931 77.2973 37.6638 77.98 38.0051C78.7053 38.3038 79.388 38.8158 80.028 39.5411C80.156 39.6691 80.22 39.8185 80.22 39.9891C80.22 40.2025 80.092 40.4158 79.836 40.6291C79.5373 41.6531 79.2173 42.8905 78.876 44.3411C78.5773 45.7491 78.2787 47.2211 77.98 48.7571C77.724 50.2505 77.5106 51.6371 77.34 52.9171C77.1693 54.1971 77.084 55.1785 77.084 55.8611C77.084 56.3305 77.148 56.5651 77.276 56.5651C77.6173 56.5651 78.044 56.2025 78.556 55.4771C79.1107 54.7518 79.644 53.9198 80.156 52.9811C80.668 52.0425 81.116 51.2105 81.5 50.4851C81.9267 49.7598 82.1827 49.3971 82.268 49.3971C82.396 49.3971 82.46 49.5678 82.46 49.9091C82.46 50.6345 82.2253 51.5305 81.756 52.5971C81.2867 53.6638 80.7107 54.7305 80.028 55.7971C79.388 56.8211 78.7267 57.6958 78.044 58.4211C77.404 59.1038 76.892 59.4451 76.508 59.4451ZM64.796 53.4291C65.3933 53.4291 66.14 53.0878 67.036 52.4051C67.9746 51.7225 68.9346 50.8478 69.916 49.7811C70.94 48.7145 71.9213 47.5838 72.86 46.3891C73.8413 45.1945 74.6733 44.0638 75.356 42.9971C76.0813 41.8878 76.5933 40.9918 76.892 40.3091C76.0387 40.3091 75.0573 40.6291 73.948 41.2691C72.8387 41.8665 71.708 42.6558 70.556 43.6371C69.404 44.5758 68.3373 45.6211 67.356 46.7731C66.3746 47.8825 65.5853 48.9705 64.988 50.0371C64.3906 51.1038 64.092 52.0211 64.092 52.7891C64.092 53.2158 64.3266 53.4291 64.796 53.4291ZM89.032 62.9651C87.5386 62.9651 86.3226 62.4958 85.384 61.5571C84.4453 60.5758 83.72 59.3171 83.208 57.7811C82.7386 56.2451 82.4186 54.6025 82.248 52.8531C82.0773 51.0611 81.992 49.3758 81.992 47.7971C81.992 46.8585 82.0133 46.0051 82.056 45.2371C82.0986 44.4265 82.1413 43.7438 82.184 43.1891C82.2693 41.5678 82.4186 39.7971 82.632 37.8771C82.8453 35.9145 83.1013 33.9091 83.4 31.8611C81.1813 32.2025 79.1546 32.4798 77.32 32.6931C75.4426 32.9065 73.8853 33.0131 72.648 33.0131C72.4773 33.0131 72.2213 32.7998 71.88 32.3731C71.5386 31.9465 71.2826 31.4985 71.112 31.0291C70.8986 30.5598 70.8773 30.3465 71.048 30.3891C71.4746 30.4318 71.88 30.4745 72.264 30.5171C72.648 30.5171 73.0533 30.5171 73.48 30.5171C74.76 30.5171 76.1893 30.4318 77.768 30.2611C79.304 30.0905 81.288 29.8771 83.72 29.6211C84.0613 27.4878 84.424 25.3758 84.808 23.2851C85.2346 21.1945 85.6613 19.2105 86.088 17.3331C86.3013 16.4798 86.4933 15.7971 86.664 15.2851C86.8773 14.7731 87.2613 14.5598 87.816 14.6451C88.328 14.7305 88.8613 14.9225 89.416 15.2211C89.9706 15.5198 90.3546 15.8611 90.568 16.2451C91.4213 17.0558 92.04 18.0798 92.424 19.3171C92.808 20.5118 93 21.8558 93 23.3491C93 24.9278 92.808 26.6558 92.424 28.5331C94.7706 28.1918 97.1813 27.7865 99.656 27.3171C102.173 26.8051 104.605 26.2931 106.952 25.7811C109.341 25.2265 111.496 24.7358 113.416 24.3091C113.715 24.2238 113.757 24.2665 113.544 24.4371C113.331 24.5651 113.032 24.7145 112.648 24.8851C112.264 25.0558 111.944 25.1838 111.688 25.2691C109 26.2078 105.928 27.1251 102.472 28.0211C99.016 28.9171 95.5386 29.7065 92.04 30.3891C91.3573 33.2478 90.3973 36.2131 89.16 39.2851C87.9227 42.3145 86.6213 45.2371 85.256 48.0531C85.256 48.4798 85.2346 48.9065 85.192 49.3331C85.192 49.7171 85.192 50.1225 85.192 50.5491C85.192 52.6398 85.2986 54.5171 85.512 56.1811C85.768 57.8025 86.1733 59.1251 86.728 60.1491C87.112 60.8745 87.5387 61.3865 88.008 61.6851C88.52 61.9411 89.0107 62.0691 89.48 62.0691C89.9493 62.0691 90.3973 61.9838 90.824 61.8131C91.2507 61.6425 91.5707 61.5145 91.784 61.4291C92.2533 61.2158 92.5733 61.1305 92.744 61.1731C92.9147 61.2158 92.8933 61.3438 92.68 61.5571C92.552 61.7278 92.168 62.0051 91.528 62.3891C90.888 62.7731 90.056 62.9651 89.032 62.9651ZM87.816 29.1731L88.712 29.0451L90.952 28.7891C91.1653 27.8078 91.3146 26.8691 91.4 25.9731C91.528 25.0771 91.592 24.2238 91.592 23.4131C91.592 21.1945 91.1867 19.4238 90.376 18.1011C89.9067 19.8078 89.4587 21.5998 89.032 23.4771C88.6053 25.3545 88.2 27.2531 87.816 29.1731ZM85.448 44.7251C86.472 42.3785 87.432 40.0105 88.328 37.6211C89.224 35.2318 89.9493 32.9278 90.504 30.7091C89.9493 30.7945 89.416 30.8798 88.904 30.9651C88.392 31.0505 87.88 31.1358 87.368 31.2211C86.9413 33.5251 86.5573 35.8291 86.216 38.1331C85.9173 40.3945 85.6613 42.5918 85.448 44.7251ZM105.565 58.6131C103.987 58.6131 102.92 57.7385 102.365 55.9891C101.811 54.1971 101.533 51.9998 101.533 49.3971C101.533 47.9891 101.576 46.6238 101.661 45.3011C101.747 43.9358 101.811 42.8051 101.853 41.9091C101.171 41.8238 100.509 41.6958 99.8695 41.5251C99.2721 41.3118 98.8028 41.0985 98.4615 40.8851C98.4188 41.1838 98.2482 41.8025 97.9495 42.7411C97.6508 43.6371 97.2881 44.6825 96.8615 45.8771C96.4775 47.0718 96.0508 48.2451 95.5815 49.3971C95.1121 50.5491 94.6641 51.5091 94.2375 52.2771C93.8108 53.0025 93.4268 53.3651 93.0855 53.3651C92.9148 53.3651 92.8295 53.2371 92.8295 52.9811C92.8295 52.6398 92.9788 52.1705 93.2775 51.5731C94.1308 49.8238 94.8988 48.0318 95.5815 46.1971C96.2641 44.3625 96.8828 42.4638 97.4375 40.5011C97.0108 40.3305 96.6908 40.0318 96.4775 39.6051C96.3068 39.1358 96.2215 38.6238 96.2215 38.0691C96.2215 36.5331 96.4348 35.2745 96.8615 34.2931C97.3308 33.3118 97.8428 32.5865 98.3975 32.1171C98.9521 31.6051 99.3788 31.3491 99.6775 31.3491C100.189 31.3491 100.445 31.7758 100.445 32.6291C100.445 33.0558 100.339 33.7171 100.125 34.6131C99.9121 35.4665 99.6561 36.3625 99.3575 37.3011C99.0588 38.1971 98.8028 38.9225 98.5895 39.4771C98.5895 39.4771 98.7175 39.5625 98.9735 39.7331C99.2295 39.9038 99.5068 39.9891 99.8055 39.9891C100.232 39.9891 100.637 39.7331 101.021 39.2211C101.448 38.6665 101.939 38.1331 102.493 37.6211C103.091 37.0665 103.837 36.7891 104.733 36.7891C105.203 36.7891 105.608 36.8531 105.949 36.9811C106.291 37.0665 106.461 37.2371 106.461 37.4931V37.6851C106.035 38.7518 105.715 40.1598 105.501 41.9091C105.288 43.6158 105.181 45.3438 105.181 47.0931C105.181 48.6291 105.267 50.0798 105.437 51.4451C105.608 52.7678 105.864 53.8345 106.205 54.6451C106.589 55.4558 107.037 55.8611 107.549 55.8611C108.061 55.8611 108.552 55.5838 109.021 55.0291C109.491 54.4745 109.896 53.8771 110.237 53.2371C110.621 52.5971 110.877 52.1278 111.005 51.8291C111.901 50.1651 112.456 49.0985 112.669 48.6291C112.883 48.1171 113.16 47.8611 113.501 47.8611C113.629 47.8611 113.693 47.9465 113.693 48.1171C113.693 48.2025 113.651 48.4158 113.565 48.7571C113.053 50.1651 112.413 51.6371 111.645 53.1731C110.92 54.6665 110.045 55.9465 109.021 57.0131C107.997 58.0798 106.845 58.6131 105.565 58.6131ZM117.677 28.8531C117.293 28.8531 116.824 28.6825 116.269 28.3411C115.971 28.1705 115.821 27.8931 115.821 27.5091C115.821 27.1251 116.141 26.6345 116.781 26.0371C117.464 25.3971 118.339 25.0771 119.405 25.0771C120.003 25.0771 120.301 25.2051 120.301 25.4611C120.301 25.6318 120.195 25.7811 119.981 25.9091C119.597 26.2505 119.299 26.6558 119.085 27.1251C118.915 27.5945 118.744 27.9998 118.573 28.3411C118.403 28.6825 118.104 28.8531 117.677 28.8531ZM125.165 28.8531C124.781 28.8531 124.312 28.6825 123.757 28.3411C123.459 28.1705 123.309 27.8931 123.309 27.5091C123.309 27.1251 123.629 26.6345 124.269 26.0371C124.952 25.3971 125.827 25.0771 126.893 25.0771C127.491 25.0771 127.789 25.2051 127.789 25.4611C127.789 25.6318 127.683 25.7811 127.469 25.9091C127.085 26.2505 126.787 26.6558 126.573 27.1251C126.403 27.5945 126.232 27.9998 126.061 28.3411C125.891 28.6825 125.592 28.8531 125.165 28.8531ZM118.317 60.9811C116.867 60.9811 115.736 60.5118 114.925 59.5731C114.157 58.6345 113.624 57.4398 113.325 55.9891C113.069 54.4958 112.941 53.0025 112.941 51.5091C112.941 50.4851 112.984 49.5251 113.069 48.6291C113.155 47.6905 113.24 46.8798 113.325 46.1971C113.539 44.4478 113.816 42.7625 114.157 41.1411C114.499 39.5198 114.819 38.1331 115.117 36.9811C115.459 35.8291 115.672 35.0825 115.757 34.7411C115.928 34.1438 116.248 33.8451 116.717 33.8451C117.187 33.8451 117.72 34.1651 118.317 34.8051C118.915 35.4025 119.341 35.8931 119.597 36.2771C120.579 36.5758 121.539 36.9385 122.477 37.3651C123.416 37.7491 124.184 38.1758 124.781 38.6451C125.421 39.1145 125.741 39.6265 125.741 40.1811C125.741 41.2478 125.293 42.3145 124.397 43.3811C123.501 44.4478 122.371 45.4291 121.005 46.3251C119.64 47.2211 118.253 47.9891 116.845 48.6291C116.717 49.6531 116.653 50.6771 116.653 51.7011C116.653 53.4078 116.867 54.9011 117.293 56.1811C117.72 57.4611 118.445 58.1011 119.469 58.1011C120.365 58.1011 121.219 57.7811 122.029 57.1411C122.883 56.5011 123.672 55.6905 124.397 54.7091C125.123 53.7278 125.763 52.7465 126.317 51.7651C126.915 50.7411 127.363 49.8878 127.661 49.2051C127.747 48.9491 127.939 48.8211 128.237 48.8211C128.408 48.8211 128.493 49.0131 128.493 49.3971C128.493 49.7385 128.237 50.4638 127.725 51.5731C127.213 52.5971 126.68 53.5785 126.125 54.5171C125.613 55.4131 125.101 56.2025 124.589 56.8851C123.864 57.8238 122.968 58.7411 121.901 59.6371C120.877 60.5331 119.683 60.9811 118.317 60.9811ZM117.037 46.8371C118.531 46.0265 119.853 45.0665 121.005 43.9571C122.2 42.8051 122.797 41.5678 122.797 40.2451C122.797 39.7758 122.435 39.3065 121.709 38.8371C121.027 38.3251 120.216 37.8985 119.277 37.5571C118.765 38.9225 118.317 40.3731 117.933 41.9091C117.592 43.4451 117.293 45.0878 117.037 46.8371ZM131.007 58.9331C130.367 58.9331 129.642 58.8478 128.831 58.6771C128.063 58.4638 127.381 58.2078 126.783 57.9091C126.229 57.5678 125.951 57.2478 125.951 56.9491C125.951 56.2665 126.591 55.9251 127.871 55.9251C128.597 55.9251 129.45 55.7758 130.431 55.4771C131.413 55.1785 132.309 54.8585 133.119 54.5171C133.973 54.1331 134.527 53.8558 134.783 53.6851C134.613 53.4291 134.207 53.0451 133.567 52.5331C132.927 51.9785 132.223 51.3171 131.455 50.5491C130.687 49.7811 130.005 48.9278 129.407 47.9891C128.853 47.0078 128.575 45.9411 128.575 44.7891C128.575 43.5945 128.895 42.4851 129.535 41.4611C130.175 40.3945 130.965 39.4345 131.903 38.5811C132.885 37.6851 133.866 36.9171 134.847 36.2771C135.871 35.5945 136.746 35.0398 137.471 34.6131C137.77 34.4425 138.09 34.3571 138.431 34.3571C139.114 34.3571 139.754 34.5918 140.351 35.0611C140.991 35.5305 141.311 35.9785 141.311 36.4051C141.311 36.4478 141.269 36.5545 141.183 36.7251C140.842 37.1091 140.458 37.7065 140.031 38.5171C139.647 39.3278 139.306 40.1811 139.007 41.0771C138.709 41.9305 138.559 42.7198 138.559 43.4451C138.559 44.2558 138.389 44.6611 138.047 44.6611C137.877 44.6611 137.749 44.4905 137.663 44.1491C137.578 43.8078 137.535 43.4878 137.535 43.1891C137.535 42.3358 137.663 41.4185 137.919 40.4371C138.218 39.4558 138.41 38.7518 138.495 38.3251C137.983 38.3251 137.279 38.6665 136.383 39.3491C135.53 39.9891 134.655 40.7998 133.759 41.7811C132.863 42.7198 132.095 43.6798 131.455 44.6611C130.858 45.5998 130.559 46.3678 130.559 46.9651C130.559 47.7758 130.837 48.5225 131.391 49.2051C131.946 49.8451 132.629 50.4425 133.439 50.9971C134.293 51.5518 135.082 52.1491 135.807 52.7891C136.234 52.6185 136.895 52.3198 137.791 51.8931C138.687 51.4238 139.626 50.9545 140.607 50.4851C141.631 49.9731 142.527 49.5465 143.295 49.2051C144.106 48.8638 144.639 48.6931 144.895 48.6931C144.981 48.6931 145.023 48.7145 145.023 48.7571C145.023 49.0558 144.703 49.4398 144.063 49.9091C143.423 50.3785 142.634 50.8691 141.695 51.3811C140.757 51.8931 139.818 52.3838 138.879 52.8531C137.983 53.3225 137.279 53.6851 136.767 53.9411C136.895 54.3251 136.959 54.7091 136.959 55.0931C136.959 55.9891 136.639 56.7145 135.999 57.2691C135.402 57.8238 134.634 58.2505 133.695 58.5491C132.799 58.8051 131.903 58.9331 131.007 58.9331ZM148.263 64.6931C147.538 64.6931 146.941 64.2451 146.471 63.3491C146.045 62.4531 145.725 61.3225 145.511 59.9571C145.298 58.5491 145.149 57.0558 145.063 55.4771C144.978 53.8558 144.935 52.3411 144.935 50.9331C144.935 48.0745 145.042 45.1305 145.255 42.1011C145.511 39.0718 145.831 36.1491 146.215 33.3331C146.599 30.4745 147.005 27.8718 147.431 25.5251C147.858 23.1785 148.242 21.2158 148.583 19.6371C148.967 18.0158 149.266 16.9491 149.479 16.4371C149.778 15.7118 150.013 15.0931 150.183 14.5811C150.397 14.0691 150.717 13.8131 151.143 13.8131C151.826 13.8131 152.487 14.0905 153.127 14.6451C153.81 15.1998 154.151 15.7118 154.151 16.1811V16.3091C154.407 15.9678 154.77 15.7971 155.239 15.7971C155.922 15.7971 156.455 16.1385 156.839 16.8211C157.266 17.5038 157.565 18.2931 157.735 19.1891C157.949 20.0425 158.055 20.7465 158.055 21.3011C158.055 22.9651 157.714 24.8211 157.031 26.8691C156.349 28.8745 155.474 30.9225 154.407 33.0131C153.341 35.0611 152.21 37.0451 151.015 38.9651C149.821 40.8425 148.711 42.5065 147.687 43.9571C147.517 45.6638 147.367 47.3918 147.239 49.1411C147.111 50.8905 147.047 52.6398 147.047 54.3891C147.047 55.3278 147.069 56.2238 147.111 57.0771C147.197 57.9305 147.282 58.7411 147.367 59.5091C147.581 58.1865 147.879 56.6931 148.263 55.0291C148.647 53.3651 149.053 51.7225 149.479 50.1011C149.906 48.4371 150.311 46.9438 150.695 45.6211C151.122 44.2985 151.463 43.3385 151.719 42.7411C152.146 41.7171 152.701 40.9918 153.383 40.5651C154.109 40.1385 154.791 39.9251 155.431 39.9251C155.687 39.9251 155.901 40.2878 156.071 41.0131C156.242 41.7385 156.37 42.6558 156.455 43.7651C156.583 44.8745 156.69 46.0265 156.775 47.2211C156.861 48.3731 156.925 49.3758 156.967 50.2291C157.053 51.7651 157.245 52.8531 157.543 53.4931C157.842 54.1331 158.162 54.5171 158.503 54.6451C158.845 54.7731 159.122 54.8585 159.335 54.9011C159.719 54.9011 160.146 54.5598 160.615 53.8771C161.127 53.1518 161.618 52.3198 162.087 51.3811C162.599 50.4425 163.069 49.6318 163.495 48.9491C163.922 48.2238 164.263 47.8611 164.519 47.8611C164.647 47.8611 164.711 47.9678 164.711 48.1811C164.711 48.3518 164.647 48.6291 164.519 49.0131C163.154 52.2558 161.959 54.6878 160.935 56.3091C159.911 57.9305 158.823 58.7411 157.671 58.7411C156.733 58.7411 156.05 58.3358 155.623 57.5251C154.983 56.4158 154.535 55.1998 154.279 53.8771C154.023 52.5118 153.81 51.1251 153.639 49.7171C153.511 48.3091 153.277 46.9865 152.935 45.7491C152.893 45.4931 152.786 45.3651 152.615 45.3651C152.487 45.3651 152.359 45.4931 152.231 45.7491C152.146 46.0051 152.018 46.3251 151.847 46.7091C151.719 47.0078 151.463 47.7971 151.079 49.0771C150.738 50.3145 150.354 51.8291 149.927 53.6211C149.501 55.3705 149.138 57.2265 148.839 59.1891C148.541 61.1091 148.391 62.9011 148.391 64.5651C148.391 64.6505 148.349 64.6931 148.263 64.6931ZM148.007 41.6531C149.287 39.5625 150.546 37.3438 151.783 34.9971C153.063 32.6078 154.13 30.2611 154.983 27.9571C155.837 25.6531 156.263 23.5625 156.263 21.6851C156.263 20.7038 156.135 19.8291 155.879 19.0611C155.623 18.2505 155.154 17.5678 154.471 17.0131C154.429 16.9278 154.365 16.8638 154.279 16.8211C154.194 16.7785 154.109 16.7358 154.023 16.6931C152.871 20.1065 151.741 23.9678 150.631 28.2771C149.522 32.5438 148.647 37.0025 148.007 41.6531ZM168.168 64.6931C167.486 64.6931 166.91 64.2665 166.44 63.4131C166.014 62.6025 165.672 61.5571 165.416 60.2771C165.203 58.9545 165.054 57.5465 164.968 56.0531C164.883 54.5171 164.84 53.0451 164.84 51.6371V51.5731C164.371 51.3598 163.923 51.1678 163.496 50.9971C163.07 50.7838 162.664 50.6131 162.28 50.4851C162.024 50.3571 161.896 50.1865 161.896 49.9731C161.896 49.5891 162.131 49.1625 162.6 48.6931C163.112 48.2238 163.646 47.9891 164.2 47.9891C164.328 47.9891 164.52 48.0318 164.776 48.1171C164.776 48.1598 164.819 48.1811 164.904 48.1811C164.99 44.7251 165.224 41.2691 165.608 37.8131C165.992 34.3145 166.419 31.0718 166.888 28.0851C167.4 25.0558 167.87 22.5171 168.296 20.4691C168.766 18.3785 169.128 17.0345 169.384 16.4371C169.683 15.7118 169.918 15.0931 170.088 14.5811C170.302 14.0691 170.622 13.8131 171.048 13.8131C171.731 13.8131 172.392 14.0905 173.032 14.6451C173.715 15.1998 174.056 15.7118 174.056 16.1811V16.3091C174.312 15.9678 174.675 15.7971 175.144 15.7971C175.827 15.7971 176.36 16.1385 176.744 16.8211C177.171 17.5038 177.47 18.2931 177.64 19.1891C177.854 20.0425 177.96 20.7465 177.96 21.3011C177.96 22.9651 177.619 24.7998 176.936 26.8051C176.254 28.8105 175.379 30.8585 174.312 32.9491C173.246 34.9971 172.115 36.9811 170.92 38.9011C169.726 40.7785 168.616 42.4425 167.592 43.8931C167.507 44.7891 167.422 45.6851 167.336 46.5811C167.251 47.4771 167.166 48.3731 167.08 49.2691L167.784 49.6531C169.363 48.5865 170.984 47.3491 172.648 45.9411C174.312 44.5331 175.891 43.1038 177.384 41.6531C178.92 40.1598 180.222 38.7518 181.288 37.4291C181.374 37.3438 181.459 37.3011 181.544 37.3011C181.672 37.3011 181.736 37.3865 181.736 37.5571C181.736 37.6425 181.715 37.7278 181.672 37.8131C180.904 39.1785 179.88 40.6718 178.6 42.2931C177.32 43.8718 175.934 45.4505 174.44 47.0291C172.99 48.5651 171.539 49.9305 170.088 51.1251C172.222 52.5758 174.27 54.1545 176.232 55.8611C178.238 57.5678 180.094 59.2745 181.8 60.9811C182.056 61.2371 182.184 61.4931 182.184 61.7491C182.184 62.0478 182.099 62.1971 181.928 62.1971C181.843 62.1971 181.8 62.1758 181.8 62.1331C180.99 61.5358 179.838 60.7251 178.344 59.7011C176.851 58.6345 175.251 57.5678 173.544 56.5011C173.032 56.1598 172.222 55.6478 171.112 54.9651C170.003 54.2825 168.808 53.5998 167.528 52.9171H167.336C167.294 52.9171 167.23 52.9385 167.144 52.9811C167.102 52.9811 167.038 52.9598 166.952 52.9171V54.3891C166.952 56.5225 167.08 58.4425 167.336 60.1491C167.635 61.8131 167.955 63.2851 168.296 64.5651C168.296 64.6505 168.254 64.6931 168.168 64.6931ZM167.912 41.6531C169.192 39.5625 170.472 37.3438 171.752 34.9971C173.032 32.6078 174.099 30.2611 174.952 27.9571C175.806 25.6531 176.232 23.5625 176.232 21.6851C176.232 20.6611 176.062 19.7225 175.72 18.8691C175.379 18.0158 174.824 17.3118 174.056 16.7571C174.014 16.7571 173.971 16.7358 173.928 16.6931C172.776 20.1065 171.646 23.9678 170.536 28.2771C169.427 32.5865 168.552 37.0451 167.912 41.6531ZM195.57 59.4451C195.101 59.4451 194.589 59.2745 194.034 58.9331C193.48 58.5491 193.096 58.1438 192.882 57.7171C192.882 56.7358 193.01 55.3918 193.266 53.6851C193.522 51.9785 193.8 50.2291 194.098 48.4371C194.44 46.6025 194.738 45.0451 194.994 43.7651C194.226 44.9598 193.352 46.2611 192.37 47.6691C191.389 49.0771 190.386 50.3998 189.362 51.6371C188.338 52.8318 187.293 53.8345 186.226 54.6451C185.202 55.4131 184.242 55.7971 183.346 55.7971C182.45 55.7971 181.746 55.4985 181.234 54.9011C180.722 54.2611 180.466 53.5358 180.466 52.7251C180.466 52.5118 180.509 52.2345 180.594 51.8931C180.978 49.9305 181.725 48.0958 182.834 46.3891C183.986 44.6398 185.288 43.1038 186.738 41.7811C188.232 40.4585 189.704 39.4131 191.154 38.6451C192.605 37.8771 193.842 37.4931 194.866 37.4931C195.634 37.4931 196.36 37.6638 197.042 38.0051C197.768 38.3038 198.45 38.8158 199.09 39.5411C199.218 39.6691 199.282 39.8185 199.282 39.9891C199.282 40.2025 199.154 40.4158 198.898 40.6291C198.6 41.6531 198.28 42.8905 197.938 44.3411C197.64 45.7491 197.341 47.2211 197.042 48.7571C196.786 50.2505 196.573 51.6371 196.402 52.9171C196.232 54.1971 196.146 55.1785 196.146 55.8611C196.146 56.3305 196.21 56.5651 196.338 56.5651C196.68 56.5651 197.106 56.2025 197.618 55.4771C198.173 54.7518 198.706 53.9198 199.218 52.9811C199.73 52.0425 200.178 51.2105 200.562 50.4851C200.989 49.7598 201.245 49.3971 201.33 49.3971C201.458 49.3971 201.522 49.5678 201.522 49.9091C201.522 50.6345 201.288 51.5305 200.818 52.5971C200.349 53.6638 199.773 54.7305 199.09 55.7971C198.45 56.8211 197.789 57.6958 197.106 58.4211C196.466 59.1038 195.954 59.4451 195.57 59.4451ZM183.858 53.4291C184.456 53.4291 185.202 53.0878 186.098 52.4051C187.037 51.7225 187.997 50.8478 188.978 49.7811C190.002 48.7145 190.984 47.5838 191.922 46.3891C192.904 45.1945 193.736 44.0638 194.418 42.9971C195.144 41.8878 195.656 40.9918 195.954 40.3091C195.101 40.3091 194.12 40.6291 193.01 41.2691C191.901 41.8665 190.77 42.6558 189.618 43.6371C188.466 44.5758 187.4 45.6211 186.418 46.7731C185.437 47.8825 184.648 48.9705 184.05 50.0371C183.453 51.1038 183.154 52.0211 183.154 52.7891C183.154 53.2158 183.389 53.4291 183.858 53.4291Z" fill="white"/>
<path d="M221.489 81.5401C221.678 79.0251 221.038 75.6815 220.443 73.8615C219.377 70.6063 217.312 68.1521 216.005 66.7001C215.83 66.5061 215.667 66.3275 215.524 66.1698C214.356 64.8858 212.457 63.0722 211.127 61.5671L187.615 69.0776C187.404 71.0751 186.908 73.6535 186.701 75.3766C186.676 75.586 186.647 75.8227 186.618 76.0783C186.42 77.7888 186.193 80.4797 186.84 83.3366C187.337 85.53 189.148 89.4474 191.01 91.514C194.309 95.1749 197.96 98.4186 197.96 98.4186L205.57 95.9879L207.639 95.3268L219.814 91.4771C219.814 91.4771 221.281 84.3108 221.489 81.5401Z" fill="black"/>
<path d="M217.665 81.0096C217.795 73.6638 213.789 68.2236 209.795 62.9147C206.795 63.7486 204.131 64.5996 202.145 65.2338L199.176 66.1823C195.375 67.3966 193.55 67.9793 189.501 69.2727C189.324 75.9537 189.183 82.7574 193.576 88.7045C193.607 88.7446 193.584 88.7887 193.587 88.8319C197.417 93.1905 203.141 95.2088 208.483 93.5026C213.765 91.8154 217.019 87.0888 217.67 81.4003C217.67 81.4003 217.662 81.147 217.665 81.0096Z" fill="white"/>
<path d="M37.3291 21.4142C36.0142 19.6983 32.1047 14.9426 32.1047 14.9426C28.237 9.62331 20.7905 8.45094 15.4735 12.3234C10.1574 16.1951 8.98181 23.6472 12.8495 28.9665C12.8495 28.9665 16.5249 34.4039 17.6667 36.2394C19.2445 38.7759 20.3543 42.1957 20.8625 43.6794L43.5886 27.0528C42.3335 26.1115 39.0883 23.7109 37.3291 21.4142" fill="black"/>
<path d="M17.0491 14.4895C16.0407 15.2239 15.2288 16.1289 14.6236 17.1349C13.8683 18.3936 13.4351 19.8106 13.3465 21.2566C13.3282 21.5446 13.3243 21.8346 13.3347 22.1248C13.3555 22.705 13.4317 23.2851 13.564 23.8567C13.8307 25.0011 14.3246 26.111 15.0587 27.1207C15.4311 27.6328 15.848 28.0942 16.2995 28.5033C19.4025 31.3205 24.1558 31.6736 27.6784 29.108C31.3169 26.458 32.3986 21.6014 30.4246 17.712C30.2094 17.2878 29.9592 16.8743 29.6712 16.4782C26.7357 12.441 21.0836 11.5512 17.0491 14.4895" fill="white"/>
<path d="M27.4939 14.3639C24.4253 12.2454 20.2364 12.1684 17.0487 14.49C13.7384 16.901 12.5483 21.1387 13.8488 24.8137C15.2051 23.7621 19.2568 18.8668 19.4072 14.5499C21.1424 15.3899 25.7715 15.444 27.4939 14.3639" fill="black"/>
<path d="M17.1233 14.5923C13.1515 17.485 12.2707 23.0718 15.1607 27.0464C18.05 31.0201 23.6324 31.8996 27.6042 29.0068C31.5769 26.1134 32.4578 20.5267 29.5684 16.553C26.6785 12.5784 21.096 11.6989 17.1233 14.5923ZM27.7533 29.2118C23.6689 32.1865 17.9281 31.2814 14.9568 27.1949C11.985 23.1078 12.8906 17.363 16.975 14.3883C21.0602 11.413 26.8005 12.3175 29.7723 16.4045C32.7436 20.491 31.8385 26.2365 27.7533 29.2118Z" fill="black"/>
</svg>
