<svg width="140" height="185" viewBox="0 0 140 185" fill="none" xmlns="http://www.w3.org/2000/svg">
<g filter="url(#filter0_d_2_148)">
<path d="M69.9398 52.7135C69.9398 52.7135 69.9352 52.7216 69.9282 52.7342C69.9352 52.7216 69.9398 52.7135 69.9398 52.7135C69.9398 52.7135 69.949 52.6979 69.956 52.6857C69.949 52.6979 69.9398 52.7135 69.9398 52.7135ZM86.0306 95.4909C86.167 95.0996 86.3034 94.7019 86.4375 94.3018C86.4925 94.1394 86.548 93.9776 86.6017 93.8141C87.1775 92.0792 87.7157 90.3057 88.118 88.6791C88.455 87.3188 88.7949 85.7287 89.0914 84.1065C89.7573 81.4726 90.0123 78.8828 89.9995 76.4353C89.9712 70.8401 88.5746 65.9932 87.6555 63.0844C87.5324 62.6954 87.4174 62.3363 87.3156 62.0195C86.4901 59.4415 85.0508 55.6742 84.1259 52.6701H55.8756C54.9507 55.6742 53.5108 59.4415 52.6859 62.0195C52.5859 62.3329 52.4714 62.6868 52.35 63.0707C51.5396 65.6338 50.3534 69.7091 50.0644 74.4781C49.984 75.8087 49.9742 77.1942 50.0615 78.6157C50.1881 81.7331 50.6419 85.3796 51.6344 88.9611C51.976 90.1924 52.5668 91.9492 53.2304 93.8141C53.2882 93.9757 53.3466 94.1388 53.4056 94.3018C53.5466 94.6967 53.69 95.0937 53.8351 95.4909C54.3906 97.0124 54.9582 98.5223 55.449 99.8107H84.4409C84.9236 98.558 85.4797 97.069 86.0306 95.4909" fill="#5665B9"/>
<path d="M56.8317 103.39H83.0108C83.0108 103.39 83.4051 102.452 83.9884 100.973H55.8936C56.4525 102.426 56.8317 103.39 56.8317 103.39Z" fill="#5665B9"/>
<path d="M55.4491 99.8107C55.6063 100.224 55.7554 100.613 55.8936 100.973H83.9884C84.1294 100.615 84.2809 100.226 84.441 99.8107H55.4491" fill="#EE232C"/>
<path d="M87.6554 63.0851C86.7866 60.3104 85.109 55.6505 84.1258 52.6701C83.7338 52.6701 81.9413 52.6326 81.6742 52.6712C81.2008 53.2534 80.4106 54.7967 80.9522 59.3277C81.4014 63.0907 83.4517 66.9563 83.8044 67.9894C83.024 69.8009 82.2551 73.0645 82.3245 75.3647C82.3615 76.5855 82.3655 77.1023 82.8621 78.233C83.4055 79.4706 84.787 80.0116 86.7351 80.4013C87.808 80.3221 88.741 79.6325 89.2971 78.4567C89.5878 77.8416 89.8445 77.1357 89.9994 76.4353C89.9711 70.8401 88.567 65.9962 87.6554 63.0851" fill="#FBED81"/>
<path d="M83.5253 79.1585C83.5253 79.1585 84.5074 79.7596 85.2698 80.0204C86.0311 80.2817 86.7537 80.3781 86.7537 80.3781C86.7537 80.3781 86.3838 83.1489 85.486 84.291C84.5877 85.4338 84.0062 85.5743 83.9259 85.5546C83.8461 85.5338 83.8056 84.9732 83.8056 84.9732C83.8056 84.9732 83.5449 85.1529 82.9437 85.3137C82.342 85.4738 82.1818 85.5338 82.1622 85.3934C82.142 85.2536 82.5824 84.7124 82.5824 84.7124C82.5824 84.7124 81.8408 84.9732 81.6402 84.8727C81.4402 84.772 81.7512 84.4218 81.7512 84.4218L83.1241 83.1886C83.1241 83.1886 81.9315 83.7425 81.6107 83.8297C81.2795 83.92 80.939 83.9501 80.9592 83.7297C80.9789 83.5095 81.7333 83.1186 82.042 82.8673C83.2749 81.8654 83.6154 80.7025 83.6154 80.7025C83.6154 80.7025 82.8235 81.0031 82.3824 81.0031C81.9414 81.0031 81.4402 80.7222 81.3795 80.5014C81.32 80.2817 81.32 80.2817 81.32 80.2817C81.32 80.2817 82.2824 80.3412 82.7032 79.9204C83.1241 79.4995 83.5253 79.1585 83.5253 79.1585" fill="#FCD0B0"/>
<path d="M89.2312 78.6324C87.0797 79.1382 84.1853 78.5798 82.3789 76.2438C82.3465 76.2023 82.2818 76.2282 82.2928 76.2808C82.4575 77.0267 83.7656 78.1225 84.8622 78.5497C86.1235 79.0429 88.0045 79.392 89.1774 78.7753C89.2612 78.7313 89.3272 78.6093 89.2312 78.6324" fill="#EE232C"/>
<path d="M89.7909 76.5342C87.0722 76.3838 84.2583 75.4075 82.3582 73.3935C82.3183 73.3508 82.2489 73.405 82.2784 73.4547C83.6322 75.7509 87.3358 76.6451 89.7909 76.7896C89.955 76.7995 89.955 76.5432 89.7909 76.5342Z" fill="#EE232C"/>
<path d="M84.7582 76.3791C84.6062 76.7925 84.0946 76.8388 83.8049 76.5617C83.6442 76.4087 83.5899 76.2029 83.5333 75.9977C83.4645 75.7524 83.435 75.4964 83.2668 75.2918C83.0159 74.9854 82.576 74.9391 82.3066 75.2426C82.2852 75.267 82.3118 75.3018 82.3402 75.2873C82.7546 75.0762 83.1067 75.353 83.2263 75.752C83.287 75.9555 83.3073 76.17 83.3922 76.3665C83.4888 76.5906 83.6512 76.7954 83.8737 76.9052C84.3067 77.1186 84.7824 76.8607 84.7876 76.3827C84.7876 76.3653 84.764 76.3635 84.7582 76.3791" fill="#EE232C"/>
<path d="M86.5994 77.2509C86.4479 77.6648 85.9364 77.7104 85.6462 77.434C85.486 77.2802 85.4323 77.0752 85.3745 76.8699C85.3057 76.6236 85.2762 76.3687 85.108 76.1641C84.8577 75.8577 84.4172 75.8116 84.1478 76.1149C84.1265 76.1393 84.153 76.174 84.1819 76.1596C84.597 75.948 84.9485 76.2253 85.0675 76.6236C85.1288 76.8277 85.149 77.0423 85.2334 77.2387C85.33 77.4629 85.4924 77.6677 85.715 77.7775C86.1479 77.9909 86.6237 77.7323 86.6289 77.255C86.6294 77.2376 86.6052 77.2358 86.5994 77.2509" fill="#EE232C"/>
<path d="M83.0257 60.1171C83.0176 60.1011 82.9957 60.1104 82.9974 60.1264C83.0471 60.5647 82.6101 60.8345 82.2274 60.7178C82.0153 60.6532 81.8748 60.4924 81.732 60.3357C81.5598 60.1467 81.4193 59.9311 81.1771 59.8236C81.1251 59.8005 81.0725 59.7861 81.0193 59.7757C81.0285 59.8658 81.0395 59.9554 81.0511 60.0462C81.1575 60.0918 81.2598 60.1607 81.347 60.2531C81.4927 60.4079 81.6072 60.5906 81.7708 60.7281C81.9575 60.8855 82.1945 60.9953 82.4425 60.9935C82.9257 60.9901 83.235 60.5469 83.0257 60.1171" fill="#EE232C"/>
<path d="M85.0999 59.7784C85.1663 60.2145 84.7409 60.5017 84.3536 60.3994C84.1391 60.3427 83.9923 60.1889 83.8432 60.0374C83.6634 59.8554 83.5148 59.6457 83.2686 59.5472C82.9009 59.4011 82.4934 59.5739 82.4044 59.9692C82.3968 60.0011 82.4367 60.0185 82.4558 59.9918C82.7159 59.6061 83.1582 59.6791 83.4553 59.9704C83.6067 60.1189 83.7287 60.2971 83.8981 60.4283C84.0906 60.578 84.3322 60.678 84.579 60.667C85.0617 60.6444 85.3536 60.1889 85.1276 59.7676C85.1189 59.7524 85.097 59.7624 85.0999 59.7784" fill="#EE232C"/>
<path d="M86.5375 59.7113C86.4716 59.7254 86.4479 59.7531 86.378 59.7443C86.1577 59.7165 85.9918 59.5838 85.8236 59.4537C85.6219 59.297 85.4456 59.1096 85.1883 59.045C84.8051 58.9491 84.4241 59.1744 84.3883 59.5779C84.3854 59.6102 84.4276 59.622 84.442 59.5935C84.649 59.1766 85.097 59.1895 85.4305 59.4392C85.6005 59.5664 85.7594 59.7035 85.9294 59.834C86.356 60.1593 86.6323 59.9796 86.6375 59.9792C86.6161 59.8976 86.5612 59.7913 86.5375 59.7113" fill="#EE232C"/>
<path d="M88.6816 77.6307C88.6266 78.0672 88.1382 78.2273 87.7936 78.0225C87.6035 77.9093 87.504 77.7208 87.4023 77.5347C87.2797 77.3105 87.1942 77.0675 86.9844 76.9059C86.6716 76.664 86.2317 76.7184 86.0375 77.0741C86.0219 77.1023 86.0554 77.1301 86.0809 77.1093C86.4369 76.8103 86.8422 77.0019 87.048 77.3636C87.1532 77.5481 87.2214 77.7526 87.3474 77.9249C87.4919 78.1221 87.6965 78.2844 87.9376 78.3417C88.4076 78.4526 88.8139 78.0943 88.7116 77.6278C88.7076 77.6099 88.6839 77.614 88.6816 77.6307Z" fill="#EE232C"/>
<path d="M89.4844 77.7567C89.3619 77.5329 89.2758 77.2909 89.0659 77.1283C88.7532 76.8867 88.3133 76.9404 88.1191 77.2965C88.104 77.3243 88.1381 77.3525 88.163 77.3318C88.5191 77.033 88.9243 77.2242 89.1295 77.5855C89.2347 77.7705 89.3029 77.9753 89.4295 78.1473C89.4659 78.1977 89.5318 77.8434 89.4844 77.7567" fill="#EE232C"/>
<path d="M82.7558 75.4416C82.6355 75.6208 82.4523 75.6935 82.2714 75.6827C82.0829 75.6698 82.1199 75.927 82.2916 75.904C82.5188 75.874 82.7165 75.715 82.7835 75.4519C82.7881 75.4352 82.765 75.4278 82.7558 75.4416" fill="#EE232C"/>
<path d="M85.3518 56.2719C83.8333 56.964 82.4246 57.3449 80.8297 57.6166C80.8285 57.6755 80.8216 57.7356 80.8227 57.794C82.4049 57.8223 84.0946 57.2894 85.4461 56.5287C85.4108 56.4609 85.3848 56.3668 85.3518 56.2719" fill="#EE232C"/>
<path d="M80.9615 59.0802C82.4205 59.5039 84.5599 58.7589 85.9531 58.056C85.9369 57.9796 85.9224 57.8963 85.8883 57.8234C84.3247 58.4837 82.6576 59.034 80.9477 58.9114C80.9523 58.9675 80.9569 59.0243 80.9615 59.0802" fill="#EE232C"/>
<path d="M86.874 60.69C85.4739 61.6786 83.112 61.9802 81.3992 61.726C81.4142 61.7849 81.4298 61.8445 81.4454 61.9039C82.2287 62.1536 83.3721 62.1099 84.2005 61.9739C85.0924 61.8283 86.4358 61.3809 86.9387 60.8937C86.8971 60.8415 86.9087 60.7821 86.874 60.69Z" fill="#EE232C"/>
<path d="M87.2647 61.8717C85.8554 62.8665 83.4455 63.1797 81.7287 62.9169C81.7454 62.9733 81.761 63.0307 81.779 63.0867C82.5622 63.3491 83.7235 63.3071 84.564 63.1693C85.456 63.0237 86.8329 62.5716 87.3358 62.0839C87.3052 61.9728 87.2988 61.9642 87.2647 61.8717" fill="#EE232C"/>
<path d="M83.2548 48.7064C83.2548 46.3004 83.2548 38.762 83.2548 38.762C83.2548 31.4421 77.321 25.5083 70.0011 25.5083C62.6806 25.5083 56.7462 31.4421 56.7462 38.762C56.7462 38.762 56.7462 46.3004 56.7462 48.7064C56.7462 49.566 56.3895 51.0018 55.8756 52.6701H84.1259C83.612 51.0018 83.2548 49.566 83.2548 48.7064Z" fill="#EE232C"/>
<path d="M83.8056 51.5499H73.2283L72.5849 50.9296L83.6154 50.8741L83.8056 51.5499Z" fill="#F57615"/>
<path d="M66.5893 51.5499H56.2051L56.3716 50.8741L67.5744 50.8844L66.5893 51.5499" fill="#F57615"/>
<path d="M83.4634 50.2271H71.7254L71.8797 49.6087L83.3339 49.5504L83.4634 50.2271Z" fill="#FAD10F"/>
<path d="M67.9611 50.2271H56.5386L56.667 49.5515L67.9848 49.5624L67.9611 50.2271Z" fill="#FAD10F"/>
<path d="M81.7854 52.6539L58.1093 52.6701C58.6856 54.4933 59.2157 56.8055 58.5278 58.7056H80.9408C80.5443 56.5887 80.8547 54.5944 81.7854 52.6539" fill="#FBED81"/>
<path d="M60.4423 52.7609C60.4423 52.7609 60.1816 55.1973 60.3122 56.6409C60.4423 58.0842 60.5608 58.7056 60.5608 58.7056L63.1887 58.746C63.1887 58.746 63.1488 55.9736 62.8482 54.6829C62.547 53.3934 62.1262 52.6712 62.1262 52.6712L60.4423 52.7609" fill="#EE232C"/>
<path d="M76.8625 52.6712C76.8625 52.6712 76.6243 55.0316 76.6416 56.2997C76.6619 57.7437 76.6162 58.746 76.6162 58.746L79.1279 58.8467C79.1279 58.8467 79.2019 55.7027 79.1481 54.6685C79.0943 53.6339 78.9469 52.6712 78.9469 52.6712H76.8625" fill="#EE232C"/>
<path d="M74.9568 53.1055C73.7793 52.0279 72.222 51.3661 71.1387 51.0023C70.7491 51.1613 70.3086 51.2001 69.871 51.166C69.4837 51.1365 69.1011 51.0523 68.7589 50.9434C67.6744 51.2927 66.0067 51.969 64.7656 53.1055C62.7679 54.9331 61.6603 56.7235 61.6603 56.7235C61.6603 56.7235 64.9009 57.5577 67.1235 56.3824C68.4513 55.6801 69.0537 55.025 69.4259 53.861C69.5479 53.4776 69.7439 52.8435 69.845 52.2937C69.9427 52.8521 70.1179 53.4487 70.2219 53.814C70.5786 55.0632 71.1584 55.7205 72.5347 56.4489C74.7574 57.6247 78.0621 56.7235 78.0621 56.7235C78.0621 56.7235 76.9546 54.9331 74.9568 53.1055" fill="#EE232C"/>
<path d="M79.2419 39.3413C79.2419 44.4646 75.0885 48.6173 69.9658 48.6173C64.843 48.6173 60.6897 44.4646 60.6897 39.3413C60.6897 34.2185 64.843 30.0652 69.9658 30.0652C75.0885 30.0652 79.2419 34.2185 79.2419 39.3413Z" fill="#FCD0B0"/>
<path d="M70.5154 30.123C70.5357 30.0883 70.5484 30.0652 70.5484 30.0652C70.5484 30.0652 70.1362 30.0276 69.49 30.064C69.4212 30.064 69.3726 30.0652 69.3726 30.0652C69.3726 30.0652 69.3744 30.0692 69.3749 30.0698C67.8096 30.1779 65.0048 30.7357 63.0151 33.1988C63.0151 33.1988 66.1187 33.5179 67.8575 32.6757C68.8102 32.2138 69.5246 31.4756 69.9784 30.9016C70.442 31.4577 71.1611 32.1664 72.1011 32.6213C73.0583 33.0849 74.4699 33.0699 75.5469 33.1618C76.4284 33.2364 77.0857 33.4555 77.0857 33.4555C75.0642 30.9531 72.1184 30.2935 70.5154 30.123" fill="#BF3822"/>
<path d="M68.8749 39.9031C68.8333 39.9037 68.7824 39.9026 68.7535 39.9355C68.5137 40.2124 69.0189 40.7222 69.3166 40.5465C69.3553 40.5234 69.3859 40.4771 69.3831 40.4309C69.3727 40.2708 69.2044 39.8991 68.8749 39.9031" fill="#E9A579"/>
<path d="M71.0565 39.9031C71.0982 39.9037 71.149 39.9026 71.1779 39.9355C71.4178 40.2124 70.9126 40.7222 70.6149 40.5465C70.5762 40.5234 70.5455 40.4771 70.5484 40.4309C70.5588 40.2708 70.727 39.8991 71.0565 39.9031" fill="#E9A579"/>
<path d="M68.6316 42.7674C68.694 43.7547 69.2796 44.1033 69.9565 44.1033C70.8479 44.1033 71.1941 43.6489 71.2814 42.7333C70.775 42.8235 69.4206 42.8067 68.6316 42.7674" fill="#F03B5E"/>
<path d="M70.1732 41.7258C70.1015 41.7096 69.8114 41.7096 69.7397 41.7258C69.1564 41.8576 68.8084 42.7408 68.1269 42.5726C68.3812 42.9645 69.1489 43.2235 69.9564 43.1958C70.7646 43.2235 71.5322 42.9645 71.7866 42.5726C71.105 42.7408 70.7571 41.8576 70.1732 41.7258Z" fill="#F03B5E"/>
<path d="M72.1248 42.2495C71.6901 42.6015 71.2566 42.8755 70.6704 42.8518C70.4109 42.8414 70.2161 42.7021 69.9478 42.7021C69.6432 42.7021 69.4819 42.8391 69.1686 42.8518C68.5825 42.8755 68.1495 42.6015 67.7142 42.2495C67.7084 42.2454 67.7015 42.2506 67.7044 42.257C67.8668 42.6096 68.2634 42.9056 68.6293 43.0218C68.8293 43.0848 69.0131 43.0455 69.2386 42.99C69.4814 42.9304 69.7663 42.835 69.9478 42.8374C70.1155 42.8397 70.4028 42.9414 70.6005 42.99C70.8259 43.0455 71.0097 43.0848 71.2097 43.0218C71.5756 42.9056 71.9722 42.6096 72.1346 42.257C72.1375 42.2506 72.13 42.2454 72.1248 42.2495Z" fill="#C51A39"/>
<path d="M77.0886 42.261C77.0886 43.3027 76.2446 44.1467 75.2035 44.1467C74.1619 44.1467 73.3173 43.3027 73.3173 42.261C73.3173 41.2194 74.1619 40.3748 75.2035 40.3748C76.2446 40.3748 77.0886 41.2194 77.0886 42.261Z" fill="#F8A0A4"/>
<path d="M66.3565 42.261C66.3565 43.3027 65.5119 44.1467 64.4703 44.1467C63.4292 44.1467 62.5846 43.3027 62.5846 42.261C62.5846 41.2194 63.4292 40.3748 64.4703 40.3748C65.5119 40.3748 66.3565 41.2194 66.3565 42.261Z" fill="#F8A0A4"/>
<path d="M77.0857 33.4555C76.0463 32.9797 75.0231 33.0352 73.9029 32.9566C72.1265 32.8312 71.1322 32.0473 70.0062 30.7952C70.0062 30.7952 68.9553 31.9947 67.4147 32.6202C66.0563 33.1716 64.2805 33.1595 63.044 33.1508C62.9579 33.1497 62.9591 33.2797 63.044 33.2844C65.4424 33.4092 68.6761 33.4098 69.9929 30.9941C72.1878 34.0029 75.0174 32.7942 77.1088 33.6272C77.1914 33.6607 77.1706 33.4948 77.0857 33.4555" fill="#3B1818"/>
<path d="M69.0321 30.9403C67.8008 32.1057 66.0632 32.3005 64.5938 32.2878C64.5504 32.2878 64.5493 32.3531 64.5938 32.3566C66.2071 32.4895 67.9222 32.1849 69.0685 30.9773C69.0911 30.9525 69.0564 30.9178 69.0321 30.9403" fill="#3B1818"/>
<path d="M71.0156 30.9403C72.2463 32.1057 73.9839 32.3005 75.4534 32.2878C75.4967 32.2878 75.4979 32.3531 75.4534 32.3566C73.84 32.4895 72.1243 32.1849 70.9786 30.9773C70.9555 30.9525 70.9913 30.9178 71.0156 30.9403Z" fill="#3B1818"/>
<path d="M69.9658 30.1952C64.9223 30.1952 60.8198 34.2983 60.8198 39.3413C60.8198 44.3848 64.9223 48.4877 69.9658 48.4877C75.0094 48.4877 79.1119 44.3848 79.1119 39.3413C79.1119 34.2983 75.0094 30.1952 69.9658 30.1952V30.1952ZM69.9658 48.7468C64.7795 48.7468 60.5608 44.5276 60.5608 39.3413C60.5608 34.1555 64.7795 29.9357 69.9658 29.9357C75.1522 29.9357 79.3714 34.1555 79.3714 39.3413C79.3714 44.5276 75.1522 48.7468 69.9658 48.7468" fill="#3B1818"/>
<path d="M71.6201 37.7389C71.6201 37.7389 72.0982 38.8349 73.8058 38.8349C75.5134 38.8349 75.6353 37.9886 75.6353 37.9886C75.6353 37.9886 75.3573 36.407 73.8058 36.4111C72.2543 36.4157 71.6201 37.7389 71.6201 37.7389Z" fill="white"/>
<path d="M74.8689 37.373C74.8689 37.9741 74.381 38.462 73.7792 38.462C73.178 38.462 72.6902 37.9741 72.6902 37.373C72.6902 36.7712 73.178 36.2839 73.7792 36.2839C74.381 36.2839 74.8689 36.7712 74.8689 37.373Z" fill="#5665B9"/>
<path d="M73.7925 36.2463C72.6901 36.1972 71.8756 36.9874 71.4872 37.9562C71.4594 38.0256 71.578 38.0759 71.608 38.0071C71.9785 37.155 72.6815 36.4261 73.6699 36.4209C74.7474 36.4157 75.4914 37.2152 75.6926 38.2158C75.7168 38.3372 75.9064 38.2863 75.8793 38.1643C75.6515 37.1574 74.8729 36.2943 73.7925 36.2463" fill="#3B1818"/>
<path d="M75.0105 35.3804C74.2717 34.6729 72.4786 34.9567 72.0132 35.8845C72.0109 35.8891 72.0161 35.8949 72.0202 35.892C72.4578 35.5012 72.7919 35.3006 73.322 35.2122C73.87 35.1208 74.4093 35.2203 74.9665 35.4538C75.0093 35.4717 75.0394 35.4087 75.0105 35.3804" fill="#3B1818"/>
<path d="M74.5983 37.373C74.5983 37.8111 74.2434 38.1655 73.8058 38.1655C73.3682 38.1655 73.0132 37.8111 73.0132 37.373C73.0132 36.9348 73.3682 36.5805 73.8058 36.5805C74.2434 36.5805 74.5983 36.9348 74.5983 37.373Z" fill="#3B1818"/>
<path d="M74.6757 37.1689C74.6757 37.3042 74.5659 37.414 74.4306 37.414C74.2948 37.414 74.185 37.3042 74.185 37.1689C74.185 37.0337 74.2948 36.9238 74.4306 36.9238C74.5659 36.9238 74.6757 37.0337 74.6757 37.1689Z" fill="white"/>
<path d="M68.2229 37.7389C68.2229 37.7389 67.7454 38.8349 66.0379 38.8349C64.3303 38.8349 64.2083 37.9886 64.2083 37.9886C64.2083 37.9886 64.4863 36.407 66.0379 36.4111C67.5894 36.4157 68.2229 37.7389 68.2229 37.7389Z" fill="white"/>
<path d="M67.1535 37.373C67.1535 37.9741 66.6656 38.462 66.0644 38.462C65.4626 38.462 64.9748 37.9741 64.9748 37.373C64.9748 36.7712 65.4626 36.2839 66.0644 36.2839C66.6656 36.2839 67.1535 36.7712 67.1535 37.373Z" fill="#5665B9"/>
<path d="M66.0511 36.2463C67.1535 36.1972 67.968 36.9874 68.3564 37.9562C68.3842 38.0256 68.2657 38.0759 68.2356 38.0071C67.8651 37.155 67.1622 36.4261 66.1737 36.4209C65.0962 36.4157 64.3522 37.2152 64.1511 38.2158C64.1268 38.3372 63.9366 38.2863 63.9643 38.1643C64.1915 37.1574 64.9702 36.2943 66.0511 36.2463" fill="#3B1818"/>
<path d="M64.8332 35.3804C65.572 34.6729 67.3651 34.9567 67.8304 35.8845C67.8327 35.8891 67.8275 35.8949 67.8235 35.892C67.3859 35.5012 67.0518 35.3006 66.5217 35.2122C65.9737 35.1208 65.4344 35.2203 64.876 35.4538C64.8344 35.4717 64.8037 35.4087 64.8332 35.3804" fill="#3B1818"/>
<path d="M66.8835 37.373C66.8835 37.8111 66.5285 38.1655 66.0904 38.1655C65.6528 38.1655 65.2979 37.8111 65.2979 37.373C65.2979 36.9348 65.6528 36.5805 66.0904 36.5805C66.5285 36.5805 66.8835 36.9348 66.8835 37.373Z" fill="#3B1818"/>
<path d="M66.421 37.1689C66.421 37.3042 66.5309 37.414 66.6661 37.414C66.8014 37.414 66.9118 37.3042 66.9118 37.1689C66.9118 37.0337 66.8014 36.9238 66.6661 36.9238C66.5309 36.9238 66.421 37.0337 66.421 37.1689Z" fill="white"/>
<path d="M66.1609 54.6685C66.1609 55.0384 65.8614 55.3377 65.4915 55.3377C65.1215 55.3377 64.8215 55.0384 64.8215 54.6685C64.8215 54.2979 65.1215 53.9985 65.4915 53.9985C65.8614 53.9985 66.1609 54.2979 66.1609 54.6685Z" fill="#FAD10F"/>
<path d="M74.3521 54.6685C74.3521 55.0384 74.052 55.3377 73.6827 55.3377C73.3127 55.3377 73.0127 55.0384 73.0127 54.6685C73.0127 54.2979 73.3127 53.9985 73.6827 53.9985C74.052 53.9985 74.3521 54.2979 74.3521 54.6685Z" fill="#FAD10F"/>
<path d="M72.9184 52.9458C72.9184 53.3159 72.6184 53.6165 72.2479 53.6165C71.8785 53.6165 71.5785 53.3159 71.5785 52.9458C71.5785 52.5764 71.8785 52.2765 72.2479 52.2765C72.6184 52.2765 72.9184 52.5764 72.9184 52.9458Z" fill="#F57615"/>
<path d="M68.2362 52.9458C68.2362 53.3159 67.9362 53.6165 67.5662 53.6165C67.1963 53.6165 66.8968 53.3159 66.8968 52.9458C66.8968 52.5764 67.1963 52.2765 67.5662 52.2765C67.9362 52.2765 68.2362 52.5764 68.2362 52.9458Z" fill="#F57615"/>
<path d="M58.5277 58.7056C58.5277 58.7056 58.2017 60.0611 57.8768 60.9081C57.5519 61.7556 56.8571 62.5752 56.8571 62.5752H81.6431C81.6431 62.5752 81.1263 61.2791 81.1517 60.5514C81.1772 59.8236 80.9477 58.9113 80.9477 58.9113L58.5277 58.7056Z" fill="#5665B9"/>
<path d="M81.0842 60.2479C80.4893 60.6532 80.0113 61.0438 79.5159 60.8404C78.576 60.4531 78.2898 60.0819 77.4227 59.7454C77.0088 59.5849 76.6135 59.493 76.1724 59.5942C75.8712 59.6646 75.6643 59.7965 75.4209 59.9819C75.2209 60.1341 74.714 60.7814 74.4966 60.8763C73.9116 61.1312 73.4729 60.7363 73.0376 60.4034C72.2156 59.7757 71.4953 59.7021 70.8941 59.6669C70.1427 59.6231 69.7739 59.7594 69.2507 60.0289C68.405 60.4653 67.9443 61.866 66.842 60.8526C66.0038 60.0819 65.028 59.8617 64.6823 59.8837C62.943 59.9941 61.962 62.0283 60.2041 60.8559C59.659 60.4924 59.2821 60.1341 58.8087 60.149C58.796 60.3034 58.7769 60.4554 58.7387 60.6033C59.6266 60.853 60.1694 61.6411 61.1544 61.6989C62.5557 61.7808 63.2615 60.296 64.6823 60.2723C65.2812 60.2623 66.1338 60.6814 66.5697 61.1249C67.3044 61.8716 67.931 61.4763 68.2015 61.3213C68.4698 61.1676 68.627 60.9659 68.8363 60.7607C70.1421 59.4842 72.1046 60.3305 72.626 60.6399C73.0231 60.8751 73.3549 61.2261 73.8185 61.322C74.6504 61.4941 74.9244 61.0231 75.4822 60.538C76.6152 59.5538 77.2245 60.16 77.7453 60.3849C78.0367 60.5098 79.2448 61.4559 79.9483 61.3098C80.4523 61.2046 80.8368 60.9641 81.2056 60.7044C81.1495 60.5572 81.1102 60.4046 81.0842 60.2479" fill="white"/>
<path d="M57.2168 62.4752C57.8821 61.4265 58.07 60.5324 58.4382 59.3108C58.4966 59.1166 58.5238 59.0294 58.5839 58.8282C65.7749 59.027 73.3718 58.8172 80.7703 58.9872C80.7923 59.1496 80.8675 59.5779 80.8917 59.738C81.0339 60.6733 81.2028 61.5388 81.4392 62.4745C77.3211 62.5029 61.3441 62.5653 57.2168 62.4752V62.4752ZM60.5609 52.8435C61.1204 52.8354 61.4222 52.8365 62.0661 52.8157C62.2332 53.3945 62.554 54.1801 62.7008 54.8678C62.184 55.5089 61.7378 56.1707 61.4048 56.8217C61.4019 56.821 62.1205 56.9414 62.9344 57.0374C62.9147 57.5472 63.0685 58.0246 63.028 58.5589C62.1418 58.5582 61.5771 58.5589 60.6898 58.5577C60.4019 56.661 60.3817 54.7967 60.5609 52.8435V52.8435ZM64.8865 52.6446C64.1506 53.2592 63.4535 53.9556 62.8482 54.6829C62.7621 54.0378 62.6164 53.4123 62.3708 52.806C63.2165 52.7746 64.0581 52.7239 64.8865 52.6446V52.6446ZM63.2824 57.0756C63.9298 57.1478 64.4159 57.179 64.8304 57.1379C65.842 57.0403 66.9039 56.7298 67.7872 56.197C69.0705 55.4204 69.626 53.9407 69.8497 52.4678C70.0595 53.9812 70.6098 55.5229 71.9301 56.3204C72.8128 56.854 73.8747 57.1645 74.8863 57.2623C75.2794 57.3009 75.8811 57.2916 76.4806 57.2501C76.5014 57.6033 76.5216 58.0646 76.5205 58.6137C72.1053 58.5582 67.697 58.5599 63.2824 58.5589C63.2448 58.0587 63.2824 57.3628 63.2824 57.0756ZM78.4263 56.8813C77.9009 56.2426 77.3378 55.5703 76.75 54.9008C76.7713 54.2153 76.9274 53.1673 76.9974 52.7668C77.6032 52.7823 78.213 52.7909 78.8223 52.7972C79.0362 54.7667 78.9674 56.6854 79.0177 58.6564C78.2454 58.6433 77.6344 58.6293 76.8627 58.6196C76.7991 58.1572 76.7858 57.69 76.7713 57.2275C77.628 57.1605 78.2766 57.0425 78.4263 56.8813V56.8813ZM74.6597 52.6898C75.3921 52.7187 76.0256 52.7401 76.7713 52.7602C76.6245 53.2856 76.5731 53.9985 76.5916 54.72C75.9742 54.0234 75.3279 53.3326 74.6597 52.6898ZM81.5091 52.7783C80.464 54.6703 80.4767 56.5801 80.7501 58.686C80.201 58.6745 79.7905 58.6704 79.242 58.6605C79.242 56.42 79.3714 54.5355 79.1084 52.8002C79.9634 52.8072 80.6501 52.8035 81.5091 52.7783V52.7783ZM83.8913 67.6985C83.1271 66.1892 82.3878 64.4625 81.8322 62.6579C81.834 62.6294 81.8276 62.6023 81.8091 62.5809C81.5623 61.7693 81.349 60.9438 81.1947 60.1126C81.1392 59.8166 81.001 58.8205 80.9883 58.7038C80.7675 56.6465 80.9241 54.6077 81.7022 52.7724C82.3918 52.7509 83.0728 52.7187 83.7341 52.6701C83.8393 52.6627 83.8242 52.5204 83.7161 52.5227C80.7039 52.5897 77.5396 52.4614 74.5013 52.5389C73.8782 51.9493 73.2388 51.3984 72.585 50.9296C72.5706 50.9197 72.5567 50.9418 72.5665 50.9533C74.2926 52.9417 76.2204 54.7378 77.9223 56.7558C76.047 56.9443 73.9556 57.1126 72.2452 56.1378C70.7954 55.3118 70.2214 53.8506 69.8803 52.2558C69.8682 52.2007 69.8566 52.1465 69.8451 52.0909C69.8358 52.1343 69.8271 52.1776 69.8179 52.2214C69.4745 53.7817 68.8941 55.2036 67.4715 56.0136C65.7663 56.9847 63.6835 56.8217 61.8141 56.6332C62.5974 55.6252 63.3332 54.6021 64.2454 53.6962C65.2876 52.6602 66.4796 51.889 67.6658 51.0405C67.76 50.9723 67.6802 50.8348 67.5744 50.8844C66.7178 51.2868 65.8299 51.8719 64.9888 52.562C62.0511 52.5227 59.2903 52.6186 56.4572 52.5511C56.3329 52.5481 56.3497 52.7239 56.4723 52.7313C57.3023 52.7835 59.9123 52.8446 60.3302 52.8446C59.9932 54.6807 60.195 56.7095 60.3603 58.5577C59.7949 58.5571 59.2307 58.5577 58.6648 58.5559C58.7695 58.2032 58.8706 57.8403 58.9643 57.4738C58.8909 57.5929 58.7735 57.6206 58.6666 57.5917C58.5336 58.1386 58.377 58.6878 58.2041 59.2466C57.8313 60.4577 57.3561 61.6375 56.6636 62.6764C56.7815 62.7202 56.8977 62.7683 57.0168 62.8087C57.0503 62.7606 57.0879 62.7116 57.1179 62.6646C61.1724 62.8024 65.0483 62.845 69.1034 62.8231C73.2388 62.8013 77.3743 62.7791 81.5097 62.7572C81.8022 63.8745 83.3375 67.4887 83.6751 68.0517C83.7739 68.2158 83.9774 67.8685 83.8913 67.6985" fill="#3B1818"/>
<path d="M71.741 49.4018C71.6381 51.5948 68.0957 51.5748 67.9709 49.4151C67.9662 49.3451 67.8466 49.3889 67.8454 49.4677C67.8217 50.9434 68.957 51.3295 69.9027 51.3609C71.0375 51.3995 71.8774 50.5562 71.8901 49.4233C71.8918 49.27 71.7485 49.2496 71.741 49.4018" fill="#3B1818"/>
<path d="M68.3801 51.4829C68.0397 52.0731 67.646 52.6198 67.1633 53.1019C66.6697 53.595 66.3563 53.854 65.5274 54.2898C65.4563 54.3268 65.4997 54.4447 65.5841 54.4235C66.8974 54.0875 68.0096 52.739 68.4449 51.5106C68.4593 51.4724 68.3998 51.4487 68.3801 51.4829" fill="#3B1818"/>
<path d="M71.349 51.4829C71.6889 52.0731 72.0826 52.6198 72.5653 53.1019C73.0589 53.595 73.3728 53.854 74.2012 54.2898C74.2723 54.3268 74.2295 54.4447 74.1451 54.4235C72.8312 54.0875 71.7184 52.739 71.2831 51.5106C71.2698 51.4724 71.3288 51.4487 71.349 51.4829Z" fill="#3B1818"/>
<path d="M76.6851 47.4831C76.0423 47.8022 75.5649 48.1357 74.951 48.3762C74.333 48.6178 73.6908 48.7093 73.0538 48.8752C72.9815 48.8942 73 48.9965 73.0705 49.0005C74.2174 49.0653 76.0042 48.5156 76.7545 47.6022C76.795 47.5536 76.7562 47.4479 76.6851 47.4831Z" fill="#3B1818"/>
<path d="M78.6517 49.5116C77.747 49.6902 76.8765 49.9435 75.9464 49.9832C75.0168 50.0221 74.1659 49.8232 73.2613 49.6509C73.2335 49.6457 73.2139 49.6839 73.2416 49.699C74.8007 50.5869 77.114 50.3312 78.7043 49.6353C78.7783 49.603 78.7228 49.4983 78.6517 49.5116Z" fill="#3B1818"/>
<path d="M62.9122 47.4831C63.555 47.8022 64.0325 48.1357 64.6464 48.3762C65.2637 48.6178 65.9059 48.7093 66.5435 48.8752C66.6152 48.8942 66.5967 48.9965 66.5268 49.0005C65.3799 49.0653 63.5931 48.5156 62.8422 47.6022C62.8023 47.5536 62.8411 47.4479 62.9122 47.4831" fill="#3B1818"/>
<path d="M60.9453 49.5115C61.8499 49.6902 62.7205 49.9435 63.6506 49.9832C64.5807 50.0221 65.431 49.8232 66.3356 49.6509C66.364 49.6457 66.383 49.6839 66.3559 49.699C64.7963 50.5868 62.4835 50.3312 60.8932 49.6353C60.8192 49.603 60.8747 49.4982 60.9453 49.5115Z" fill="#3B1818"/>
<path d="M69.0496 52.2625C68.6553 53.1944 68.0067 54.05 67.1391 54.7452C66.3119 55.4084 65.4847 55.6575 64.495 55.9662C64.4737 55.9731 64.4771 56.0055 64.5003 56.0055C66.5697 56.0362 68.5628 54.2338 69.0871 52.2869C69.101 52.2336 69.0686 52.2162 69.0496 52.2625" fill="#3B1818"/>
<path d="M70.7183 52.2625C71.112 53.1944 71.7611 54.05 72.6282 54.7452C73.4554 55.4084 74.2832 55.6575 75.2728 55.9662C75.2942 55.9731 75.2902 56.0055 75.2671 56.0055C73.1982 56.0362 71.2045 54.2338 70.6808 52.2869C70.6669 52.2336 70.6987 52.2162 70.7183 52.2625" fill="#3B1818"/>
<path d="M84.1005 85.4131C83.8074 85.5675 83.7918 85.1339 83.8889 85.0569C83.93 85.0188 84.0681 84.9032 84.108 84.8628C84.1652 84.8056 84.2201 84.7454 84.2739 84.6853C84.3733 84.573 84.467 84.4563 84.5566 84.3362C84.7687 84.0546 85.1144 83.4865 85.2711 83.1712C85.2976 83.1171 85.2161 83.0875 85.1838 83.1268C84.9248 83.4413 84.5594 84.0672 84.2987 84.3811C83.8432 84.9287 83.2687 85.0962 82.9334 85.2222C82.5478 85.3674 82.2461 85.4471 82.2154 85.3437C82.1674 85.1877 82.4629 84.9316 82.7577 84.7171C83.0791 84.483 83.4132 84.287 83.6623 84.0627C84.1161 83.6551 84.4525 83.1396 84.8017 82.628C84.8167 82.6065 84.7872 82.5806 84.7681 82.5979C84.33 82.9933 83.9982 83.4806 83.5756 83.9078C83.1565 84.3315 82.057 84.8345 81.7553 84.835C81.5697 84.8356 81.483 84.7217 81.6709 84.56C82.0559 84.228 82.6565 83.813 83.1334 83.3205C83.5548 82.8863 83.8831 82.6384 84.271 82.173C84.3005 82.1377 84.2595 82.0729 84.2282 82.0955C83.8883 82.3419 83.6768 82.6235 83.3479 82.9089C83.3612 82.8922 82.6894 83.2749 82.3201 83.4477C81.9484 83.6222 81.5553 83.906 81.1622 83.8019C81.0431 83.7707 81.0258 83.6488 81.183 83.5102C81.394 83.3239 81.8264 83.1119 81.8721 83.0771C82.4478 82.6361 82.8484 82.177 83.1669 81.7013C83.5236 81.1677 83.7652 80.6337 83.7762 80.4621C83.1877 80.6614 81.7917 81.2239 81.4755 80.3835C82.0877 80.3383 82.664 80.1286 83.1409 79.7313C83.282 79.6146 83.4062 79.4821 83.5259 79.3457C84.3045 79.9441 85.5109 80.5106 86.6046 80.5718C86.1873 82.3489 85.7393 84.55 84.1005 85.4131V85.4131ZM89.9423 75.1703C89.7996 76.9034 89.1862 80.0886 86.989 80.2799C86.1659 80.3516 85.0936 79.8493 84.3964 79.4776C83.3854 78.9377 82.9108 78.337 82.6634 77.2064C81.8784 73.6225 83.2276 70.0645 84.3363 66.718C84.3438 66.6966 84.3103 66.6821 84.2999 66.7025C84.1409 67.0112 83.9958 67.3272 83.8531 67.6459C83.8028 67.7856 83.7484 67.9239 83.675 68.0517C82.9056 69.8644 82.3883 71.8056 82.2108 73.7548C82.0588 75.4127 81.9137 77.9516 83.3051 79.1655C83.3091 79.1689 83.3132 79.1723 83.3172 79.1752C82.7605 79.7654 82.0241 80.1168 81.1894 80.1967C81.1119 80.5921 81.6114 81.0146 81.9131 81.0869C82.3831 81.1984 83.0449 81.0279 83.4877 80.7648C83.2577 81.0453 83.0935 81.3852 82.8918 81.6846C82.59 82.1355 82.2091 82.5234 81.8067 82.8892C81.5888 83.0893 80.4726 83.5477 80.9333 83.9223C81.2605 84.1887 82.2732 83.7518 82.7975 83.4043C82.6553 83.5362 82.1588 84.0056 81.6634 84.3755C81.2264 84.7026 81.431 84.9495 81.7004 84.9754C81.9247 84.9973 82.1854 84.9328 82.3819 84.8379C82.2264 85.0251 81.8385 85.3229 82.0131 85.5235C82.2056 85.7443 83.3022 85.2627 83.671 85.0732C83.5744 85.2893 83.7513 85.7899 83.9993 85.6506C84.482 85.379 85.0074 84.9725 85.3549 84.5378C85.667 84.1487 85.967 83.4777 86.1514 83.0471C86.4827 82.2742 86.7017 81.4534 86.8307 80.5736C87.3116 80.5684 87.7631 80.4585 88.1353 80.1938C89.4949 79.2278 90.2002 76.9034 89.9423 75.1703Z" fill="#3B1818"/>
<path d="M84.1005 85.4131C83.8074 85.5675 83.7918 85.1339 83.8889 85.0569C83.93 85.0188 84.0681 84.9032 84.108 84.8628C84.1652 84.8056 84.2201 84.7454 84.2739 84.6853C84.3733 84.573 84.467 84.4563 84.5566 84.3362C84.7687 84.0546 85.1144 83.4865 85.2711 83.1712C85.2976 83.1171 85.2161 83.0875 85.1838 83.1268C84.9248 83.4413 84.5594 84.0672 84.2987 84.3811C83.8432 84.9287 83.2687 85.0962 82.9334 85.2222C82.5478 85.3674 82.2461 85.4471 82.2154 85.3437C82.1674 85.1877 82.4629 84.9316 82.7577 84.7171C83.0791 84.483 83.4132 84.287 83.6623 84.0627C84.1161 83.6551 84.4525 83.1396 84.8017 82.628C84.8167 82.6065 84.7872 82.5806 84.7681 82.5979C84.33 82.9933 83.9982 83.4806 83.5756 83.9078C83.1565 84.3315 82.057 84.8345 81.7553 84.835C81.5697 84.8356 81.483 84.7217 81.6709 84.56C82.0559 84.228 82.6565 83.813 83.1334 83.3205C83.5548 82.8863 83.8831 82.6384 84.271 82.173C84.3005 82.1377 84.2595 82.0729 84.2282 82.0955C83.8883 82.3419 83.6768 82.6235 83.3479 82.9089C83.3612 82.8922 82.6894 83.2749 82.3201 83.4477C81.9484 83.6222 81.5553 83.906 81.1622 83.8019C81.0431 83.7707 81.0258 83.6488 81.183 83.5102C81.394 83.3239 81.8264 83.1119 81.8721 83.0771C82.4478 82.6361 82.8484 82.177 83.1669 81.7013C83.5236 81.1677 83.7652 80.6337 83.7762 80.4621C83.1877 80.6614 81.7917 81.2239 81.4755 80.3835C82.0877 80.3383 82.664 80.1286 83.1409 79.7313C83.282 79.6146 83.4062 79.4821 83.5259 79.3457C84.3045 79.9441 85.5109 80.5106 86.6046 80.5718C86.1873 82.3489 85.7393 84.55 84.1005 85.4131V85.4131ZM89.9423 75.1703C89.7996 76.9034 89.1862 80.0886 86.989 80.2799C86.1659 80.3516 85.0936 79.8493 84.3964 79.4776C83.3854 78.9377 82.9108 78.337 82.6634 77.2064C81.8784 73.6225 83.2276 70.0645 84.3363 66.718C84.3438 66.6966 84.3103 66.6821 84.2999 66.7025C84.1409 67.0112 83.9958 67.3272 83.8531 67.6459C83.8028 67.7856 83.7484 67.9239 83.675 68.0517C82.9056 69.8644 82.3883 71.8056 82.2108 73.7548C82.0588 75.4127 81.9137 77.9516 83.3051 79.1655C83.3091 79.1689 83.3132 79.1723 83.3172 79.1752C82.7605 79.7654 82.0241 80.1168 81.1894 80.1967C81.1119 80.5921 81.6114 81.0146 81.9131 81.0869C82.3831 81.1984 83.0449 81.0279 83.4877 80.7648C83.2577 81.0453 83.0935 81.3852 82.8918 81.6846C82.59 82.1355 82.2091 82.5234 81.8067 82.8892C81.5888 83.0893 80.4726 83.5477 80.9333 83.9223C81.2605 84.1887 82.2732 83.7518 82.7975 83.4043C82.6553 83.5362 82.1588 84.0056 81.6634 84.3755C81.2264 84.7026 81.431 84.9495 81.7004 84.9754C81.9247 84.9973 82.1854 84.9328 82.3819 84.8379C82.2264 85.0251 81.8385 85.3229 82.0131 85.5235C82.2056 85.7443 83.3022 85.2627 83.671 85.0732C83.5744 85.2893 83.7513 85.7899 83.9993 85.6506C84.482 85.379 85.0074 84.9725 85.3549 84.5378C85.667 84.1487 85.967 83.4777 86.1514 83.0471C86.4827 82.2742 86.7017 81.4534 86.8307 80.5736C87.3116 80.5684 87.7631 80.4585 88.1353 80.1938C89.4949 79.2278 90.2002 76.9034 89.9423 75.1703Z" fill="#3B1818"/>
<path d="M52.3443 63.0851C53.2131 60.3104 54.8906 55.6505 55.8739 52.6701C55.9704 52.6701 56.1288 52.6701 56.3716 52.6701C56.4722 52.7313 56.467 52.7338 56.6185 52.7394C57.289 52.7654 58.2596 52.7771 58.4232 52.8009C58.8972 53.3823 59.5891 54.7967 59.0475 59.3277C58.5977 63.0907 56.5474 66.9563 56.1953 67.9894C56.9757 69.8009 57.7445 73.0645 57.6746 75.3647C57.6382 76.5855 57.6341 77.1023 57.1376 78.233C56.5936 79.4706 55.2132 80.0116 53.2646 80.4013C52.1917 80.3221 51.2593 79.6325 50.7026 78.4567C50.4118 77.8416 50.1558 77.1357 50.0003 76.4353C50.0286 70.8401 51.4327 65.9962 52.3443 63.0851Z" fill="#FBED81"/>
<path d="M56.4745 79.1585C56.4745 79.1585 55.4924 79.7596 54.7305 80.0204C53.968 80.2816 53.2454 80.3781 53.2454 80.3781C53.2454 80.3781 53.616 83.1489 54.5143 84.291C55.4114 85.4338 55.993 85.5743 56.0733 85.5546C56.1542 85.5338 56.1941 84.9732 56.1941 84.9732C56.1941 84.9732 56.4543 85.1529 57.056 85.3137C57.6572 85.4738 57.8173 85.5338 57.8381 85.3934C57.8578 85.2536 57.4167 84.7123 57.4167 84.7123C57.4167 84.7123 58.1584 84.9732 58.359 84.8727C58.5601 84.772 58.2491 84.4218 58.2491 84.4218L56.8756 83.1886C56.8756 83.1886 58.0676 83.7425 58.3896 83.8297C58.7202 83.92 59.0607 83.9501 59.0411 83.7296C59.0208 83.5095 58.267 83.1186 57.9584 82.8673C56.7254 81.8654 56.3843 80.7025 56.3843 80.7025C56.3843 80.7025 57.1762 81.0031 57.6173 81.0031C58.0584 81.0031 58.5601 80.7222 58.6196 80.5014C58.6803 80.2816 58.6803 80.2816 58.6803 80.2816C58.6803 80.2816 57.7179 80.3412 57.2965 79.9204C56.8757 79.4995 56.4745 79.1585 56.4745 79.1585" fill="#FCD0B0"/>
<path d="M50.7685 78.6324C52.9206 79.1382 55.8149 78.5798 57.6208 76.2438C57.6531 76.2023 57.7185 76.2282 57.7063 76.2808C57.5421 77.0267 56.2334 78.1225 55.138 78.5497C53.8755 79.0429 51.9951 79.392 50.8222 78.7753C50.7384 78.7313 50.6719 78.6093 50.7685 78.6324" fill="#EE232C"/>
<path d="M50.2084 76.5342C52.9275 76.3838 55.7415 75.4075 57.6416 73.3935C57.6815 73.3508 57.7503 73.405 57.7208 73.4547C56.3681 75.7509 52.664 76.6451 50.2084 76.7896C50.0442 76.7995 50.0448 76.5432 50.2084 76.5342Z" fill="#EE232C"/>
<path d="M55.2415 76.3791C55.3935 76.7925 55.9051 76.8388 56.1947 76.5617C56.3548 76.4086 56.4092 76.2029 56.467 75.9977C56.5357 75.7524 56.5647 75.4964 56.7329 75.2918C56.9837 74.9854 57.4242 74.9391 57.6936 75.2426C57.715 75.267 57.6884 75.3018 57.6589 75.2873C57.2445 75.0762 56.8924 75.353 56.7739 75.752C56.7126 75.9554 56.6924 76.17 56.608 76.3664C56.5115 76.5906 56.3485 76.7954 56.1265 76.9052C55.6929 77.1186 55.2172 76.8607 55.212 76.3827C55.212 76.3653 55.2363 76.3635 55.2415 76.3791" fill="#EE232C"/>
<path d="M53.4004 77.2509C53.5525 77.6648 54.0635 77.7104 54.3531 77.434C54.5138 77.2802 54.5675 77.0752 54.6247 76.8699C54.6935 76.6236 54.723 76.3687 54.8918 76.1641C55.1427 75.8577 55.5826 75.8116 55.852 76.1149C55.8728 76.1393 55.8462 76.174 55.8179 76.1596C55.4034 75.948 55.0508 76.2253 54.9317 76.6236C54.8716 76.8277 54.8508 77.0423 54.7664 77.2387C54.6698 77.4629 54.5068 77.6677 54.2848 77.7775C53.8513 77.9909 53.3761 77.7323 53.3704 77.255C53.3704 77.2376 53.3946 77.2358 53.4004 77.2509" fill="#EE232C"/>
<path d="M56.9739 60.1171C56.9814 60.1011 57.0039 60.1104 57.0022 60.1264C56.9519 60.5647 57.3889 60.8345 57.7722 60.7178C57.9843 60.6532 58.1248 60.4924 58.2682 60.3357C58.4398 60.1467 58.5803 59.931 58.8231 59.8236C58.8745 59.8005 58.9271 59.7861 58.9797 59.7757C58.9717 59.8658 58.9601 59.9554 58.9491 60.0462C58.8422 60.0918 58.7398 60.1607 58.6526 60.2531C58.5075 60.4079 58.3924 60.5906 58.2283 60.7281C58.0421 60.8855 57.8046 60.9952 57.5566 60.9935C57.0739 60.9901 56.764 60.5468 56.9739 60.1171" fill="#EE232C"/>
<path d="M54.9005 59.7784C54.8329 60.2145 55.2595 60.5017 55.6468 60.3994C55.8607 60.3427 56.0081 60.1889 56.156 60.0374C56.3358 59.8554 56.485 59.6457 56.7318 59.5472C57.0983 59.4011 57.5064 59.5739 57.596 59.9692C57.6023 60.0011 57.5625 60.0185 57.5445 59.9918C57.2838 59.6061 56.841 59.6791 56.5445 59.9704C56.393 60.1189 56.2711 60.2971 56.1023 60.4283C55.9092 60.578 55.6682 60.678 55.4202 60.667C54.9381 60.6444 54.6462 60.1889 54.8728 59.7676C54.8809 59.7524 54.9028 59.7624 54.9005 59.7784" fill="#EE232C"/>
<path d="M53.4616 59.7113C53.5287 59.7254 53.5524 59.7531 53.6224 59.7443C53.8426 59.7165 54.0085 59.5838 54.1761 59.4537C54.3779 59.297 54.5536 59.1096 54.8108 59.045C55.1947 58.949 55.5762 59.1744 55.6115 59.5779C55.6143 59.6102 55.5721 59.622 55.5577 59.5935C55.3507 59.1766 54.9028 59.1895 54.5692 59.4392C54.3993 59.5664 54.2397 59.7035 54.0698 59.834C53.6443 60.1593 53.3668 59.9796 53.3622 59.9791C53.3836 59.8976 53.4385 59.7913 53.4616 59.7113" fill="#EE232C"/>
<path d="M51.3176 77.6307C51.3731 78.0672 51.8616 78.2273 52.2055 78.0225C52.3969 77.9093 52.4951 77.7208 52.5969 77.5347C52.7194 77.3105 52.8056 77.0675 53.0154 76.9059C53.3287 76.664 53.768 76.7184 53.9628 77.0741C53.9779 77.1023 53.9438 77.1301 53.9189 77.1093C53.5628 76.8103 53.157 77.0019 52.9518 77.3636C52.8472 77.5481 52.779 77.7526 52.6518 77.9249C52.5079 78.1221 52.3026 78.2844 52.0616 78.3417C51.5916 78.4526 51.1864 78.0943 51.2887 77.6278C51.2922 77.6099 51.3159 77.614 51.3176 77.6307" fill="#EE232C"/>
<path d="M50.5152 77.7567C50.6378 77.5329 50.7233 77.2909 50.9332 77.1283C51.2465 76.8867 51.6858 76.9404 51.88 77.2965C51.8957 77.3243 51.8621 77.3525 51.8373 77.3317C51.4806 77.033 51.0748 77.2242 50.8696 77.5855C50.7644 77.7705 50.6968 77.9753 50.5696 78.1473C50.5332 78.1977 50.4684 77.8434 50.5152 77.7567" fill="#EE232C"/>
<path d="M57.2439 75.4416C57.3642 75.6208 57.5474 75.6935 57.7283 75.6827C57.9168 75.6698 57.8798 75.927 57.7075 75.904C57.4809 75.8739 57.2832 75.715 57.2162 75.4519C57.2121 75.4352 57.2353 75.4277 57.2439 75.4416Z" fill="#EE232C"/>
<path d="M54.6478 56.2719C56.1658 56.964 57.5757 57.3449 59.17 57.6166C59.1706 57.6755 59.1775 57.7356 59.1769 57.794C57.5948 57.8223 55.9051 57.2894 54.5536 56.5287C54.5895 56.4609 54.6149 56.3667 54.6478 56.2719" fill="#EE232C"/>
<path d="M59.0387 59.0802C57.5786 59.5039 55.4398 58.7589 54.0466 58.056C54.0622 57.9796 54.0778 57.8963 54.1114 57.8234C55.675 58.4837 57.3416 59.034 59.0515 58.9114C59.0474 58.9675 59.0428 59.0243 59.0387 59.0802" fill="#EE232C"/>
<path d="M53.1259 60.69C54.5259 61.6786 56.8879 61.9802 58.6007 61.726C58.5856 61.7849 58.5694 61.8445 58.5544 61.9039C57.7711 62.1536 56.6283 62.1099 55.7994 61.9739C54.9074 61.8283 53.564 61.3809 53.0611 60.8937C53.1027 60.8415 53.0918 60.7821 53.1259 60.69Z" fill="#EE232C"/>
<path d="M52.7351 61.8716C54.1444 62.8665 56.5538 63.1797 58.2712 62.9169C58.2538 62.9733 58.2382 63.0306 58.2215 63.0867C57.4376 63.349 56.2757 63.3071 55.4358 63.1693C54.5439 63.0237 53.1669 62.5716 52.6634 62.0838C52.6941 61.9728 52.7004 61.9642 52.7351 61.8716" fill="#EE232C"/>
<path d="M56.8583 79.7313C57.3352 80.1286 57.9127 80.3383 58.5237 80.3835C58.2075 81.2239 56.8121 80.6614 56.2242 80.4621C56.2346 80.6337 56.4757 81.1677 56.8323 81.7008C57.1514 82.177 57.552 82.6361 58.1283 83.0771C58.1734 83.1119 58.6064 83.3239 58.8168 83.5102C58.974 83.6488 58.9567 83.7707 58.837 83.8019C58.4445 83.906 58.0515 83.6222 57.6798 83.4477C57.3104 83.2749 56.6381 82.8922 56.652 82.9089C56.3236 82.6235 56.1109 82.3419 55.7716 82.0955C55.741 82.0729 55.6993 82.1377 55.7282 82.173C56.1161 82.6384 56.4445 82.8863 56.8659 83.3205C57.3433 83.813 57.9439 84.228 58.3289 84.56C58.5162 84.7217 58.4295 84.8356 58.2451 84.835C57.9428 84.8345 56.8433 84.3315 56.4242 83.9078C56.0017 83.4806 55.6704 82.9933 55.2323 82.5979C55.2132 82.5806 55.1837 82.6065 55.1982 82.628C55.5479 83.1396 55.8843 83.6551 56.3375 84.0627C56.5872 84.287 56.9214 84.483 57.2416 84.7171C57.5364 84.9316 57.8324 85.1877 57.785 85.3437C57.7532 85.4471 57.452 85.3674 57.0664 85.2222C56.7312 85.0962 56.1566 84.9287 55.7011 84.3811C55.4398 84.0672 55.0745 83.4413 54.8161 83.1268C54.7831 83.0875 54.7022 83.1171 54.7294 83.1712C54.8849 83.4865 55.2317 84.0546 55.4427 84.3362C55.5323 84.4563 55.6259 84.573 55.7254 84.6853C55.7797 84.7454 55.8352 84.8056 55.8918 84.8628C55.9317 84.9027 56.0699 85.0188 56.1103 85.0569C56.208 85.1339 56.1924 85.5675 55.8988 85.4131C54.2606 84.55 53.8126 82.3489 53.3952 80.5718C54.4895 80.5106 55.6959 79.9441 56.4739 79.3457C56.5936 79.4821 56.7173 79.6146 56.8583 79.7313V79.7313ZM59.4382 52.7175C59.3741 52.7272 59.3093 52.7349 59.2446 52.7435C59.2446 52.7446 59.2446 52.7457 59.2451 52.7476C59.5006 53.9985 59.4058 55.2766 59.211 56.7754C59.0434 58.0612 58.8497 59.416 58.5948 60.7022C58.0948 63.2301 57.2162 65.3881 56.1762 67.7118C56.1676 67.6892 56.1549 67.6689 56.1468 67.6459C56.0046 67.3272 55.8589 67.0112 55.6999 66.7025C55.6895 66.6821 55.656 66.6961 55.6635 66.718C55.7976 67.1238 55.9358 67.5325 56.0728 67.9441C56.0699 67.9498 56.0676 67.9552 56.0647 67.9609C56.0577 67.9776 56.0728 67.9909 56.0878 67.9894C57.0774 70.9593 58.0225 74.0727 57.3364 77.2064C57.0896 78.337 56.6138 78.9377 55.6028 79.4776C54.9062 79.8493 53.8334 80.3516 53.0102 80.2799C50.813 80.0886 50.2008 76.9034 50.0581 75.1703C49.7991 76.9034 50.5049 79.2278 51.8645 80.1938C52.2362 80.4585 52.6882 80.5684 53.1686 80.5736C53.2975 81.4534 53.5166 82.2742 53.8478 83.0471C54.0334 83.4777 54.3328 84.1487 54.645 84.5378C54.993 84.9725 55.5173 85.379 56.0005 85.6506C56.2485 85.7899 56.4254 85.2893 56.3283 85.0732C56.6971 85.2627 57.7936 85.7443 57.9861 85.5235C58.1613 85.3229 57.7734 85.0251 57.6179 84.8373C57.815 84.9328 58.0752 84.9973 58.2989 84.9754C58.5688 84.9495 58.7734 84.7026 58.3359 84.3755C57.841 84.0056 57.3439 83.5362 57.2023 83.4043C57.726 83.7518 58.7388 84.1887 59.0671 83.9223C59.5272 83.5477 58.4116 83.0893 58.1925 82.8892C57.7913 82.5234 57.4092 82.1355 57.1075 81.6846C56.9063 81.3852 56.7421 81.0453 56.5121 80.7648C56.9543 81.0279 57.6167 81.1984 58.0861 81.0869C58.389 81.0146 58.8879 80.5921 58.8099 80.1967C57.9757 80.1168 57.2387 79.7654 56.6832 79.1752C56.6861 79.1723 56.6907 79.1689 56.6948 79.1655C58.0861 77.9516 57.9405 75.4127 57.7896 73.7548C57.6116 71.8056 57.0942 69.8644 56.3242 68.0517C56.2832 67.9787 56.256 67.8997 56.2242 67.8222C57.9214 65.7331 58.4625 62.5965 58.9451 60.0422C59.2139 58.6207 60.003 54.6685 59.4463 52.7476C59.4428 52.7354 59.4405 52.729 59.4382 52.7175" fill="#3B1818"/>
<path d="M59.84 36.4111C58.7897 35.1573 57.0942 37.7146 56.8907 38.5146C57.274 38.1655 57.9289 37.4938 58.0919 37.414C58.4526 37.2383 58.8272 37.5498 58.6469 37.936C58.3798 38.5088 57.7613 38.9459 57.2751 39.3066C58.2972 39.3413 60.9684 37.7568 59.84 36.4111" fill="#51AD37"/>
<path d="M59.84 44.2813C58.7897 45.5351 57.0942 42.9784 56.8907 42.1778C57.274 42.5275 57.9289 43.1992 58.0919 43.279C58.4526 43.4547 58.8272 43.1426 58.6469 42.757C58.3798 42.1841 57.7613 41.7471 57.2751 41.3864C58.2972 41.3512 60.9684 42.9362 59.84 44.2813" fill="#51AD37"/>
<path d="M57.3947 40.2424C57.3947 40.2424 59.4925 39.3239 59.5266 40.2424C59.5596 41.1615 57.3947 40.2424 57.3947 40.2424Z" fill="#FAD10F"/>
<path d="M57.3947 36.2596C57.3947 36.2596 58.0318 34.0595 58.759 34.622C59.4862 35.1844 57.3947 36.2596 57.3947 36.2596Z" fill="#FAD10F"/>
<path d="M57.3947 44.2362C57.3947 44.2362 58.0318 46.437 58.759 45.8745C59.4862 45.312 57.3947 44.2362 57.3947 44.2362Z" fill="#FAD10F"/>
<path d="M80.0094 36.4111C81.0598 35.1573 82.7558 37.7146 82.9593 38.5146C82.576 38.1655 81.9211 37.4938 81.7581 37.414C81.3968 37.2383 81.0228 37.5498 81.2031 37.936C81.4696 38.5088 82.0887 38.9459 82.5754 39.3066C81.5528 39.3413 78.8817 37.7568 80.0094 36.4111" fill="#51AD37"/>
<path d="M80.0094 44.2813C81.0598 45.5352 82.7558 42.9784 82.9593 42.1778C82.576 42.5275 81.9211 43.1992 81.7581 43.279C81.3968 43.4547 81.0228 43.1426 81.2031 42.757C81.4696 42.1841 82.0887 41.7471 82.5754 41.3864C81.5528 41.3512 78.8817 42.9362 80.0094 44.2813" fill="#51AD37"/>
<path d="M82.4559 40.2424C82.4559 40.2424 80.3575 39.3239 80.324 40.2424C80.2899 41.1616 82.4559 40.2424 82.4559 40.2424Z" fill="#FAD10F"/>
<path d="M82.4557 36.2596C82.4557 36.2596 81.8187 34.0595 81.091 34.622C80.3632 35.1844 82.4557 36.2596 82.4557 36.2596Z" fill="#FAD10F"/>
<path d="M66.3604 26.5338C66.3604 26.5338 64.1557 27.1535 64.7124 27.8853C65.269 28.6177 66.3604 26.5338 66.3604 26.5338Z" fill="#FAD10F"/>
<path d="M67.9067 26.7824C67.9067 26.7824 66.4245 28.5287 67.2957 28.8241C68.1662 29.12 67.9067 26.7824 67.9067 26.7824Z" fill="#FAD10F"/>
<path d="M71.8242 26.7824C71.8242 26.7824 73.3051 28.5287 72.4352 28.8241C71.564 29.12 71.8242 26.7824 71.8242 26.7824Z" fill="#FAD10F"/>
<path d="M69.8479 26.9754C69.8479 26.9754 70.7843 29.0657 69.8658 29.1067C68.9467 29.1484 69.8479 26.9754 69.8479 26.9754Z" fill="#FAD10F"/>
<path d="M73.5612 26.5338C73.5612 26.5338 75.7659 27.1535 75.2092 27.8853C74.6526 28.6177 73.5612 26.5338 73.5612 26.5338Z" fill="#FAD10F"/>
<path d="M82.4557 44.2363C82.4557 44.2363 81.8187 46.437 81.091 45.8745C80.3632 45.312 82.4557 44.2363 82.4557 44.2363Z" fill="#FAD10F"/>
<path d="M75.5069 68.3899C75.6775 67.6111 76.0775 65.8846 74.9109 65.622C73.7161 65.3533 72.9282 67.0945 72.686 67.9627C72.2577 69.4957 72.5085 72.2789 72.9207 73.5414C73.6941 72.5212 75.1699 69.9297 75.5069 68.3899Z" fill="#51AD37"/>
<path d="M61.1446 73.6762C60.3856 73.4323 58.7057 72.8687 58.3329 74.0057C57.9514 75.1692 59.6098 76.1196 60.4503 76.4435C61.9354 77.0156 64.7297 77.0319 66.0268 76.7417C65.0846 75.8746 62.6458 74.1583 61.1446 73.6762Z" fill="#51AD37"/>
<path d="M59.6712 68.6279C59.0972 68.0731 57.8399 66.8255 57.0023 67.6807C56.1462 68.5552 57.2133 70.1412 57.8237 70.8033C58.9029 71.9732 61.4025 73.2234 62.6938 73.5362C62.232 72.3415 60.8036 69.7246 59.6712 68.6279" fill="#51AD37"/>
<path d="M79.6985 71.5281C80.3118 71.0171 81.6858 69.8996 80.9251 68.9761C80.1465 68.0313 78.4562 68.9235 77.7331 69.4605C76.4544 70.4084 74.9451 72.7606 74.4965 74.0115C75.7336 73.6791 78.488 72.5375 79.6985 71.5281Z" fill="#51AD37"/>
<path d="M67.7454 70.3216C67.6061 69.5368 67.317 67.7881 66.1378 67.9916C64.9314 68.1991 64.8678 70.109 64.9748 71.0038C65.1644 72.5842 66.4592 75.0606 67.3228 76.0704C67.6471 74.8323 68.0223 71.8743 67.7454 70.3216" fill="#51AD37"/>
<path d="M64.0493 67.3376C63.91 66.5528 63.621 64.8041 62.4412 65.0071C61.2353 65.2147 61.1712 67.1249 61.2787 68.0198C61.4683 69.6002 62.7626 72.0766 63.6262 73.086C63.9511 71.8479 64.3256 68.8898 64.0493 67.3376" fill="#51AD37"/>
<path d="M69.9935 94.4949C69.5223 95.1384 68.457 96.5547 69.4177 97.2666C70.401 97.9969 71.8265 96.724 72.3999 96.029C73.4121 94.8006 74.311 92.1544 74.4445 90.8324C73.3242 91.4526 70.9253 93.2232 69.9935 94.4949Z" fill="#51AD37"/>
<path d="M79.1939 87.9357C79.8829 88.337 81.4032 89.2478 82.0113 88.2177C82.6333 87.1635 81.2182 85.8789 80.4668 85.3819C79.139 84.5037 76.4134 83.8882 75.085 83.8934C75.8186 84.9425 77.832 87.1427 79.1939 87.9357Z" fill="#51AD37"/>
<path d="M79.5493 93.1827C79.9904 93.8468 80.9511 95.3366 81.9517 94.6816C82.976 94.0112 82.2749 92.2323 81.8205 91.4549C81.0176 90.0804 78.8452 88.323 77.651 87.7398C77.8458 89.0051 78.6788 91.8683 79.5493 93.1827" fill="#51AD37"/>
<path d="M59.4001 89.3895C58.6128 89.5195 56.8613 89.7862 57.0486 90.9672C57.241 92.1763 59.1504 92.2648 60.0464 92.1689C61.6291 92 64.1223 90.7375 65.1431 89.8871C63.9089 89.5462 60.9556 89.1334 59.4001 89.3895" fill="#51AD37"/>
<path d="M65.5009 94.5367C65.4078 95.3286 65.1795 97.0857 66.3668 97.232C67.5819 97.3822 68.1952 95.572 68.3501 94.6845C68.6259 93.1163 68.1021 90.3717 67.5674 89.1548C66.898 90.2472 65.6847 92.9707 65.5009 94.5367Z" fill="#51AD37"/>
<path d="M60.2845 94.1209C59.6868 94.6486 58.3439 95.8055 59.1301 96.7066C59.9359 97.6286 61.5996 96.6892 62.3083 96.1319C63.5592 95.1481 65.0009 92.755 65.4142 91.4915C64.187 91.8584 61.466 93.0775 60.2845 94.1209" fill="#51AD37"/>
<path d="M61.3197 84.9714C60.5665 84.7097 58.9 84.1079 58.5011 85.2355C58.093 86.3894 59.7283 87.3785 60.5619 87.7219C62.0331 88.3281 64.8262 88.4093 66.1292 88.1484C65.2072 87.2599 62.8088 85.4876 61.3197 84.9714Z" fill="#51AD37"/>
<path d="M74.996 93.5025C74.9643 94.2996 74.8706 96.0689 76.0655 96.1238C77.2886 96.18 77.7609 94.3278 77.8488 93.4318C78.0025 91.8469 77.2707 89.1501 76.6441 87.9784C76.0608 89.1189 75.0596 91.9273 74.996 93.5025" fill="#51AD37"/>
<path d="M74.4722 76.2312C74.4092 76.8537 73.8531 77.3076 73.23 77.2446C72.6062 77.1805 72.1531 76.6243 72.2166 76.0011C72.2797 75.3785 72.8363 74.9247 73.4589 74.9877C74.082 75.0514 74.5352 75.6079 74.4722 76.2312Z" fill="white"/>
<path d="M75.3007 72.9848C75.2093 73.879 74.4099 74.5311 73.515 74.4403C72.6196 74.3496 71.9676 73.5502 72.0589 72.6547C72.1497 71.7593 72.9491 71.1079 73.8439 71.1991C74.7394 71.2899 75.3914 72.0895 75.3007 72.9848Z" fill="#EE232C"/>
<path d="M72.7167 78.8632C72.626 79.758 71.8265 80.4099 70.9311 80.3191C70.0363 80.2284 69.3842 79.429 69.475 78.5337C69.5663 77.6388 70.3658 76.9867 71.2606 77.0779C72.156 77.1687 72.8075 77.9683 72.7167 78.8632" fill="#EE232C"/>
<path d="M76.6845 79.2666C76.5937 80.162 75.7943 80.8134 74.8989 80.7222C74.0035 80.6314 73.352 79.8319 73.4433 78.937C73.5341 78.0424 74.3335 77.3902 75.2289 77.481C76.1232 77.5722 76.7752 78.3718 76.6845 79.2666Z" fill="#EE232C"/>
<path d="M70.2918 76.6681C69.3964 76.5769 68.7443 75.778 68.8351 74.8827C68.9258 73.9871 69.7258 73.3357 70.6207 73.4265C71.5161 73.5172 72.1681 74.3166 72.0762 75.2121C71.9855 76.107 71.186 76.7589 70.2918 76.6681Z" fill="#EE232C"/>
<path d="M76.1879 77.2676C75.2925 77.1757 74.6404 76.3768 74.7312 75.482C74.8225 74.5866 75.622 73.9345 76.5168 74.0253C77.4122 74.1172 78.0643 74.9161 77.9735 75.8109C77.8816 76.7062 77.0827 77.3584 76.1879 77.2676" fill="#EE232C"/>
<path d="M64.7327 79.1752C64.9986 79.7429 64.7541 80.4176 64.187 80.6833C63.6205 80.9487 62.9453 80.7041 62.68 80.1378C62.4141 79.5701 62.658 78.895 63.2257 78.6297C63.7922 78.3636 64.4673 78.6087 64.7327 79.1752Z" fill="white"/>
<path d="M63.7765 75.9647C64.158 76.7799 63.8065 77.7497 62.9921 78.1306C62.177 78.5123 61.2076 78.1613 60.8261 77.3462C60.444 76.5313 60.7954 75.5619 61.6105 75.1796C62.425 74.7986 63.395 75.1502 63.7765 75.9647Z" fill="#EE232C"/>
<path d="M64.5783 82.336C64.9598 83.1505 64.6089 84.1205 63.7933 84.5022C62.9788 84.8835 62.0088 84.5326 61.6273 83.7177C61.2458 82.9033 61.5973 81.9332 62.4123 81.5516C63.2268 81.1702 64.1968 81.5211 64.5783 82.336Z" fill="#EE232C"/>
<path d="M68.1899 80.6447C68.5714 81.4597 68.2205 82.429 67.4054 82.8113C66.5904 83.1927 65.6204 82.8414 65.2389 82.0262C64.8574 81.2117 65.2094 80.2417 66.0239 79.8603C66.8384 79.4787 67.8083 79.8296 68.1899 80.6447" fill="#EE232C"/>
<path d="M61.3695 81.6979C60.555 82.0795 59.585 81.7279 59.2035 80.9128C58.822 80.0983 59.1729 79.1285 59.9879 78.7468C60.803 78.3655 61.7724 78.7168 62.1539 79.5313C62.536 80.3464 62.1846 81.3162 61.3695 81.6979" fill="#EE232C"/>
<path d="M66.7366 79.184C65.9222 79.5654 64.9522 79.2145 64.5707 78.4C64.1891 77.5851 64.54 76.615 65.3557 76.2334C66.1701 75.8514 67.1395 76.2034 67.5216 77.0179C67.9032 77.8324 67.5517 78.8024 66.7366 79.184Z" fill="#EE232C"/>
<path d="M73.3243 85.9184C73.5896 86.4854 73.3451 87.1598 72.778 87.4259C72.211 87.6912 71.5364 87.4466 71.2705 86.8801C71.0051 86.3124 71.2497 85.6372 71.8161 85.372C72.3838 85.1066 73.059 85.3512 73.3243 85.9184" fill="white"/>
<path d="M72.367 82.7072C72.7491 83.5222 72.3977 84.4922 71.5832 84.8738C70.7681 85.2547 69.7981 84.9039 69.4166 84.0887C69.0351 83.2738 69.3866 82.3042 70.2011 81.9228C71.0161 81.5412 71.9855 81.8928 72.367 82.7072Z" fill="#EE232C"/>
<path d="M73.1694 89.0785C73.5509 89.893 73.1995 90.8631 72.385 91.2444C71.5699 91.6267 70.6005 91.2752 70.219 90.46C69.8369 89.6455 70.1884 88.6757 71.0028 88.2941C71.8179 87.9127 72.7879 88.2634 73.1694 89.0785" fill="#EE232C"/>
<path d="M76.781 87.3877C77.1626 88.2022 76.8117 89.1716 75.9966 89.5536C75.1821 89.9352 74.2122 89.5837 73.8306 88.7687C73.4485 87.9542 73.8 86.9842 74.6151 86.6028C75.4295 86.2212 76.3995 86.5721 76.781 87.3877Z" fill="#EE232C"/>
<path d="M69.9604 88.4404C69.1454 88.8218 68.1754 88.4704 67.7945 87.6553C67.4129 86.8408 67.7644 85.8709 68.5789 85.4894C69.3939 85.1077 70.3639 85.4593 70.7454 86.2738C71.1264 87.089 70.7749 88.0588 69.9604 88.4404" fill="#EE232C"/>
<path d="M75.3279 85.927C74.5134 86.3079 73.544 85.957 73.1619 85.1425C72.7804 84.3274 73.1318 83.3576 73.9463 82.9759C74.7614 82.595 75.7314 82.9459 76.1129 83.7604C76.4944 84.5755 76.1429 85.5454 75.3279 85.927" fill="#EE232C"/>
</g>
<defs>
<filter id="filter0_d_2_148" x="0" y="15.5083" width="140" height="177.881" filterUnits="userSpaceOnUse" color-interpolation-filters="sRGB">
<feFlood flood-opacity="0" result="BackgroundImageFix"/>
<feColorMatrix in="SourceAlpha" type="matrix" values="0 0 0 0 0 0 0 0 0 0 0 0 0 0 0 0 0 0 127 0" result="hardAlpha"/>
<feOffset dy="40"/>
<feGaussianBlur stdDeviation="25"/>
<feComposite in2="hardAlpha" operator="out"/>
<feColorMatrix type="matrix" values="0 0 0 0 1 0 0 0 0 1 0 0 0 0 1 0 0 0 0.25 0"/>
<feBlend mode="normal" in2="BackgroundImageFix" result="effect1_dropShadow_2_148"/>
<feBlend mode="normal" in="SourceGraphic" in2="effect1_dropShadow_2_148" result="shape"/>
</filter>
</defs>
</svg>
