<svg width="122" height="145" viewBox="0 0 122 145" fill="none" xmlns="http://www.w3.org/2000/svg">
<circle cx="60.5" cy="32.5" r="32.5" fill="url(#paint0_linear_388_51)" fill-opacity="0.75"/>
<g filter="url(#filter0_d_388_51)">
<path d="M60.9669 26.9628C60.9669 26.9628 60.9643 26.9673 60.9605 26.9742C60.9643 26.9673 60.9669 26.9628 60.9669 26.9628C60.9669 26.9628 60.972 26.9542 60.9758 26.9475C60.972 26.9542 60.9669 26.9628 60.9669 26.9628ZM69.8168 50.4904C69.8919 50.2752 69.9669 50.0565 70.0407 49.8364C70.0709 49.7471 70.1014 49.6581 70.131 49.5682C70.4476 48.614 70.7436 47.6386 70.9649 46.7439C71.1502 45.9958 71.3372 45.1212 71.5003 44.229C71.8665 42.7803 72.0067 41.356 71.9998 40.0098C71.9842 36.9325 71.2161 34.2667 70.7105 32.6668C70.6428 32.4529 70.5795 32.2554 70.5236 32.0812C70.0696 30.6632 69.2779 28.5912 68.7692 26.939H53.2316C52.7229 28.5912 51.9309 30.6632 51.4772 32.0812C51.4222 32.2535 51.3593 32.4481 51.2925 32.6593C50.8468 34.069 50.1944 36.3104 50.0354 38.9334C49.9912 39.6652 49.9858 40.4272 50.0338 41.209C50.1035 42.9236 50.353 44.9292 50.8989 46.899C51.0868 47.5762 51.4117 48.5425 51.7767 49.5682C51.8085 49.6571 51.8406 49.7468 51.8731 49.8364C51.9506 50.0536 52.0295 50.272 52.1093 50.4904C52.4148 51.3272 52.727 52.1577 52.997 52.8663H68.9425C69.208 52.1773 69.5138 51.3584 69.8168 50.4904" fill="#5665B9"/>
<path d="M53.7577 54.8347H68.1562C68.1562 54.8347 68.373 54.319 68.6938 53.5054H53.2417C53.5491 54.305 53.7577 54.8347 53.7577 54.8347Z" fill="#5665B9"/>
<path d="M52.9968 52.8663C53.0833 53.0934 53.1653 53.3076 53.2413 53.5054H68.6935C68.771 53.3086 68.8543 53.095 68.9424 52.8663H52.9968" fill="#EE232C"/>
<path d="M70.7105 32.6673C70.2327 31.1412 69.31 28.5782 68.7692 26.939C68.5537 26.939 67.5678 26.9184 67.4209 26.9396C67.1605 27.2598 66.7259 28.1087 67.0238 30.6007C67.2708 32.6703 68.3985 34.7964 68.5925 35.3646C68.1633 36.361 67.7404 38.1559 67.7786 39.4211C67.7989 40.0925 67.8011 40.3767 68.0742 40.9986C68.3731 41.6793 69.1329 41.9768 70.2044 42.1912C70.7944 42.1476 71.3076 41.7683 71.6135 41.1216C71.7734 40.7833 71.9145 40.3951 71.9997 40.0099C71.9842 36.9325 71.2119 34.2683 70.7105 32.6673" fill="#FBED81"/>
<path d="M68.4389 41.5076C68.4389 41.5076 68.979 41.8383 69.3984 41.9817C69.8171 42.1254 70.2145 42.1784 70.2145 42.1784C70.2145 42.1784 70.011 43.7024 69.5173 44.3305C69.0232 44.9591 68.7034 45.0363 68.6592 45.0255C68.6153 45.0141 68.5931 44.7057 68.5931 44.7057C68.5931 44.7057 68.4497 44.8046 68.119 44.893C67.7881 44.981 67.7 45.0141 67.6892 44.9368C67.6781 44.86 67.9203 44.5623 67.9203 44.5623C67.9203 44.5623 67.5124 44.7057 67.4021 44.6505C67.2921 44.5951 67.4631 44.4024 67.4631 44.4024L68.2182 43.7242C68.2182 43.7242 67.5623 44.0289 67.3859 44.0768C67.2037 44.1265 67.0164 44.143 67.0276 44.0218C67.0384 43.9007 67.4533 43.6857 67.6231 43.5475C68.3012 42.9964 68.4885 42.3569 68.4885 42.3569C68.4885 42.3569 68.0529 42.5222 67.8103 42.5222C67.5677 42.5222 67.2921 42.3677 67.2587 42.2462C67.226 42.1254 67.226 42.1254 67.226 42.1254C67.226 42.1254 67.7553 42.1582 67.9868 41.9267C68.2182 41.6952 68.4389 41.5076 68.4389 41.5076" fill="#FCD0B0"/>
<path d="M71.5773 41.2182C70.394 41.4964 68.8021 41.1893 67.8085 39.9045C67.7907 39.8817 67.7551 39.8959 67.7612 39.9249C67.8518 40.3351 68.5713 40.9378 69.1744 41.1727C69.8681 41.444 70.9027 41.636 71.5477 41.2968C71.5938 41.2726 71.6301 41.2055 71.5773 41.2182" fill="#EE232C"/>
<path d="M71.885 40.0642C70.3898 39.9815 68.8421 39.4445 67.797 38.3368C67.7751 38.3134 67.737 38.3432 67.7532 38.3705C68.4978 39.6334 70.5348 40.1252 71.885 40.2047C71.9753 40.2101 71.9753 40.0692 71.885 40.0642Z" fill="#EE232C"/>
<path d="M69.1168 39.9789C69.0332 40.2063 68.7518 40.2317 68.5925 40.0793C68.5041 39.9952 68.4742 39.882 68.4431 39.7691C68.4053 39.6342 68.389 39.4934 68.2965 39.3809C68.1585 39.2124 67.9166 39.1869 67.7684 39.3538C67.7567 39.3672 67.7713 39.3864 67.7869 39.3784C68.0148 39.2623 68.2085 39.4145 68.2743 39.634C68.3077 39.7459 68.3188 39.8639 68.3655 39.9719C68.4186 40.0952 68.5079 40.2079 68.6303 40.2683C68.8685 40.3856 69.1301 40.2438 69.133 39.9809C69.133 39.9713 69.12 39.9703 69.1168 39.9789" fill="#EE232C"/>
<path d="M70.1297 40.4583C70.0464 40.686 69.765 40.7111 69.6054 40.5591C69.5174 40.4745 69.4878 40.3617 69.456 40.2488C69.4182 40.1134 69.402 39.9732 69.3094 39.8606C69.1718 39.6921 68.9295 39.6668 68.7814 39.8335C68.7696 39.847 68.7842 39.8661 68.8001 39.8581C69.0284 39.7418 69.2217 39.8943 69.2872 40.1134C69.3209 40.2256 69.332 40.3436 69.3784 40.4516C69.4315 40.575 69.5209 40.6876 69.6433 40.748C69.8814 40.8653 70.1431 40.7231 70.1459 40.4606C70.1462 40.451 70.1329 40.4501 70.1297 40.4583" fill="#EE232C"/>
<path d="M68.1641 31.0348C68.1596 31.026 68.1476 31.0311 68.1485 31.0399C68.1759 31.281 67.9355 31.4294 67.725 31.3652C67.6083 31.3297 67.5311 31.2412 67.4526 31.1551C67.3578 31.0511 67.2806 30.9325 67.1473 30.8734C67.1187 30.8607 67.0898 30.8528 67.0605 30.8471C67.0656 30.8966 67.0717 30.9459 67.078 30.9958C67.1365 31.0209 67.1928 31.0588 67.2408 31.1096C67.3209 31.1948 67.3839 31.2953 67.4739 31.3709C67.5766 31.4575 67.7069 31.5178 67.8433 31.5168C68.1091 31.515 68.2792 31.2712 68.1641 31.0348" fill="#EE232C"/>
<path d="M69.3048 30.8486C69.3414 31.0884 69.1074 31.2463 68.8944 31.1901C68.7764 31.1589 68.6957 31.0743 68.6136 30.991C68.5147 30.8909 68.433 30.7755 68.2976 30.7214C68.0954 30.641 67.8713 30.736 67.8223 30.9535C67.8182 30.971 67.8401 30.9806 67.8506 30.9659C67.9937 30.7538 68.2369 30.7939 68.4003 30.9541C68.4836 31.0358 68.5507 31.1338 68.6438 31.206C68.7497 31.2883 68.8826 31.3433 69.0184 31.3373C69.2838 31.3248 69.4444 31.0743 69.3201 30.8426C69.3153 30.8342 69.3032 30.8397 69.3048 30.8486" fill="#EE232C"/>
<path d="M70.0955 30.8117C70.0592 30.8194 70.0462 30.8347 70.0077 30.8298C69.8866 30.8146 69.7954 30.7415 69.7028 30.67C69.5919 30.5838 69.4949 30.4807 69.3534 30.4452C69.1426 30.3924 68.9331 30.5164 68.9134 30.7383C68.9118 30.7561 68.935 30.7625 68.943 30.7469C69.0568 30.5176 69.3032 30.5247 69.4866 30.662C69.5801 30.732 69.6675 30.8074 69.761 30.8792C69.9956 31.0581 70.1476 30.9592 70.1505 30.959C70.1387 30.9142 70.1085 30.8557 70.0955 30.8117" fill="#EE232C"/>
<path d="M71.2748 40.6673C71.2446 40.9073 70.9759 40.9954 70.7864 40.8828C70.6818 40.8205 70.6271 40.7168 70.5712 40.6145C70.5038 40.4912 70.4567 40.3575 70.3413 40.2686C70.1693 40.1356 69.9274 40.1655 69.8206 40.3612C69.812 40.3767 69.8304 40.3919 69.8444 40.3805C70.0402 40.2161 70.2631 40.3214 70.3763 40.5204C70.4342 40.6218 70.4717 40.7344 70.541 40.8291C70.6205 40.9375 70.733 41.0268 70.8656 41.0584C71.1241 41.1193 71.3476 40.9223 71.2913 40.6657C71.2891 40.6559 71.2761 40.6581 71.2748 40.6673Z" fill="#EE232C"/>
<path d="M71.7166 40.7366C71.6492 40.6136 71.6018 40.4804 71.4864 40.391C71.3144 40.2581 71.0725 40.2877 70.9657 40.4835C70.9574 40.4988 70.9761 40.5143 70.9898 40.5029C71.1857 40.3386 71.4085 40.4438 71.5214 40.6425C71.5793 40.7442 71.6168 40.8569 71.6864 40.9515C71.7064 40.9792 71.7427 40.7843 71.7166 40.7366" fill="#EE232C"/>
<path d="M68.0158 39.4633C67.9496 39.5619 67.8489 39.6019 67.7494 39.5959C67.6457 39.5888 67.6661 39.7303 67.7605 39.7176C67.8854 39.7011 67.9942 39.6137 68.031 39.469C68.0336 39.4598 68.0209 39.4557 68.0158 39.4633" fill="#EE232C"/>
<path d="M69.4435 28.92C68.6083 29.3006 67.8335 29.5102 66.9563 29.6596C66.9556 29.692 66.9518 29.725 66.9525 29.7572C67.8226 29.7727 68.752 29.4796 69.4953 29.0612C69.4759 29.0239 69.4616 28.9722 69.4435 28.92" fill="#EE232C"/>
<path d="M67.0289 30.4646C67.8313 30.6976 69.008 30.2879 69.7742 29.9013C69.7653 29.8593 69.7574 29.8135 69.7386 29.7733C68.8786 30.1365 67.9617 30.4391 67.0212 30.3717C67.0238 30.4026 67.0263 30.4338 67.0289 30.4646" fill="#EE232C"/>
<path d="M70.2807 31.3499C69.5106 31.8936 68.2116 32.0595 67.2695 31.9197C67.2778 31.9521 67.2864 31.9849 67.295 32.0176C67.7258 32.1549 68.3546 32.1308 68.8102 32.0561C69.3008 31.976 70.0397 31.7299 70.3163 31.4619C70.2934 31.4332 70.2997 31.4006 70.2807 31.3499Z" fill="#EE232C"/>
<path d="M70.4958 31.9999C69.7206 32.547 68.3952 32.7193 67.4509 32.5748C67.4601 32.6058 67.4687 32.6373 67.4786 32.6681C67.9094 32.8125 68.5481 32.7894 69.0104 32.7136C69.501 32.6335 70.2583 32.3849 70.5349 32.1166C70.518 32.0555 70.5145 32.0508 70.4958 31.9999" fill="#EE232C"/>
<path d="M68.2902 24.7589C68.2902 23.4356 68.2902 19.2895 68.2902 19.2895C68.2902 15.2635 65.0267 12 61.0007 12C56.9744 12 53.7105 15.2635 53.7105 19.2895C53.7105 19.2895 53.7105 23.4356 53.7105 24.7589C53.7105 25.2317 53.5143 26.0214 53.2317 26.939H68.7694C68.4867 26.0214 68.2902 25.2317 68.2902 24.7589Z" fill="#EE232C"/>
<path d="M68.5933 26.3229H62.7757L62.4219 25.9817L68.4887 25.9512L68.5933 26.3229Z" fill="#F57615"/>
<path d="M59.1239 26.3229H53.4126L53.5042 25.9512L59.6657 25.9569L59.1239 26.3229" fill="#F57615"/>
<path d="M68.4049 25.5953H61.949L62.0339 25.2552L68.3337 25.2231L68.4049 25.5953Z" fill="#FAD10F"/>
<path d="M59.8788 25.5953H53.5964L53.667 25.2238L59.8918 25.2297L59.8788 25.5953Z" fill="#FAD10F"/>
<path d="M67.4818 26.9301L54.46 26.939C54.7769 27.9417 55.0685 29.2135 54.6901 30.2585H67.0173C66.7992 29.0942 66.9699 27.9974 67.4818 26.9301" fill="#FBED81"/>
<path d="M55.7433 26.9889C55.7433 26.9889 55.5999 28.329 55.6718 29.1229C55.7433 29.9168 55.8085 30.2585 55.8085 30.2585L57.2538 30.2808C57.2538 30.2808 57.2319 28.7559 57.0665 28.046C56.9009 27.3368 56.6694 26.9396 56.6694 26.9396L55.7433 26.9889" fill="#EE232C"/>
<path d="M64.7746 26.9396C64.7746 26.9396 64.6436 28.2378 64.6531 28.9353C64.6643 29.7294 64.6392 30.2807 64.6392 30.2807L66.0206 30.3361C66.0206 30.3361 66.0613 28.6069 66.0317 28.0381C66.0021 27.469 65.9211 26.9396 65.9211 26.9396H64.7746" fill="#EE232C"/>
<path d="M63.7264 27.1784C63.0788 26.5858 62.2223 26.2218 61.6265 26.0217C61.4122 26.1091 61.1699 26.1305 60.9292 26.1117C60.7162 26.0955 60.5058 26.0492 60.3175 25.9893C59.7211 26.1814 58.8039 26.5534 58.1213 27.1784C57.0225 28.1836 56.4133 29.1684 56.4133 29.1684C56.4133 29.1684 58.1957 29.6271 59.4181 28.9807C60.1484 28.5945 60.4797 28.2342 60.6844 27.594C60.7515 27.3831 60.8593 27.0344 60.9149 26.732C60.9687 27.0391 61.065 27.3672 61.1222 27.5682C61.3184 28.2552 61.6373 28.6167 62.3943 29.0174C63.6167 29.664 65.4343 29.1684 65.4343 29.1684C65.4343 29.1684 64.8252 28.1836 63.7264 27.1784" fill="#EE232C"/>
<path d="M66.0831 19.608C66.0831 22.4259 63.7988 24.7099 60.9812 24.7099C58.1637 24.7099 55.8794 22.4259 55.8794 19.608C55.8794 16.7905 58.1637 14.5062 60.9812 14.5062C63.7988 14.5062 66.0831 16.7905 66.0831 19.608Z" fill="#FCD0B0"/>
<path d="M61.2836 14.538C61.2947 14.519 61.3017 14.5062 61.3017 14.5062C61.3017 14.5062 61.0751 14.4856 60.7196 14.5056C60.6818 14.5056 60.6551 14.5062 60.6551 14.5062C60.6551 14.5062 60.656 14.5085 60.6563 14.5088C59.7954 14.5682 58.2528 14.875 57.1584 16.2298C57.1584 16.2298 58.8654 16.4052 59.8218 15.942C60.3457 15.688 60.7387 15.282 60.9883 14.9663C61.2432 15.2721 61.6388 15.6619 62.1557 15.9121C62.6822 16.1671 63.4586 16.1589 64.0509 16.2094C64.5357 16.2504 64.8972 16.3709 64.8972 16.3709C63.7854 14.9946 62.1652 14.6318 61.2836 14.538" fill="#BF3822"/>
<path d="M60.3813 19.9171C60.3584 19.9174 60.3304 19.9168 60.3145 19.9349C60.1826 20.0872 60.4604 20.3676 60.6242 20.271C60.6455 20.2582 60.6623 20.2328 60.6607 20.2074C60.655 20.1193 60.5625 19.9149 60.3813 19.9171" fill="#E9A579"/>
<path d="M61.5811 19.9171C61.604 19.9174 61.6319 19.9168 61.6478 19.9349C61.7798 20.0872 61.5019 20.3676 61.3382 20.271C61.3169 20.2582 61.3 20.2328 61.3016 20.2074C61.3073 20.1193 61.3999 19.9149 61.5811 19.9171" fill="#E9A579"/>
<path d="M60.2473 21.4924C60.2817 22.0355 60.6037 22.2272 60.976 22.2272C61.4663 22.2272 61.6567 21.9773 61.7047 21.4737C61.4262 21.5233 60.6813 21.5141 60.2473 21.4924" fill="#F03B5E"/>
<path d="M61.0952 20.9196C61.0558 20.9107 60.8962 20.9107 60.8568 20.9196C60.536 20.9921 60.3446 21.4779 59.9697 21.3854C60.1096 21.601 60.5318 21.7434 60.976 21.7281C61.4204 21.7434 61.8427 21.601 61.9825 21.3854C61.6077 21.4779 61.4163 20.9921 61.0952 20.9196Z" fill="#F03B5E"/>
<path d="M62.1687 21.2076C61.9296 21.4012 61.6911 21.5519 61.3687 21.5389C61.226 21.5332 61.1189 21.4566 60.9713 21.4566C60.8038 21.4566 60.7151 21.5319 60.5428 21.5389C60.2204 21.5519 59.9822 21.4012 59.7428 21.2076C59.7397 21.2054 59.7358 21.2083 59.7374 21.2118C59.8268 21.4057 60.0449 21.5685 60.2461 21.6324C60.3561 21.667 60.4572 21.6454 60.5812 21.6149C60.7148 21.5822 60.8715 21.5297 60.9713 21.531C61.0635 21.5322 61.2215 21.5882 61.3303 21.6149C61.4543 21.6454 61.5554 21.667 61.6654 21.6324C61.8666 21.5685 62.0847 21.4057 62.1741 21.2118C62.1757 21.2083 62.1715 21.2054 62.1687 21.2076Z" fill="#C51A39"/>
<path d="M64.8989 21.214C64.8989 21.7869 64.4347 22.2511 63.8621 22.2511C63.2892 22.2511 62.8247 21.7869 62.8247 21.214C62.8247 20.6411 63.2892 20.1766 63.8621 20.1766C64.4347 20.1766 64.8989 20.6411 64.8989 21.214Z" fill="#F8A0A4"/>
<path d="M58.9961 21.2139C58.9961 21.7869 58.5316 22.251 57.9587 22.251C57.3861 22.251 56.9216 21.7869 56.9216 21.2139C56.9216 20.641 57.3861 20.1765 57.9587 20.1765C58.5316 20.1765 58.9961 20.641 58.9961 21.2139Z" fill="#F8A0A4"/>
<path d="M64.8971 16.3709C64.3255 16.1092 63.7627 16.1398 63.1466 16.0965C62.1696 16.0275 61.6227 15.5964 61.0034 14.9078C61.0034 14.9078 60.4254 15.5675 59.5781 15.9115C58.831 16.2148 57.8543 16.2081 57.1742 16.2034C57.1268 16.2027 57.1275 16.2743 57.1742 16.2768C58.4933 16.3455 60.2718 16.3458 60.9961 15.0171C62.2033 16.672 63.7595 16.0072 64.9098 16.4653C64.9553 16.4838 64.9438 16.3925 64.8971 16.3709" fill="#3B1818"/>
<path d="M60.4678 14.9876C59.7906 15.6286 58.8349 15.7357 58.0267 15.7287C58.0028 15.7287 58.0022 15.7646 58.0267 15.7666C58.914 15.8397 59.8573 15.6721 60.4878 15.008C60.5002 14.9943 60.4811 14.9752 60.4678 14.9876" fill="#3B1818"/>
<path d="M61.5584 14.9876C62.2353 15.6286 63.191 15.7357 63.9992 15.7287C64.023 15.7287 64.0236 15.7646 63.9992 15.7666C63.1118 15.8397 62.1682 15.6721 61.538 15.008C61.5253 14.9943 61.545 14.9752 61.5584 14.9876Z" fill="#3B1818"/>
<path d="M60.9811 14.5778C58.2071 14.5778 55.9508 16.8345 55.9508 19.6081C55.9508 22.382 58.2071 24.6387 60.9811 24.6387C63.7551 24.6387 66.0114 22.382 66.0114 19.6081C66.0114 16.8345 63.7551 14.5778 60.9811 14.5778V14.5778ZM60.9811 24.7811C58.1286 24.7811 55.8083 22.4606 55.8083 19.6081C55.8083 16.7559 58.1286 14.435 60.9811 14.435C63.8336 14.435 66.1542 16.7559 66.1542 19.6081C66.1542 22.4606 63.8336 24.7811 60.9811 24.7811" fill="#3B1818"/>
<path d="M61.8911 18.7268C61.8911 18.7268 62.154 19.3296 63.0932 19.3296C64.0324 19.3296 64.0995 18.8641 64.0995 18.8641C64.0995 18.8641 63.9465 17.9943 63.0932 17.9965C62.2399 17.999 61.8911 18.7268 61.8911 18.7268Z" fill="white"/>
<path d="M63.6778 18.5256C63.6778 18.8562 63.4094 19.1246 63.0785 19.1246C62.7478 19.1246 62.4795 18.8562 62.4795 18.5256C62.4795 18.1946 62.7478 17.9266 63.0785 17.9266C63.4094 17.9266 63.6778 18.1946 63.6778 18.5256Z" fill="#5665B9"/>
<path d="M63.0859 17.9059C62.4796 17.8789 62.0316 18.3135 61.818 18.8463C61.8027 18.8845 61.8679 18.9121 61.8844 18.8743C62.0882 18.4057 62.4748 18.0048 63.0185 18.0019C63.6111 17.999 64.0203 18.4387 64.1309 18.9891C64.1443 19.0558 64.2486 19.0279 64.2336 18.9608C64.1084 18.4069 63.6801 17.9323 63.0859 17.9059" fill="#3B1818"/>
<path d="M63.7557 17.4296C63.3494 17.0405 62.3632 17.1966 62.1072 17.7069C62.106 17.7094 62.1088 17.7126 62.1111 17.711C62.3517 17.4961 62.5355 17.3858 62.827 17.3371C63.1284 17.2869 63.4251 17.3416 63.7316 17.47C63.7551 17.4799 63.7716 17.4452 63.7557 17.4296" fill="#3B1818"/>
<path d="M63.5292 18.5255C63.5292 18.7665 63.334 18.9614 63.0934 18.9614C62.8527 18.9614 62.6575 18.7665 62.6575 18.5255C62.6575 18.2845 62.8527 18.0897 63.0934 18.0897C63.334 18.0897 63.5292 18.2845 63.5292 18.5255Z" fill="#3B1818"/>
<path d="M63.5719 18.4133C63.5719 18.4877 63.5115 18.5481 63.4371 18.5481C63.3624 18.5481 63.302 18.4877 63.302 18.4133C63.302 18.3389 63.3624 18.2785 63.4371 18.2785C63.5115 18.2785 63.5719 18.3389 63.5719 18.4133Z" fill="white"/>
<path d="M60.0225 18.7268C60.0225 18.7268 59.7599 19.3296 58.8207 19.3296C57.8815 19.3296 57.8145 18.8641 57.8145 18.8641C57.8145 18.8641 57.9674 17.9943 58.8207 17.9965C59.674 17.999 60.0225 18.7268 60.0225 18.7268Z" fill="white"/>
<path d="M59.4344 18.5256C59.4344 18.8562 59.166 19.1246 58.8354 19.1246C58.5044 19.1246 58.2361 18.8562 58.2361 18.5256C58.2361 18.1946 58.5044 17.9266 58.8354 17.9266C59.166 17.9266 59.4344 18.1946 59.4344 18.5256Z" fill="#5665B9"/>
<path d="M58.8282 17.9059C59.4345 17.8789 59.8825 18.3135 60.0961 18.8463C60.1114 18.8845 60.0462 18.9121 60.0297 18.8743C59.8259 18.4057 59.4393 18.0048 58.8956 18.0019C58.303 17.999 57.8938 18.4387 57.7832 18.9891C57.7698 19.0558 57.6652 19.0279 57.6805 18.9608C57.8054 18.4069 58.2337 17.9323 58.8282 17.9059" fill="#3B1818"/>
<path d="M58.1583 17.4296C58.5646 17.0405 59.5508 17.1966 59.8068 17.7069C59.808 17.7094 59.8052 17.7126 59.803 17.711C59.5623 17.4961 59.3785 17.3858 59.087 17.3371C58.7856 17.2869 58.4889 17.3416 58.1818 17.47C58.1589 17.4799 58.1421 17.4452 58.1583 17.4296" fill="#3B1818"/>
<path d="M59.2857 18.5255C59.2857 18.7665 59.0905 18.9614 58.8495 18.9614C58.6088 18.9614 58.4136 18.7665 58.4136 18.5255C58.4136 18.2845 58.6088 18.0897 58.8495 18.0897C59.0905 18.0897 59.2857 18.2845 59.2857 18.5255Z" fill="#3B1818"/>
<path d="M59.0317 18.4133C59.0317 18.4877 59.0921 18.5481 59.1665 18.5481C59.2409 18.5481 59.3017 18.4877 59.3017 18.4133C59.3017 18.3389 59.2409 18.2785 59.1665 18.2785C59.0921 18.2785 59.0317 18.3389 59.0317 18.4133Z" fill="white"/>
<path d="M58.8885 28.0381C58.8885 28.2415 58.7238 28.4062 58.5203 28.4062C58.3169 28.4062 58.1519 28.2415 58.1519 28.0381C58.1519 27.8343 58.3169 27.6696 58.5203 27.6696C58.7238 27.6696 58.8885 27.8343 58.8885 28.0381Z" fill="#FAD10F"/>
<path d="M63.3934 28.0381C63.3934 28.2415 63.2284 28.4062 63.0252 28.4062C62.8217 28.4062 62.6567 28.2415 62.6567 28.0381C62.6567 27.8343 62.8217 27.6696 63.0252 27.6696C63.2284 27.6696 63.3934 27.8343 63.3934 28.0381Z" fill="#FAD10F"/>
<path d="M62.6054 27.0906C62.6054 27.2942 62.4404 27.4595 62.2366 27.4595C62.0334 27.4595 61.8684 27.2942 61.8684 27.0906C61.8684 26.8874 62.0334 26.7225 62.2366 26.7225C62.4404 26.7225 62.6054 26.8874 62.6054 27.0906Z" fill="#F57615"/>
<path d="M60.0299 27.0906C60.0299 27.2942 59.8648 27.4595 59.6614 27.4595C59.4579 27.4595 59.2932 27.2942 59.2932 27.0906C59.2932 26.8874 59.4579 26.7225 59.6614 26.7225C59.8648 26.7225 60.0299 26.8874 60.0299 27.0906Z" fill="#F57615"/>
<path d="M54.6903 30.2586C54.6903 30.2586 54.511 31.0041 54.3323 31.47C54.1536 31.936 53.7715 32.3868 53.7715 32.3868H67.4038C67.4038 32.3868 67.1195 31.674 67.1335 31.2737C67.1475 30.8735 67.0213 30.3717 67.0213 30.3717L54.6903 30.2586Z" fill="#5665B9"/>
<path d="M67.0964 31.1068C66.7692 31.3297 66.5063 31.5445 66.2338 31.4327C65.7169 31.2196 65.5595 31.0155 65.0826 30.8304C64.855 30.7421 64.6375 30.6916 64.3949 30.7472C64.2293 30.786 64.1154 30.8585 63.9816 30.9605C63.8716 31.0442 63.5928 31.4002 63.4732 31.4524C63.1515 31.5926 62.9102 31.3754 62.6708 31.1923C62.2187 30.8471 61.8225 30.8066 61.4919 30.7872C61.0786 30.7631 60.8757 30.8381 60.588 30.9863C60.1229 31.2263 59.8695 31.9967 59.2632 31.4394C58.8022 31.0155 58.2655 30.8944 58.0754 30.9064C57.1187 30.9672 56.5792 32.086 55.6124 31.4412C55.3125 31.2413 55.1053 31.0442 54.8449 31.0524C54.8379 31.1373 54.8274 31.2209 54.8064 31.3022C55.2947 31.4396 55.5933 31.873 56.135 31.9048C56.9057 31.9499 57.2939 31.1332 58.0754 31.1202C58.4048 31.1147 58.8737 31.3452 59.1134 31.5891C59.5175 31.9998 59.8621 31.7824 60.0109 31.6972C60.1585 31.6126 60.2449 31.5017 60.36 31.3888C61.0782 30.6868 62.1576 31.1522 62.4444 31.3224C62.6628 31.4518 62.8453 31.6448 63.1003 31.6976C63.5578 31.7922 63.7085 31.5331 64.0153 31.2663C64.6384 30.725 64.9736 31.0585 65.26 31.1822C65.4202 31.2508 66.0847 31.7712 66.4716 31.6908C66.7489 31.633 66.9603 31.5007 67.1631 31.3579C67.1323 31.2769 67.1107 31.193 67.0964 31.1068" fill="white"/>
<path d="M53.9691 32.3317C54.3351 31.755 54.4384 31.2632 54.6409 30.5913C54.673 30.4845 54.688 30.4366 54.7211 30.3259C58.6761 30.4352 62.8544 30.3198 66.9236 30.4133C66.9357 30.5026 66.977 30.7382 66.9904 30.8263C67.0686 31.3407 67.1614 31.8167 67.2915 32.3314C65.0265 32.347 56.2392 32.3813 53.9691 32.3317V32.3317ZM55.8084 27.0343C56.1161 27.0298 56.2821 27.0305 56.6363 27.019C56.7282 27.3373 56.9046 27.7694 56.9854 28.1477C56.7011 28.5003 56.4557 28.8643 56.2726 29.2223C56.271 29.2219 56.6662 29.2881 57.1138 29.341C57.103 29.6214 57.1876 29.8839 57.1653 30.1777C56.6779 30.1774 56.3673 30.1777 55.8793 30.1771C55.7209 29.1339 55.7098 28.1086 55.8084 27.0343V27.0343ZM58.1875 26.9249C57.7827 27.2629 57.3993 27.646 57.0664 28.046C57.0191 27.6912 56.9389 27.3472 56.8038 27.0137C57.269 26.9964 57.7319 26.9685 58.1875 26.9249V26.9249ZM57.3052 29.3619C57.6613 29.4017 57.9287 29.4188 58.1566 29.3962C58.713 29.3425 59.297 29.1718 59.7828 28.8787C60.4887 28.4516 60.7942 27.6378 60.9172 26.8277C61.0326 27.66 61.3353 28.508 62.0615 28.9466C62.5469 29.2401 63.131 29.4109 63.6874 29.4646C63.9036 29.4859 64.2345 29.4808 64.5642 29.4579C64.5757 29.6522 64.5868 29.9059 64.5862 30.2079C62.1578 30.1774 59.7333 30.1784 57.3052 30.1777C57.2845 29.9027 57.3052 29.5199 57.3052 29.3619ZM65.6344 29.2551C65.3454 28.9038 65.0357 28.5341 64.7124 28.1658C64.7241 27.7888 64.81 27.2124 64.8485 26.9921C65.1817 27.0007 65.5171 27.0054 65.8522 27.0089C65.9698 28.0921 65.932 29.1473 65.9596 30.2314C65.5349 30.2242 65.1988 30.2165 64.7744 30.2112C64.7394 29.9568 64.7321 29.6999 64.7241 29.4455C65.1953 29.4086 65.552 29.3438 65.6344 29.2551V29.2551ZM63.5627 26.9498C63.9656 26.9656 64.314 26.9774 64.7241 26.9885C64.6434 27.2775 64.6151 27.6696 64.6253 28.0664C64.2857 27.6832 63.9303 27.3033 63.5627 26.9498ZM67.3299 26.9984C66.7551 28.039 66.7621 29.0894 66.9125 30.2477C66.6104 30.2413 66.3847 30.2391 66.083 30.2336C66.083 29.0014 66.1542 27.9649 66.0095 27.0105C66.4798 27.0143 66.8575 27.0123 67.3299 26.9984V26.9984ZM68.6401 35.2045C68.2198 34.3744 67.8132 33.4248 67.5076 32.4322C67.5086 32.4166 67.5051 32.4017 67.4949 32.3899C67.3592 31.9435 67.2419 31.4895 67.157 31.0323C67.1264 30.8695 67.0505 30.3217 67.0435 30.2575C66.922 29.126 67.0082 28.0046 67.4361 26.9952C67.8154 26.9834 68.1899 26.9656 68.5536 26.9389C68.6115 26.9348 68.6032 26.8566 68.5438 26.8578C66.887 26.8947 65.1467 26.8242 63.4756 26.8668C63.1329 26.5425 62.7813 26.2395 62.4217 25.9816C62.4137 25.9762 62.4061 25.9884 62.4115 25.9947C63.3609 27.0883 64.4212 28.0762 65.3571 29.1861C64.3258 29.2898 63.1755 29.3823 62.2347 28.8462C61.4374 28.3919 61.1217 27.5882 60.9341 26.711C60.9274 26.6807 60.921 26.6509 60.9147 26.6204C60.9096 26.6442 60.9048 26.6681 60.8997 26.6922C60.7109 27.5503 60.3917 28.3324 59.6093 28.7779C58.6714 29.312 57.5258 29.2223 56.4977 29.1186C56.9285 28.5642 57.3332 28.0015 57.8349 27.5033C58.4081 26.9335 59.0637 26.5094 59.7161 26.0426C59.7679 26.0051 59.724 25.9295 59.6659 25.9568C59.1947 26.1781 58.7063 26.4999 58.2437 26.8795C56.628 26.8578 55.1096 26.9106 53.5514 26.8735C53.483 26.8719 53.4922 26.9685 53.5596 26.9726C54.0162 27.0013 55.4517 27.0349 55.6815 27.0349C55.4962 28.0447 55.6071 29.1606 55.6981 30.1771C55.3871 30.1768 55.0768 30.1771 54.7656 30.1761C54.8231 29.9822 54.8788 29.7826 54.9303 29.581C54.8899 29.6465 54.8253 29.6617 54.7665 29.6458C54.6934 29.9466 54.6072 30.2486 54.5122 30.556C54.3071 31.2221 54.0458 31.871 53.6649 32.4424C53.7297 32.4665 53.7936 32.4929 53.8591 32.5152C53.8776 32.4887 53.8982 32.4618 53.9148 32.4359C56.1447 32.5117 58.2765 32.5351 60.5068 32.5231C62.7813 32.5111 65.0557 32.4989 67.3302 32.4869C67.4911 33.1014 68.3355 35.0892 68.5212 35.3988C68.5756 35.4891 68.6875 35.2981 68.6401 35.2045" fill="#3B1818"/>
<path d="M61.9574 25.1414C61.9009 26.3476 59.9526 26.3365 59.8839 25.1487C59.8813 25.1102 59.8155 25.1343 59.8149 25.1777C59.8019 25.9893 60.4263 26.2016 60.9464 26.2189C61.5705 26.2401 62.0325 25.7763 62.0395 25.1532C62.0404 25.0689 61.9616 25.0577 61.9574 25.1414" fill="#3B1818"/>
<path d="M60.1089 26.286C59.9217 26.6107 59.7051 26.9113 59.4397 27.1765C59.1682 27.4477 58.9958 27.5902 58.5399 27.8299C58.5008 27.8502 58.5247 27.9151 58.5711 27.9034C59.2934 27.7186 59.9051 26.9769 60.1445 26.3013C60.1525 26.2803 60.1197 26.2673 60.1089 26.286" fill="#3B1818"/>
<path d="M61.7419 26.286C61.9288 26.6107 62.1454 26.9113 62.4108 27.1765C62.6823 27.4477 62.855 27.5902 63.3106 27.8299C63.3497 27.8502 63.3262 27.9151 63.2797 27.9034C62.5571 27.7186 61.9451 26.9769 61.7057 26.3013C61.6983 26.2803 61.7308 26.2673 61.7419 26.286Z" fill="#3B1818"/>
<path d="M64.6768 24.0861C64.3233 24.2616 64.0607 24.445 63.723 24.5773C63.3832 24.7102 63.0299 24.7605 62.6796 24.8518C62.6398 24.8622 62.65 24.9185 62.6888 24.9207C63.3196 24.9563 64.3023 24.6539 64.715 24.1516C64.7372 24.1249 64.7159 24.0668 64.6768 24.0861Z" fill="#3B1818"/>
<path d="M65.7585 25.2018C65.261 25.3 64.7822 25.4394 64.2706 25.4612C63.7594 25.4826 63.2914 25.3732 62.7938 25.2784C62.7786 25.2756 62.7677 25.2966 62.783 25.3049C63.6405 25.7932 64.9128 25.6526 65.7875 25.2699C65.8282 25.2521 65.7976 25.1945 65.7585 25.2018Z" fill="#3B1818"/>
<path d="M57.1015 24.0861C57.455 24.2616 57.7176 24.445 58.0553 24.5773C58.3948 24.7102 58.7481 24.7605 59.0987 24.8518C59.1382 24.8622 59.128 24.9185 59.0895 24.9207C58.4587 24.9563 57.476 24.6539 57.063 24.1516C57.0411 24.1249 57.0624 24.0668 57.1015 24.0861" fill="#3B1818"/>
<path d="M56.0198 25.2017C56.5174 25.3 56.9962 25.4393 57.5077 25.4612C58.0193 25.4825 58.487 25.3731 58.9845 25.2784C59.0001 25.2755 59.0106 25.2965 58.9957 25.3048C58.1379 25.7932 56.8658 25.6526 55.9912 25.2698C55.9505 25.252 55.981 25.1944 56.0198 25.2017Z" fill="#3B1818"/>
<path d="M60.4772 26.7149C60.2603 27.2274 59.9036 27.698 59.4264 28.0803C58.9715 28.4451 58.5165 28.5821 57.9722 28.7518C57.9604 28.7557 57.9623 28.7735 57.9751 28.7735C59.1133 28.7904 60.2095 27.7991 60.4978 26.7283C60.5055 26.699 60.4877 26.6894 60.4772 26.7149" fill="#3B1818"/>
<path d="M61.3948 26.7149C61.6114 27.2274 61.9684 27.698 62.4453 28.0803C62.9003 28.4451 63.3555 28.5821 63.8998 28.7518C63.9116 28.7557 63.9094 28.7735 63.8967 28.7735C62.7588 28.7904 61.6622 27.7991 61.3742 26.7283C61.3666 26.699 61.384 26.6894 61.3948 26.7149" fill="#3B1818"/>
<path d="M68.7553 44.9476C68.5941 45.0325 68.5855 44.7941 68.6389 44.7517C68.6615 44.7307 68.7375 44.6671 68.7594 44.6449C68.7909 44.6135 68.8211 44.5804 68.8507 44.5473C68.9054 44.4856 68.9569 44.4214 69.0062 44.3553C69.1228 44.2005 69.313 43.888 69.3991 43.7146C69.4138 43.6848 69.3689 43.6685 69.3511 43.6901C69.2087 43.8631 69.0077 44.2074 68.8644 44.38C68.6138 44.6812 68.2978 44.7733 68.1134 44.8426C67.9014 44.9225 67.7354 44.9663 67.7185 44.9094C67.6921 44.8236 67.8546 44.6828 68.0168 44.5648C68.1935 44.436 68.3773 44.3282 68.5143 44.2049C68.7639 43.9807 68.9489 43.6972 69.141 43.4158C69.1492 43.404 69.133 43.3897 69.1225 43.3993C68.8815 43.6167 68.699 43.8847 68.4666 44.1197C68.2361 44.3527 67.6314 44.6294 67.4655 44.6297C67.3634 44.63 67.3157 44.5673 67.419 44.4784C67.6308 44.2958 67.9611 44.0676 68.2234 43.7967C68.4552 43.5579 68.6358 43.4215 68.8491 43.1656C68.8653 43.1462 68.8427 43.1105 68.8256 43.123C68.6386 43.2585 68.5223 43.4133 68.3414 43.5703C68.3487 43.5611 67.9792 43.7716 67.7761 43.8666C67.5716 43.9626 67.3555 44.1187 67.1393 44.0615C67.0738 44.0443 67.0642 43.9773 67.1507 43.901C67.2668 43.7986 67.5046 43.6819 67.5297 43.6628C67.8463 43.4202 68.0667 43.1678 68.2418 42.9061C68.438 42.6126 68.5709 42.3189 68.5769 42.2245C68.2533 42.3342 67.4855 42.6436 67.3116 42.1813C67.6483 42.1565 67.9653 42.0411 68.2275 41.8226C68.3051 41.7585 68.3735 41.6855 68.4393 41.6105C68.8675 41.9396 69.5311 42.2512 70.1326 42.2849C69.903 43.2623 69.6567 44.4729 68.7553 44.9476V44.9476ZM71.9683 39.3141C71.8898 40.2673 71.5525 42.0191 70.344 42.1243C69.8913 42.1638 69.3015 41.8875 68.9181 41.6831C68.362 41.3861 68.101 41.0558 67.9649 40.4339C67.5332 38.4628 68.2752 36.5059 68.885 34.6653C68.8892 34.6535 68.8707 34.6456 68.865 34.6568C68.7776 34.8265 68.6978 35.0004 68.6192 35.1756C68.5916 35.2525 68.5617 35.3285 68.5213 35.3988C68.0981 36.3958 67.8136 37.4635 67.716 38.5355C67.6324 39.4474 67.5526 40.8438 68.3178 41.5114C68.3201 41.5133 68.3223 41.5152 68.3245 41.5168C68.0183 41.8414 67.6133 42.0346 67.1542 42.0786C67.1116 42.2961 67.3863 42.5285 67.5522 42.5682C67.8107 42.6295 68.1748 42.5358 68.4183 42.3911C68.2918 42.5453 68.2015 42.7322 68.0905 42.8969C67.9246 43.1449 67.715 43.3583 67.4938 43.5595C67.3739 43.6695 66.76 43.9216 67.0134 44.1276C67.1933 44.2742 67.7503 44.0339 68.0387 43.8428C67.9605 43.9153 67.6874 44.1735 67.4149 44.3769C67.1746 44.5569 67.2871 44.6926 67.4353 44.7069C67.5586 44.7189 67.702 44.6834 67.8101 44.6313C67.7246 44.7342 67.5112 44.898 67.6073 45.0083C67.7131 45.1298 68.3162 44.8649 68.5191 44.7607C68.466 44.8795 68.5633 45.1549 68.6997 45.0782C68.9651 44.9288 69.2541 44.7053 69.4452 44.4662C69.6169 44.2522 69.7819 43.8831 69.8833 43.6463C70.0655 43.2212 70.186 42.7698 70.2569 42.2859C70.5214 42.283 70.7697 42.2226 70.9745 42.077C71.7222 41.5457 72.1101 40.2673 71.9683 39.3141Z" fill="#3B1818"/>
<path d="M68.7553 44.9476C68.5941 45.0325 68.5855 44.7941 68.6389 44.7517C68.6615 44.7307 68.7375 44.6671 68.7594 44.6449C68.7909 44.6135 68.8211 44.5804 68.8507 44.5473C68.9054 44.4856 68.9569 44.4214 69.0062 44.3553C69.1228 44.2005 69.313 43.888 69.3991 43.7146C69.4138 43.6848 69.3689 43.6685 69.3511 43.6901C69.2087 43.8631 69.0077 44.2074 68.8644 44.38C68.6138 44.6812 68.2978 44.7733 68.1134 44.8426C67.9014 44.9225 67.7354 44.9663 67.7185 44.9094C67.6921 44.8236 67.8546 44.6828 68.0168 44.5648C68.1935 44.436 68.3773 44.3282 68.5143 44.2049C68.7639 43.9807 68.9489 43.6972 69.141 43.4158C69.1492 43.404 69.133 43.3897 69.1225 43.3993C68.8815 43.6167 68.699 43.8847 68.4666 44.1197C68.2361 44.3527 67.6314 44.6294 67.4655 44.6297C67.3634 44.63 67.3157 44.5673 67.419 44.4784C67.6308 44.2958 67.9611 44.0676 68.2234 43.7967C68.4552 43.5579 68.6358 43.4215 68.8491 43.1656C68.8653 43.1462 68.8427 43.1105 68.8256 43.123C68.6386 43.2585 68.5223 43.4133 68.3414 43.5703C68.3487 43.5611 67.9792 43.7716 67.7761 43.8666C67.5716 43.9626 67.3555 44.1187 67.1393 44.0615C67.0738 44.0443 67.0642 43.9773 67.1507 43.901C67.2668 43.7986 67.5046 43.6819 67.5297 43.6628C67.8463 43.4202 68.0667 43.1678 68.2418 42.9061C68.438 42.6126 68.5709 42.3189 68.5769 42.2245C68.2533 42.3342 67.4855 42.6436 67.3116 42.1813C67.6483 42.1565 67.9653 42.0411 68.2275 41.8226C68.3051 41.7585 68.3735 41.6855 68.4393 41.6105C68.8675 41.9396 69.5311 42.2512 70.1326 42.2849C69.903 43.2623 69.6567 44.4729 68.7553 44.9476V44.9476ZM71.9683 39.3141C71.8898 40.2673 71.5525 42.0191 70.344 42.1243C69.8913 42.1638 69.3015 41.8875 68.9181 41.6831C68.362 41.3861 68.101 41.0558 67.9649 40.4339C67.5332 38.4628 68.2752 36.5059 68.885 34.6653C68.8892 34.6535 68.8707 34.6456 68.865 34.6568C68.7776 34.8265 68.6978 35.0004 68.6192 35.1756C68.5916 35.2525 68.5617 35.3285 68.5213 35.3988C68.0981 36.3958 67.8136 37.4635 67.716 38.5355C67.6324 39.4474 67.5526 40.8438 68.3178 41.5114C68.3201 41.5133 68.3223 41.5152 68.3245 41.5168C68.0183 41.8414 67.6133 42.0346 67.1542 42.0786C67.1116 42.2961 67.3863 42.5285 67.5522 42.5682C67.8107 42.6295 68.1748 42.5358 68.4183 42.3911C68.2918 42.5453 68.2015 42.7322 68.0905 42.8969C67.9246 43.1449 67.715 43.3583 67.4938 43.5595C67.3739 43.6695 66.76 43.9216 67.0134 44.1276C67.1933 44.2742 67.7503 44.0339 68.0387 43.8428C67.9605 43.9153 67.6874 44.1735 67.4149 44.3769C67.1746 44.5569 67.2871 44.6926 67.4353 44.7069C67.5586 44.7189 67.702 44.6834 67.8101 44.6313C67.7246 44.7342 67.5112 44.898 67.6073 45.0083C67.7131 45.1298 68.3162 44.8649 68.5191 44.7607C68.466 44.8795 68.5633 45.1549 68.6997 45.0782C68.9651 44.9288 69.2541 44.7053 69.4452 44.4662C69.6169 44.2522 69.7819 43.8831 69.8833 43.6463C70.0655 43.2212 70.186 42.7698 70.2569 42.2859C70.5214 42.283 70.7697 42.2226 70.9745 42.077C71.7222 41.5457 72.1101 40.2673 71.9683 39.3141Z" fill="#3B1818"/>
<path d="M51.2895 32.6673C51.7673 31.1412 52.6899 28.5782 53.2307 26.939C53.2838 26.939 53.371 26.939 53.5045 26.939C53.5598 26.9726 53.5569 26.974 53.6402 26.9771C54.009 26.9914 54.5429 26.9979 54.6328 27.0109C54.8935 27.3307 55.2741 28.1087 54.9762 30.6007C54.7288 32.6703 53.6011 34.7964 53.4075 35.3646C53.8367 36.361 54.2596 38.1559 54.2211 39.4211C54.2011 40.0925 54.1989 40.3767 53.9257 40.9986C53.6266 41.6793 52.8674 41.9768 51.7956 42.1912C51.2055 42.1476 50.6927 41.7683 50.3865 41.1216C50.2266 40.7833 50.0858 40.3951 50.0002 40.0099C50.0158 36.9325 50.7881 34.2683 51.2895 32.6673Z" fill="#FBED81"/>
<path d="M53.5609 41.5076C53.5609 41.5076 53.0207 41.8383 52.6017 41.9817C52.1823 42.1254 51.7849 42.1784 51.7849 42.1784C51.7849 42.1784 51.9887 43.7024 52.4828 44.3305C52.9762 44.9591 53.296 45.0363 53.3402 45.0255C53.3848 45.0141 53.4067 44.7057 53.4067 44.7057C53.4067 44.7057 53.5498 44.8046 53.8807 44.893C54.2114 44.981 54.2994 45.0141 54.3109 44.9368C54.3217 44.86 54.0791 44.5623 54.0791 44.5623C54.0791 44.5623 54.487 44.7057 54.5973 44.6505C54.708 44.5951 54.5369 44.4024 54.5369 44.4024L53.7815 43.7242C53.7815 43.7242 54.4371 44.0289 54.6142 44.0768C54.796 44.1265 54.9833 44.143 54.9725 44.0218C54.9614 43.9007 54.5468 43.6857 54.377 43.5475C53.6989 42.9964 53.5113 42.3569 53.5113 42.3569C53.5113 42.3569 53.9469 42.5222 54.1894 42.5222C54.432 42.5222 54.708 42.3677 54.7407 42.2462C54.7741 42.1254 54.7741 42.1254 54.7741 42.1254C54.7741 42.1254 54.2448 42.1582 54.013 41.9267C53.7815 41.6952 53.5609 41.5076 53.5609 41.5076" fill="#FCD0B0"/>
<path d="M50.4227 41.2182C51.6064 41.4964 53.1983 41.1893 54.1915 39.9045C54.2093 39.8817 54.2452 39.8959 54.2385 39.9249C54.1482 40.3351 53.4284 40.9378 52.826 41.1727C52.1316 41.444 51.0974 41.636 50.4523 41.2968C50.4062 41.2726 50.3696 41.2055 50.4227 41.2182" fill="#EE232C"/>
<path d="M50.1147 40.0642C51.6103 39.9815 53.158 39.4445 54.203 38.3368C54.2249 38.3134 54.2628 38.3432 54.2466 38.3705C53.5026 39.6334 51.4653 40.1252 50.1147 40.2047C50.0244 40.2101 50.0247 40.0692 50.1147 40.0642Z" fill="#EE232C"/>
<path d="M52.8829 39.9789C52.9665 40.2063 53.2479 40.2317 53.4072 40.0793C53.4953 39.9952 53.5251 39.882 53.5569 39.7691C53.5948 39.6342 53.6107 39.4934 53.7032 39.3809C53.8412 39.2124 54.0834 39.1869 54.2316 39.3538C54.2434 39.3672 54.2287 39.3864 54.2125 39.3784C53.9846 39.2623 53.7909 39.4145 53.7258 39.634C53.6921 39.7459 53.6809 39.8639 53.6345 39.9719C53.5814 40.0952 53.4918 40.2079 53.3697 40.2683C53.1312 40.3856 52.8696 40.2438 52.8667 39.9809C52.8667 39.9713 52.8801 39.9703 52.8829 39.9789" fill="#EE232C"/>
<path d="M51.8703 40.4583C51.9539 40.686 52.235 40.7111 52.3942 40.5591C52.4826 40.4745 52.5122 40.3617 52.5437 40.2488C52.5815 40.1134 52.5977 39.9732 52.6906 39.8606C52.8285 39.6921 53.0705 39.6668 53.2186 39.8335C53.2301 39.847 53.2155 39.8661 53.1999 39.8581C52.9719 39.7418 52.778 39.8943 52.7125 40.1134C52.6794 40.2256 52.668 40.3436 52.6216 40.4516C52.5685 40.575 52.4788 40.6876 52.3567 40.748C52.1183 40.8653 51.8569 40.7231 51.8538 40.4606C51.8538 40.451 51.8671 40.4501 51.8703 40.4583" fill="#EE232C"/>
<path d="M53.8355 31.0348C53.8397 31.026 53.8521 31.0311 53.8511 31.0399C53.8235 31.281 54.0638 31.4294 54.2746 31.3652C54.3913 31.3297 54.4685 31.2412 54.5474 31.1551C54.6418 31.0511 54.7191 30.9325 54.8526 30.8734C54.8809 30.8607 54.9098 30.8528 54.9388 30.8471C54.9343 30.8966 54.928 30.9459 54.9219 30.9958C54.8631 31.0209 54.8068 31.0588 54.7588 31.1096C54.679 31.1948 54.6157 31.2953 54.5255 31.3709C54.4231 31.4575 54.2924 31.5178 54.156 31.5168C53.8905 31.515 53.7201 31.2712 53.8355 31.0348" fill="#EE232C"/>
<path d="M52.6952 30.8486C52.658 31.0884 52.8926 31.2463 53.1056 31.1901C53.2233 31.1589 53.3043 31.0743 53.3857 30.991C53.4846 30.8909 53.5666 30.7755 53.7024 30.7214C53.904 30.641 54.1284 30.736 54.1777 30.9535C54.1812 30.971 54.1593 30.9806 54.1494 30.9659C54.006 30.7538 53.7625 30.7939 53.5994 30.9541C53.5161 31.0358 53.449 31.1338 53.3562 31.206C53.25 31.2883 53.1174 31.3433 52.981 31.3373C52.7158 31.3248 52.5553 31.0743 52.6799 30.8426C52.6844 30.8342 52.6965 30.8397 52.6952 30.8486" fill="#EE232C"/>
<path d="M51.9038 30.8117C51.9407 30.8194 51.9537 30.8347 51.9922 30.8298C52.1133 30.8146 52.2046 30.7415 52.2968 30.67C52.4077 30.5838 52.5044 30.4807 52.6459 30.4452C52.857 30.3924 53.0668 30.5164 53.0862 30.7383C53.0878 30.7561 53.0646 30.7625 53.0566 30.7469C52.9428 30.5176 52.6964 30.5247 52.513 30.662C52.4195 30.732 52.3317 30.8074 52.2383 30.8792C52.0043 31.0581 51.8517 30.9592 51.8491 30.959C51.8609 30.9142 51.8911 30.8557 51.9038 30.8117" fill="#EE232C"/>
<path d="M50.7246 40.6673C50.7551 40.9073 51.0238 40.9954 51.213 40.8828C51.3182 40.8205 51.3722 40.7168 51.4282 40.6145C51.4956 40.4912 51.543 40.3575 51.6584 40.2686C51.8307 40.1356 52.0723 40.1655 52.1795 40.3612C52.1877 40.3767 52.169 40.3919 52.1553 40.3805C51.9595 40.2161 51.7363 40.3214 51.6234 40.5204C51.5659 40.6218 51.5284 40.7344 51.4584 40.8291C51.3792 40.9375 51.2664 41.0268 51.1338 41.0584C50.8753 41.1193 50.6525 40.9223 50.7087 40.6657C50.7106 40.6559 50.7237 40.6581 50.7246 40.6673" fill="#EE232C"/>
<path d="M50.2834 40.7366C50.3508 40.6136 50.3979 40.4804 50.5133 40.391C50.6856 40.2581 50.9272 40.2877 51.0341 40.4835C51.0426 40.4988 51.0242 40.5143 51.0105 40.5029C50.8144 40.3386 50.5912 40.4438 50.4783 40.6425C50.4205 40.7442 50.3833 40.8569 50.3133 40.9515C50.2933 40.9792 50.2577 40.7843 50.2834 40.7366" fill="#EE232C"/>
<path d="M53.9843 39.4633C54.0504 39.5619 54.1512 39.6019 54.2507 39.5959C54.3543 39.5888 54.334 39.7303 54.2393 39.7176C54.1146 39.7011 54.0059 39.6137 53.969 39.469C53.9668 39.4598 53.9795 39.4557 53.9843 39.4633Z" fill="#EE232C"/>
<path d="M52.5562 28.92C53.3911 29.3006 54.1665 29.5102 55.0434 29.6596C55.0437 29.692 55.0475 29.725 55.0472 29.7572C54.177 29.7727 53.2477 29.4796 52.5044 29.0612C52.5241 29.0239 52.5381 28.9722 52.5562 28.92" fill="#EE232C"/>
<path d="M54.9712 30.4646C54.1681 30.6976 52.9918 30.2879 52.2256 29.9013C52.2342 29.8593 52.2428 29.8135 52.2612 29.7733C53.1212 30.1365 54.0378 30.4391 54.9782 30.3717C54.976 30.4026 54.9735 30.4338 54.9712 30.4646" fill="#EE232C"/>
<path d="M51.719 31.3499C52.489 31.8936 53.7881 32.0595 54.7301 31.9197C54.7218 31.9521 54.7129 31.9849 54.7047 32.0176C54.2739 32.1549 53.6453 32.1308 53.1894 32.0561C52.6988 31.976 51.96 31.7299 51.6833 31.4619C51.7062 31.4332 51.7002 31.4006 51.719 31.3499Z" fill="#EE232C"/>
<path d="M51.5043 31.9999C52.2794 32.547 53.6045 32.7193 54.5491 32.5748C54.5396 32.6058 54.531 32.6373 54.5218 32.6681C54.0906 32.8125 53.4516 32.7894 52.9896 32.7136C52.4991 32.6335 51.7418 32.3849 51.4648 32.1166C51.4817 32.0555 51.4852 32.0508 51.5043 31.9999" fill="#EE232C"/>
<path d="M53.7722 41.8226C54.0345 42.0411 54.3521 42.1565 54.6881 42.1813C54.5142 42.6436 53.7467 42.3342 53.4234 42.2245C53.4291 42.3189 53.5617 42.6126 53.7579 42.9059C53.9334 43.1678 54.1537 43.4202 54.4707 43.6628C54.4955 43.6819 54.7336 43.7986 54.8493 43.901C54.9358 43.9773 54.9263 44.0443 54.8605 44.0615C54.6446 44.1187 54.4284 43.9626 54.224 43.8666C54.0208 43.7716 53.6511 43.5611 53.6587 43.5703C53.4781 43.4133 53.3611 43.2585 53.1745 43.123C53.1576 43.1105 53.1347 43.1462 53.1506 43.1656C53.364 43.4215 53.5445 43.5579 53.7763 43.7967C54.0389 44.0676 54.3693 44.2958 54.581 44.4784C54.684 44.5673 54.6363 44.63 54.5349 44.6297C54.3686 44.6294 53.7639 44.3527 53.5334 44.1197C53.301 43.8847 53.1188 43.6167 52.8778 43.3993C52.8673 43.3897 52.8511 43.404 52.8591 43.4158C53.0514 43.6972 53.2365 43.9807 53.4857 44.2049C53.6231 44.3282 53.8068 44.436 53.983 44.5648C54.1451 44.6828 54.3079 44.8236 54.2818 44.9094C54.2643 44.9663 54.0987 44.9225 53.8866 44.8426C53.7022 44.7733 53.3862 44.6812 53.1357 44.38C52.992 44.2074 52.791 43.8631 52.6489 43.6901C52.6308 43.6685 52.5863 43.6848 52.6012 43.7146C52.6868 43.888 52.8775 44.2005 52.9936 44.3553C53.0428 44.4214 53.0944 44.4856 53.149 44.5473C53.1789 44.5804 53.2094 44.6135 53.2406 44.6449C53.2625 44.6669 53.3385 44.7307 53.3608 44.7517C53.4145 44.7941 53.4059 45.0325 53.2444 44.9476C52.3434 44.4729 52.097 43.2623 51.8675 42.2849C52.4693 42.2512 53.1328 41.9396 53.5608 41.6105C53.6266 41.6855 53.6946 41.7585 53.7722 41.8226V41.8226ZM55.1911 26.965C55.1558 26.9704 55.1202 26.9746 55.0846 26.9793C55.0846 26.98 55.0846 26.9806 55.0849 26.9816C55.2254 27.6696 55.1733 28.3725 55.0662 29.1969C54.974 29.9041 54.8675 30.6492 54.7272 31.3566C54.4522 32.747 53.969 33.9339 53.397 35.2119C53.3923 35.1995 53.3853 35.1883 53.3808 35.1756C53.3026 35.0004 53.2225 34.8265 53.1351 34.6568C53.1293 34.6456 53.1109 34.6533 53.115 34.6653C53.1888 34.8885 53.2648 35.1133 53.3401 35.3397C53.3385 35.3428 53.3372 35.3458 53.3357 35.3489C53.3318 35.3581 53.3401 35.3654 53.3484 35.3646C53.8927 36.998 54.4125 38.7104 54.0351 40.4339C53.8994 41.0558 53.6377 41.3861 53.0816 41.6831C52.6985 41.8875 52.1084 42.1638 51.6557 42.1243C50.4473 42.0191 50.1106 40.2673 50.032 39.3141C49.8896 40.2673 50.2778 41.5457 51.0256 42.077C51.23 42.2226 51.4786 42.283 51.7428 42.2859C51.8137 42.7698 51.9342 43.2212 52.1164 43.6463C52.2185 43.8831 52.3831 44.2522 52.5548 44.4662C52.7462 44.7053 53.0346 44.9288 53.3004 45.0782C53.4368 45.1549 53.5341 44.8795 53.4806 44.7607C53.6835 44.8649 54.2866 45.1298 54.3925 45.0083C54.4888 44.898 54.2755 44.7342 54.1899 44.6309C54.2984 44.6834 54.4414 44.7189 54.5645 44.7069C54.7129 44.6926 54.8255 44.5569 54.5848 44.3769C54.3127 44.1735 54.0392 43.9153 53.9614 43.8428C54.2494 44.0339 54.8064 44.2742 54.987 44.1276C55.2401 43.9216 54.6265 43.6695 54.506 43.5595C54.2853 43.3583 54.0752 43.1449 53.9092 42.8969C53.7986 42.7322 53.7083 42.5453 53.5817 42.3911C53.825 42.5358 54.1893 42.6295 54.4475 42.5682C54.6141 42.5285 54.8884 42.2961 54.8455 42.0786C54.3867 42.0346 53.9814 41.8414 53.6758 41.5168C53.6774 41.5152 53.68 41.5133 53.6822 41.5114C54.4475 40.8438 54.3674 39.4474 54.2844 38.5355C54.1864 37.4635 53.9019 36.3958 53.4784 35.3988C53.4558 35.3587 53.4409 35.3152 53.4234 35.2726C54.3569 34.1236 54.6544 32.3985 54.9199 30.9936C55.0678 30.2118 55.5017 28.0381 55.1956 26.9816C55.1937 26.9749 55.1924 26.9714 55.1911 26.965" fill="#3B1818"/>
<path d="M55.4121 17.9965C54.8344 17.3069 53.902 18.7135 53.79 19.1535C54.0008 18.9614 54.361 18.592 54.4507 18.5481C54.6491 18.4515 54.8551 18.6228 54.7559 18.8352C54.609 19.1503 54.2688 19.3907 54.0015 19.589C54.5636 19.6081 56.0327 18.7367 55.4121 17.9965" fill="#51AD37"/>
<path d="M55.4121 22.3252C54.8344 23.0148 53.902 21.6085 53.79 21.1682C54.0008 21.3606 54.361 21.73 54.4507 21.7739C54.6491 21.8705 54.8551 21.6988 54.7559 21.4868C54.609 21.1717 54.2688 20.9314 54.0015 20.733C54.5636 20.7136 56.0327 21.5853 55.4121 22.3252" fill="#51AD37"/>
<path d="M54.0671 20.1038C54.0671 20.1038 55.2209 19.5986 55.2397 20.1038C55.2578 20.6093 54.0671 20.1038 54.0671 20.1038Z" fill="#FAD10F"/>
<path d="M54.0671 17.9132C54.0671 17.9132 54.4175 16.7032 54.8175 17.0125C55.2174 17.3219 54.0671 17.9132 54.0671 17.9132Z" fill="#FAD10F"/>
<path d="M54.0671 22.3004C54.0671 22.3004 54.4175 23.5108 54.8175 23.2014C55.2174 22.892 54.0671 22.3004 54.0671 22.3004Z" fill="#FAD10F"/>
<path d="M66.5051 17.9965C67.0828 17.3069 68.0156 18.7135 68.1275 19.1535C67.9168 18.9614 67.5565 18.592 67.4669 18.5481C67.2682 18.4515 67.0625 18.6228 67.1617 18.8352C67.3082 19.1503 67.6487 19.3907 67.9164 19.589C67.354 19.6081 65.8849 18.7367 66.5051 17.9965" fill="#51AD37"/>
<path d="M66.5051 22.3252C67.0828 23.0148 68.0156 21.6085 68.1275 21.1682C67.9168 21.3606 67.5565 21.73 67.4669 21.7739C67.2682 21.8705 67.0625 21.6988 67.1617 21.4868C67.3082 21.1717 67.6487 20.9314 67.9164 20.733C67.354 20.7136 65.8849 21.5853 66.5051 22.3252" fill="#51AD37"/>
<path d="M67.8507 20.1038C67.8507 20.1038 66.6966 19.5986 66.6782 20.1038C66.6594 20.6093 67.8507 20.1038 67.8507 20.1038Z" fill="#FAD10F"/>
<path d="M67.8506 17.9132C67.8506 17.9132 67.5002 16.7032 67.0999 17.0125C66.6997 17.3219 67.8506 17.9132 67.8506 17.9132Z" fill="#FAD10F"/>
<path d="M58.9982 12.564C58.9982 12.564 57.7856 12.9048 58.0918 13.3073C58.398 13.7101 58.9982 12.564 58.9982 12.564Z" fill="#FAD10F"/>
<path d="M59.8485 12.7008C59.8485 12.7008 59.0333 13.6612 59.5124 13.8237C59.9913 13.9865 59.8485 12.7008 59.8485 12.7008Z" fill="#FAD10F"/>
<path d="M62.0034 12.7008C62.0034 12.7008 62.8179 13.6612 62.3395 13.8237C61.8603 13.9865 62.0034 12.7008 62.0034 12.7008Z" fill="#FAD10F"/>
<path d="M60.9164 12.8069C60.9164 12.8069 61.4314 13.9565 60.9262 13.9791C60.4207 14.002 60.9164 12.8069 60.9164 12.8069Z" fill="#FAD10F"/>
<path d="M62.9587 12.564C62.9587 12.564 64.1713 12.9048 63.8652 13.3073C63.559 13.7101 62.9587 12.564 62.9587 12.564Z" fill="#FAD10F"/>
<path d="M67.8506 22.3004C67.8506 22.3004 67.5002 23.5108 67.0999 23.2014C66.6997 22.892 67.8506 22.3004 67.8506 22.3004Z" fill="#FAD10F"/>
<path d="M64.0288 35.5848C64.1226 35.1565 64.3426 34.2069 63.701 34.0625C63.0438 33.9147 62.6105 34.8724 62.4773 35.3499C62.2417 36.193 62.3796 37.7238 62.6063 38.4182C63.0317 37.8571 63.8434 36.4317 64.0288 35.5848Z" fill="#51AD37"/>
<path d="M56.1298 38.4923C55.7123 38.3582 54.7884 38.0482 54.5834 38.6735C54.3735 39.3135 55.2857 39.8362 55.7479 40.0143C56.5647 40.329 58.1016 40.3379 58.815 40.1784C58.2968 39.7015 56.9554 38.7575 56.1298 38.4923Z" fill="#51AD37"/>
<path d="M55.319 35.7158C55.0033 35.4106 54.3118 34.7245 53.8511 35.1948C53.3803 35.6758 53.9672 36.5481 54.3029 36.9122C54.8965 37.5557 56.2712 38.2433 56.9815 38.4153C56.7275 37.7582 55.9419 36.319 55.319 35.7158" fill="#51AD37"/>
<path d="M66.334 37.3109C66.6713 37.0298 67.427 36.4152 67.0086 35.9073C66.5804 35.3877 65.6507 35.8784 65.253 36.1737C64.5497 36.695 63.7196 37.9888 63.4729 38.6768C64.1533 38.4939 65.6682 37.866 66.334 37.3109Z" fill="#51AD37"/>
<path d="M59.7599 36.6473C59.6833 36.2157 59.5243 35.2539 58.8757 35.3658C58.2122 35.4799 58.1772 36.5304 58.2361 37.0225C58.3403 37.8918 59.0525 39.2538 59.5275 39.8091C59.7059 39.1282 59.9122 37.5013 59.7599 36.6473" fill="#51AD37"/>
<path d="M57.7271 35.0061C57.6505 34.5745 57.4915 33.6127 56.8426 33.7244C56.1794 33.8385 56.1441 34.8891 56.2032 35.3813C56.3075 36.2506 57.0194 37.6126 57.4944 38.1677C57.673 37.4868 57.8791 35.8599 57.7271 35.0061" fill="#51AD37"/>
<path d="M60.9964 49.9426C60.7373 50.2965 60.1514 51.0755 60.6798 51.467C61.2206 51.8687 62.0046 51.1686 62.32 50.7863C62.8767 50.1107 63.3711 48.6553 63.4445 47.9282C62.8284 48.2693 61.509 49.2431 60.9964 49.9426Z" fill="#51AD37"/>
<path d="M66.0567 46.3351C66.4357 46.5558 67.2719 47.0568 67.6063 46.4902C67.9484 45.9104 67.1701 45.2038 66.7568 44.9305C66.0265 44.4475 64.5275 44.1089 63.7969 44.1118C64.2003 44.6888 65.3077 45.8989 66.0567 46.3351Z" fill="#51AD37"/>
<path d="M66.2519 49.2209C66.4944 49.5862 67.0228 50.4056 67.5732 50.0453C68.1366 49.6766 67.7509 48.6982 67.501 48.2706C67.0594 47.5147 65.8646 46.548 65.2078 46.2273C65.3149 46.9232 65.7731 48.498 66.2519 49.2209" fill="#51AD37"/>
<path d="M55.1699 47.1346C54.7369 47.2062 53.7735 47.3528 53.8766 48.0024C53.9824 48.6674 55.0326 48.7161 55.5253 48.6633C56.3958 48.5704 57.7671 47.8761 58.3286 47.4083C57.6498 47.2208 56.0255 46.9938 55.1699 47.1346" fill="#51AD37"/>
<path d="M58.5255 49.9656C58.4743 50.4012 58.3487 51.3676 59.0017 51.4481C59.67 51.5307 60.0074 50.5351 60.0926 50.047C60.2442 49.1845 59.9562 47.6749 59.6621 47.0056C59.2939 47.6065 58.6266 49.1044 58.5255 49.9656Z" fill="#51AD37"/>
<path d="M55.6563 49.7369C55.3276 50.0272 54.589 50.6634 55.0214 51.1591C55.4646 51.6661 56.3796 51.1495 56.7694 50.843C57.4574 50.3019 58.2503 48.9857 58.4776 48.2907C57.8027 48.4926 56.3061 49.163 55.6563 49.7369" fill="#51AD37"/>
<path d="M56.2257 44.7047C55.8115 44.5607 54.8949 44.2297 54.6755 44.85C54.451 45.4846 55.3505 46.0286 55.8089 46.2174C56.6181 46.5509 58.1543 46.5955 58.8709 46.452C58.3638 45.9634 57.0447 44.9886 56.2257 44.7047Z" fill="#51AD37"/>
<path d="M63.7477 49.3968C63.7302 49.8352 63.6787 50.8083 64.3358 50.8385C65.0086 50.8694 65.2683 49.8507 65.3166 49.3579C65.4012 48.4862 64.9987 47.003 64.6541 46.3585C64.3333 46.9858 63.7826 48.5304 63.7477 49.3968" fill="#51AD37"/>
<path d="M63.4597 39.8976C63.425 40.2399 63.1192 40.4896 62.7764 40.4549C62.4334 40.4197 62.1841 40.1137 62.2191 39.771C62.2537 39.4286 62.5599 39.179 62.9023 39.2136C63.2451 39.2487 63.4943 39.5548 63.4597 39.8976Z" fill="white"/>
<path d="M63.9153 38.1121C63.8651 38.6038 63.4254 38.9625 62.9332 38.9126C62.4408 38.8627 62.0821 38.423 62.1324 37.9305C62.1823 37.4381 62.622 37.0798 63.1142 37.1299C63.6066 37.1799 63.9653 37.6196 63.9153 38.1121Z" fill="#EE232C"/>
<path d="M62.4941 41.3452C62.4442 41.8373 62.0045 42.1959 61.5121 42.1459C61.0199 42.096 60.6613 41.6564 60.7112 41.164C60.7614 40.6718 61.2011 40.3131 61.6933 40.3633C62.1858 40.4132 62.5441 40.853 62.4941 41.3452" fill="#EE232C"/>
<path d="M64.6765 41.5671C64.6266 42.0595 64.1869 42.4178 63.6944 42.3676C63.2019 42.3177 62.8436 41.8779 62.8939 41.3858C62.9438 40.8937 63.3835 40.535 63.8759 40.585C64.3678 40.6352 64.7264 41.0749 64.6765 41.5671Z" fill="#EE232C"/>
<path d="M61.1606 40.1378C60.6681 40.0876 60.3095 39.6483 60.3594 39.1558C60.4093 38.6633 60.8493 38.305 61.3415 38.3549C61.8339 38.4048 62.1926 38.8445 62.142 39.337C62.0921 39.8292 61.6524 40.1878 61.1606 40.1378Z" fill="#EE232C"/>
<path d="M64.4035 40.4676C63.911 40.4171 63.5524 39.9777 63.6023 39.4855C63.6525 38.993 64.0922 38.6344 64.5844 38.6843C65.0769 38.7349 65.4355 39.1743 65.3856 39.6664C65.335 40.1588 64.8956 40.5175 64.4035 40.4676" fill="#EE232C"/>
<path d="M58.1029 41.5167C58.2492 41.829 58.1147 42.2001 57.8028 42.3462C57.4912 42.4922 57.1199 42.3577 56.974 42.0462C56.8277 41.734 56.9619 41.3626 57.2741 41.2167C57.5857 41.0704 57.957 41.2052 58.1029 41.5167Z" fill="white"/>
<path d="M57.577 39.751C57.7869 40.1994 57.5936 40.7328 57.1456 40.9423C56.6973 41.1522 56.1642 40.9592 55.9543 40.5108C55.7442 40.0626 55.9375 39.5295 56.3858 39.3192C56.8337 39.1097 57.3672 39.303 57.577 39.751Z" fill="#EE232C"/>
<path d="M58.0181 43.2552C58.2279 43.7032 58.0349 44.2367 57.5863 44.4466C57.1384 44.6563 56.6049 44.4633 56.395 44.0151C56.1852 43.5672 56.3785 43.0336 56.8268 42.8238C57.2748 42.614 57.8082 42.807 58.0181 43.2552Z" fill="#EE232C"/>
<path d="M60.0046 42.325C60.2144 42.7732 60.0215 43.3064 59.5732 43.5166C59.1249 43.7264 58.5914 43.5331 58.3816 43.0848C58.1717 42.6369 58.3653 42.1033 58.8133 41.8936C59.2613 41.6837 59.7948 41.8767 60.0046 42.325" fill="#EE232C"/>
<path d="M56.2534 42.9043C55.8054 43.1142 55.2719 42.9208 55.0621 42.4724C54.8523 42.0245 55.0452 41.4911 55.4935 41.2812C55.9418 41.0714 56.475 41.2647 56.6848 41.7126C56.895 42.161 56.7017 42.6944 56.2534 42.9043" fill="#EE232C"/>
<path d="M59.205 41.5216C58.7571 41.7314 58.2236 41.5384 58.0137 41.0904C57.8039 40.6422 57.9969 40.1087 58.4455 39.8988C58.8935 39.6887 59.4266 39.8823 59.6368 40.3303C59.8466 40.7782 59.6533 41.3117 59.205 41.5216Z" fill="#EE232C"/>
<path d="M62.8284 45.2255C62.9744 45.5373 62.8399 45.9083 62.528 46.0546C62.2161 46.2005 61.8451 46.066 61.6988 45.7544C61.5529 45.4422 61.6874 45.0709 61.9989 44.925C62.3112 44.779 62.6825 44.9135 62.8284 45.2255" fill="white"/>
<path d="M62.3017 43.4594C62.5119 43.9076 62.3186 44.4411 61.8706 44.651C61.4223 44.8605 60.8888 44.6675 60.679 44.2192C60.4691 43.771 60.6624 43.2377 61.1104 43.028C61.5587 42.8181 62.0919 43.0114 62.3017 43.4594Z" fill="#EE232C"/>
<path d="M62.7433 46.9636C62.9531 47.4116 62.7598 47.9451 62.3119 48.1549C61.8636 48.3652 61.3304 48.1718 61.1206 47.7234C60.9104 47.2755 61.1037 46.7421 61.5517 46.5322C62 46.3224 62.5335 46.5153 62.7433 46.9636" fill="#EE232C"/>
<path d="M64.7294 46.0337C64.9392 46.4817 64.7462 47.0148 64.2979 47.2249C63.85 47.4348 63.3165 47.2415 63.1067 46.7932C62.8965 46.3453 63.0898 45.8118 63.5381 45.602C63.9861 45.3921 64.5195 45.5851 64.7294 46.0337Z" fill="#EE232C"/>
<path d="M60.9782 46.6126C60.5299 46.8224 59.9964 46.6291 59.7869 46.1808C59.5771 45.7329 59.7704 45.1994 60.2183 44.9896C60.6666 44.7797 61.2001 44.973 61.4099 45.421C61.6194 45.8693 61.4261 46.4027 60.9782 46.6126" fill="#EE232C"/>
<path d="M63.9303 45.2302C63.4824 45.4397 62.9492 45.2467 62.739 44.7988C62.5292 44.3504 62.7225 43.817 63.1705 43.6071C63.6188 43.3977 64.1522 43.5906 64.3621 44.0386C64.5719 44.4869 64.3786 45.0203 63.9303 45.2302" fill="#EE232C"/>
</g>
<defs>
<filter id="filter0_d_388_51" x="0" y="2" width="122" height="142.835" filterUnits="userSpaceOnUse" color-interpolation-filters="sRGB">
<feFlood flood-opacity="0" result="BackgroundImageFix"/>
<feColorMatrix in="SourceAlpha" type="matrix" values="0 0 0 0 0 0 0 0 0 0 0 0 0 0 0 0 0 0 127 0" result="hardAlpha"/>
<feOffset dy="40"/>
<feGaussianBlur stdDeviation="25"/>
<feComposite in2="hardAlpha" operator="out"/>
<feColorMatrix type="matrix" values="0 0 0 0 1 0 0 0 0 1 0 0 0 0 1 0 0 0 0.25 0"/>
<feBlend mode="normal" in2="BackgroundImageFix" result="effect1_dropShadow_388_51"/>
<feBlend mode="normal" in="SourceGraphic" in2="effect1_dropShadow_388_51" result="shape"/>
</filter>
<linearGradient id="paint0_linear_388_51" x1="60.5" y1="0" x2="60.5" y2="65" gradientUnits="userSpaceOnUse">
<stop stop-color="#613FE9"/>
<stop offset="1" stop-color="#E91212" stop-opacity="0.93"/>
</linearGradient>
</defs>
</svg>
