<svg width="33" height="33" viewBox="0 0 33 33" fill="none" xmlns="http://www.w3.org/2000/svg">
<path d="M16.25 0.25C7.41429 0.25 0.25 7.41429 0.25 16.25C0.25 25.0857 7.41429 32.25 16.25 32.25C25.0857 32.25 32.25 25.0857 32.25 16.25C32.25 7.41429 25.0857 0.25 16.25 0.25ZM23.9393 12.3107C23.95 12.4786 23.95 12.6536 23.95 12.825C23.95 18.0679 19.9571 24.1071 12.6607 24.1071C10.4107 24.1071 8.325 23.4536 6.56786 22.3286C6.88929 22.3643 7.19643 22.3786 7.525 22.3786C9.38214 22.3786 11.0893 21.75 12.45 20.6857C10.7071 20.65 9.24286 19.5071 8.74286 17.9357C9.35357 18.025 9.90357 18.025 10.5321 17.8643C9.63474 17.682 8.82813 17.1946 8.24934 16.4849C7.67056 15.7753 7.35531 14.8872 7.35714 13.9714V13.9214C7.88214 14.2179 8.5 14.4 9.14643 14.425C8.60301 14.0628 8.15735 13.5722 7.84897 12.9965C7.54059 12.4209 7.37901 11.778 7.37857 11.125C7.37857 10.3857 7.57143 9.71071 7.91786 9.125C8.91394 10.3512 10.1569 11.3541 11.5659 12.0684C12.975 12.7828 14.5186 13.1927 16.0964 13.2714C15.5357 10.575 17.55 8.39286 19.9714 8.39286C21.1143 8.39286 22.1429 8.87143 22.8679 9.64286C23.7643 9.475 24.6214 9.13929 25.3857 8.68929C25.0893 9.60714 24.4679 10.3821 23.6429 10.8714C24.4429 10.7857 25.2143 10.5643 25.9286 10.2536C25.3893 11.0464 24.7143 11.75 23.9393 12.3107Z" fill="white"/>
</svg>
